<svg width="174" height="58" viewBox="0 0 174 58" fill="none" xmlns="http://www.w3.org/2000/svg">
<path d="M28.5008 6.19995V51.7999L8.55078 40.3999V17.6L28.5008 6.19995Z" fill="#25C679"/>
<path opacity="0.4" d="M8.55078 17.6L48.4508 40.4V17.6L28.5008 6.19995L8.55078 17.6Z" fill="#25C679"/>
<path d="M77.5856 38.5H70.9356V18.8757H77.7198C79.6682 18.8757 81.3419 19.2685 82.7409 20.0543C84.1463 20.8336 85.2259 21.9547 85.9796 23.4176C86.7334 24.8805 87.1103 26.6309 87.1103 28.6687C87.1103 30.7129 86.7303 32.4696 85.9701 33.9389C85.2163 35.4081 84.1271 36.5357 82.7025 37.3214C81.2844 38.1071 79.5787 38.5 77.5856 38.5ZM74.4906 35.4241H77.4132C78.7802 35.4241 79.9205 35.175 80.834 34.6767C81.7475 34.172 82.4342 33.4214 82.8942 32.4249C83.3541 31.422 83.5841 30.1699 83.5841 28.6687C83.5841 27.1675 83.3541 25.9218 82.8942 24.9316C82.4342 23.9351 81.7539 23.1908 80.8532 22.699C79.9588 22.2007 78.8473 21.9516 77.5186 21.9516H74.4906V35.4241ZM94.3003 38.797C93.3676 38.797 92.5275 38.631 91.7801 38.2988C91.0391 37.9602 90.4514 37.4619 90.017 36.804C89.589 36.146 89.375 35.3347 89.375 34.3701C89.375 33.5396 89.5283 32.8529 89.8349 32.3099C90.1416 31.7669 90.56 31.3325 91.0902 31.0067C91.6204 30.6809 92.2177 30.435 92.8821 30.2689C93.5528 30.0964 94.246 29.9718 94.9614 29.8952C95.8238 29.8058 96.5233 29.7259 97.0599 29.6556C97.5965 29.579 97.9862 29.464 98.229 29.3107C98.4781 29.151 98.6027 28.905 98.6027 28.5728V28.5154C98.6027 27.7935 98.3887 27.2345 97.9606 26.8385C97.5326 26.4424 96.9162 26.2444 96.1113 26.2444C95.2617 26.2444 94.5877 26.4296 94.0894 26.8001C93.5976 27.1707 93.2654 27.6082 93.0929 28.1129L89.8541 27.653C90.1096 26.7586 90.5313 26.0112 91.119 25.4107C91.7067 24.8038 92.4253 24.3503 93.275 24.0501C94.1246 23.7434 95.0636 23.5901 96.0921 23.5901C96.8012 23.5901 97.5071 23.6732 98.2098 23.8392C98.9125 24.0053 99.5545 24.28 100.136 24.6633C100.717 25.0402 101.183 25.5545 101.535 26.206C101.893 26.8576 102.071 27.6721 102.071 28.6495V38.5H98.7368V36.4782H98.6218C98.411 36.887 98.114 37.2703 97.7307 37.628C97.3538 37.9794 96.8779 38.2636 96.3029 38.4808C95.7344 38.6916 95.0668 38.797 94.3003 38.797ZM95.201 36.2482C95.8973 36.2482 96.501 36.1108 97.012 35.8361C97.5231 35.5551 97.9159 35.1846 98.1906 34.7246C98.4717 34.2647 98.6122 33.7632 98.6122 33.2202V31.4858C98.5036 31.5753 98.3184 31.6583 98.0565 31.735C97.8009 31.8116 97.5135 31.8787 97.1941 31.9362C96.8747 31.9937 96.5585 32.0448 96.2454 32.0895C95.9324 32.1342 95.6609 32.1726 95.431 32.2045C94.9135 32.2748 94.4504 32.3898 94.0415 32.5495C93.6327 32.7092 93.3101 32.9327 93.0737 33.2202C92.8374 33.5013 92.7192 33.8654 92.7192 34.3126C92.7192 34.9514 92.9524 35.4337 93.4187 35.7595C93.885 36.0853 94.4791 36.2482 95.201 36.2482ZM111.805 38.7875C110.33 38.7875 109.055 38.4808 107.982 37.8676C106.915 37.2479 106.094 36.3728 105.519 35.2421C104.945 34.105 104.657 32.7667 104.657 31.2271C104.657 29.7131 104.945 28.3844 105.519 27.2409C106.101 26.0911 106.912 25.1967 107.953 24.5579C108.995 23.9127 110.218 23.5901 111.623 23.5901C112.53 23.5901 113.386 23.737 114.191 24.0309C115.003 24.3184 115.718 24.7655 116.338 25.3724C116.964 25.9793 117.456 26.7522 117.813 27.6913C118.171 28.624 118.35 29.7355 118.35 31.0259V32.0895H106.286V29.7515H115.025C115.019 29.0871 114.875 28.4962 114.594 27.9788C114.313 27.4549 113.92 27.0429 113.415 26.7426C112.917 26.4424 112.336 26.2923 111.671 26.2923C110.962 26.2923 110.339 26.4648 109.803 26.8097C109.266 27.1483 108.848 27.5955 108.547 28.1512C108.254 28.7006 108.103 29.3043 108.097 29.9623V32.0033C108.097 32.8593 108.254 33.5939 108.567 34.2072C108.88 34.814 109.317 35.2804 109.879 35.6062C110.442 35.9256 111.099 36.0853 111.853 36.0853C112.358 36.0853 112.815 36.015 113.224 35.8745C113.632 35.7276 113.987 35.5135 114.287 35.2325C114.587 34.9514 114.814 34.6032 114.968 34.188L118.206 34.5521C118.002 35.4081 117.612 36.1556 117.037 36.7944C116.469 37.4268 115.74 37.9187 114.853 38.27C113.965 38.615 112.949 38.7875 111.805 38.7875ZM123.973 38.5L119.815 23.7817H123.35L125.938 34.1305H126.072L128.716 23.7817H132.214L134.859 34.073H135.002L137.551 23.7817H141.097L136.928 38.5H133.316L130.556 28.5537H130.355L127.595 38.5H123.973ZM149.247 38.7875C147.81 38.7875 146.564 38.4713 145.51 37.8388C144.456 37.2064 143.638 36.3216 143.057 35.1846C142.482 34.0475 142.195 32.7187 142.195 31.1984C142.195 29.678 142.482 28.3461 143.057 27.2026C143.638 26.0591 144.456 25.1712 145.51 24.5387C146.564 23.9063 147.81 23.5901 149.247 23.5901C150.684 23.5901 151.93 23.9063 152.984 24.5387C154.038 25.1712 154.853 26.0591 155.428 27.2026C156.009 28.3461 156.3 29.678 156.3 31.1984C156.3 32.7187 156.009 34.0475 155.428 35.1846C154.853 36.3216 154.038 37.2064 152.984 37.8388C151.93 38.4713 150.684 38.7875 149.247 38.7875ZM149.266 36.0086C150.046 36.0086 150.697 35.7946 151.221 35.3666C151.745 34.9322 152.135 34.3509 152.39 33.6227C152.652 32.8944 152.783 32.0831 152.783 31.1888C152.783 30.2881 152.652 29.4736 152.39 28.7453C152.135 28.0107 151.745 27.4262 151.221 26.9918C150.697 26.5574 150.046 26.3402 149.266 26.3402C148.468 26.3402 147.803 26.5574 147.273 26.9918C146.749 27.4262 146.357 28.0107 146.095 28.7453C145.839 29.4736 145.711 30.2881 145.711 31.1888C145.711 32.0831 145.839 32.8944 146.095 33.6227C146.357 34.3509 146.749 34.9322 147.273 35.3666C147.803 35.7946 148.468 36.0086 149.266 36.0086ZM165.394 38.7875C163.957 38.7875 162.711 38.4713 161.657 37.8388C160.603 37.2064 159.785 36.3216 159.204 35.1846C158.629 34.0475 158.342 32.7187 158.342 31.1984C158.342 29.678 158.629 28.3461 159.204 27.2026C159.785 26.0591 160.603 25.1712 161.657 24.5387C162.711 23.9063 163.957 23.5901 165.394 23.5901C166.831 23.5901 168.077 23.9063 169.131 24.5387C170.185 25.1712 171 26.0591 171.575 27.2026C172.156 28.3461 172.446 29.678 172.446 31.1984C172.446 32.7187 172.156 34.0475 171.575 35.1846C171 36.3216 170.185 37.2064 169.131 37.8388C168.077 38.4713 166.831 38.7875 165.394 38.7875ZM165.413 36.0086C166.193 36.0086 166.844 35.7946 167.368 35.3666C167.892 34.9322 168.281 34.3509 168.537 33.6227C168.799 32.8944 168.93 32.0831 168.93 31.1888C168.93 30.2881 168.799 29.4736 168.537 28.7453C168.281 28.0107 167.892 27.4262 167.368 26.9918C166.844 26.5574 166.193 26.3402 165.413 26.3402C164.615 26.3402 163.95 26.5574 163.42 26.9918C162.896 27.4262 162.503 28.0107 162.241 28.7453C161.986 29.4736 161.858 30.2881 161.858 31.1888C161.858 32.0831 161.986 32.8944 162.241 33.6227C162.503 34.3509 162.896 34.9322 163.42 35.3666C163.95 35.7946 164.615 36.0086 165.413 36.0086Z" fill="white"/>
</svg>
