<svg width="190" height="62" viewBox="0 0 190 62" fill="none" xmlns="http://www.w3.org/2000/svg">
<path d="M51.679 48.4267L28.4453 61.9797V13.5762L51.679 27.1292V48.4267Z" fill="#E6692C"/>
<path d="M23.554 34.874L0.320312 48.427V0.0234375L23.554 13.5764V34.874Z" fill="#E6692C"/>
<path d="M70.6153 40.5015V20.8771H83.3788V23.8572H74.1703V29.1849H82.7176V32.165H74.1703V37.5214H83.4554V40.5015H70.6153ZM86.5825 40.5015V25.7832H89.8979V28.2842H90.0704C90.377 27.4409 90.8849 26.783 91.594 26.3102C92.3031 25.8311 93.1495 25.5916 94.1333 25.5916C95.1298 25.5916 95.9698 25.8343 96.6534 26.3198C97.3433 26.7989 97.8288 27.4537 98.1099 28.2842H98.2632C98.589 27.4665 99.1384 26.8149 99.9113 26.3294C100.691 25.8375 101.614 25.5916 102.681 25.5916C104.035 25.5916 105.14 26.0196 105.996 26.8756C106.852 27.7316 107.28 28.9805 107.28 30.6222V40.5015H103.802V31.1588C103.802 30.2453 103.559 29.5778 103.073 29.1561C102.588 28.7281 101.994 28.5141 101.291 28.5141C100.454 28.5141 99.7995 28.7761 99.3268 29.2999C98.8605 29.8173 98.6273 30.4913 98.6273 31.3217V40.5015H95.2256V31.0151C95.2256 30.2549 94.9957 29.648 94.5357 29.1945C94.0821 28.7409 93.4881 28.5141 92.7534 28.5141C92.2551 28.5141 91.8016 28.6419 91.3927 28.8974C90.9839 29.1466 90.6581 29.5011 90.4154 29.9611C90.1726 30.4146 90.0512 30.9448 90.0512 31.5517V40.5015H86.5825ZM110.529 46.0208V25.7832H113.941V28.2171H114.142C114.321 27.8594 114.573 27.4793 114.899 27.0768C115.225 26.668 115.665 26.3198 116.221 26.0324C116.777 25.7385 117.486 25.5916 118.348 25.5916C119.485 25.5916 120.511 25.8822 121.424 26.4635C122.344 27.0385 123.072 27.8913 123.609 29.022C124.152 30.1463 124.423 31.5261 124.423 33.1615C124.423 34.7777 124.158 36.1511 123.628 37.2818C123.098 38.4125 122.376 39.2749 121.463 39.869C120.549 40.4631 119.514 40.7602 118.358 40.7602C117.515 40.7602 116.815 40.6196 116.259 40.3386C115.704 40.0575 115.256 39.7189 114.918 39.3229C114.586 38.9204 114.327 38.5403 114.142 38.1826H113.998V46.0208H110.529ZM113.931 33.1423C113.931 34.0942 114.065 34.9278 114.333 35.6433C114.608 36.3588 115.001 36.9177 115.512 37.3202C116.029 37.7162 116.655 37.9143 117.39 37.9143C118.157 37.9143 118.799 37.7099 119.316 37.301C119.834 36.8858 120.223 36.3204 120.485 35.605C120.753 34.8831 120.888 34.0622 120.888 33.1423C120.888 32.2288 120.757 31.4175 120.495 30.7085C120.233 29.9994 119.843 29.4436 119.326 29.0412C118.808 28.6387 118.163 28.4375 117.39 28.4375C116.649 28.4375 116.02 28.6323 115.502 29.022C114.985 29.4117 114.592 29.9579 114.324 30.6606C114.062 31.3632 113.931 32.1905 113.931 33.1423ZM133.544 40.7889C132.107 40.7889 130.861 40.4727 129.807 39.8403C128.753 39.2079 127.935 38.3231 127.354 37.186C126.779 36.0489 126.492 34.7202 126.492 33.1998C126.492 31.6795 126.779 30.3475 127.354 29.2041C127.935 28.0606 128.753 27.1726 129.807 26.5402C130.861 25.9078 132.107 25.5916 133.544 25.5916C134.981 25.5916 136.227 25.9078 137.281 26.5402C138.335 27.1726 139.15 28.0606 139.725 29.2041C140.306 30.3475 140.597 31.6795 140.597 33.1998C140.597 34.7202 140.306 36.0489 139.725 37.186C139.15 38.3231 138.335 39.2079 137.281 39.8403C136.227 40.4727 134.981 40.7889 133.544 40.7889ZM133.563 38.0101C134.343 38.0101 134.994 37.7961 135.518 37.3681C136.042 36.9337 136.432 36.3524 136.687 35.6241C136.949 34.8959 137.08 34.0846 137.08 33.1903C137.08 32.2895 136.949 31.475 136.687 30.7468C136.432 30.0122 136.042 29.4276 135.518 28.9932C134.994 28.5589 134.343 28.3417 133.563 28.3417C132.765 28.3417 132.1 28.5589 131.57 28.9932C131.046 29.4276 130.654 30.0122 130.392 30.7468C130.136 31.475 130.008 32.2895 130.008 33.1903C130.008 34.0846 130.136 34.8959 130.392 35.6241C130.654 36.3524 131.046 36.9337 131.57 37.3681C132.1 37.7961 132.765 38.0101 133.563 38.0101ZM145.887 40.5015L141.728 25.7832H145.264L147.851 36.132H147.985L150.63 25.7832H154.128L156.772 36.0745H156.916L159.465 25.7832H163.01L158.842 40.5015H155.23L152.47 30.5551H152.269L149.509 40.5015H145.887ZM171.257 40.7889C169.781 40.7889 168.507 40.4823 167.433 39.869C166.366 39.2494 165.546 38.3742 164.971 37.2435C164.396 36.1064 164.108 34.7681 164.108 33.2286C164.108 31.7146 164.396 30.3859 164.971 29.2424C165.552 28.0925 166.363 27.1982 167.405 26.5594C168.446 25.9142 169.669 25.5916 171.075 25.5916C171.982 25.5916 172.838 25.7385 173.643 26.0324C174.454 26.3198 175.169 26.767 175.789 27.3739C176.415 27.9807 176.907 28.7537 177.265 29.6927C177.622 30.6254 177.801 31.737 177.801 33.0274V34.091H165.737V31.7529H174.476C174.47 31.0886 174.326 30.4977 174.045 29.9802C173.764 29.4564 173.371 29.0444 172.866 28.7441C172.368 28.4439 171.787 28.2937 171.122 28.2937C170.413 28.2937 169.791 28.4662 169.254 28.8112C168.717 29.1498 168.299 29.5969 167.999 30.1527C167.705 30.7021 167.555 31.3058 167.548 31.9637V34.0047C167.548 34.8607 167.705 35.5954 168.018 36.2086C168.331 36.8155 168.768 37.2818 169.331 37.6076C169.893 37.927 170.551 38.0868 171.305 38.0868C171.809 38.0868 172.266 38.0165 172.675 37.8759C173.084 37.729 173.438 37.515 173.738 37.2339C174.039 36.9529 174.265 36.6047 174.419 36.1895L177.658 36.5536C177.453 37.4096 177.063 38.157 176.488 38.7958C175.92 39.4283 175.192 39.9201 174.304 40.2715C173.416 40.6165 172.4 40.7889 171.257 40.7889ZM180.466 40.5015V25.7832H183.829V28.2363H183.983C184.251 27.3866 184.711 26.7319 185.362 26.2719C186.02 25.8056 186.771 25.5724 187.614 25.5724C187.806 25.5724 188.02 25.582 188.256 25.6012C188.499 25.6139 188.7 25.6363 188.86 25.6682V28.8591C188.713 28.808 188.48 28.7633 188.16 28.7249C187.847 28.6802 187.544 28.6579 187.25 28.6579C186.618 28.6579 186.049 28.7952 185.545 29.0699C185.046 29.3382 184.653 29.7119 184.366 30.191C184.078 30.6701 183.935 31.2227 183.935 31.8487V40.5015H180.466Z" fill="white"/>
</svg>
