<svg width="163" height="48" viewBox="0 0 163 48" fill="none" xmlns="http://www.w3.org/2000/svg">
<g id="Company logo">
<g id="Vector">
<path d="M45.0508 14.0131H52.6729C57.5322 14.0131 61.5465 16.8247 61.5465 23.2442V24.5931C61.5465 31.0613 57.7923 33.9704 52.8192 33.9704H45.0508V14.0131ZM49.3088 17.6373V30.33H52.5754C55.3382 30.33 57.191 28.526 57.191 24.5118V23.4555C57.191 19.4412 55.2407 17.6373 52.4291 17.6373H49.3088ZM63.8055 17.8323H67.2184L67.7709 21.5865C68.421 19.0349 70.0787 17.6698 73.0853 17.6698H74.1417V21.9765H72.3865C68.9248 21.9765 68.0797 23.1792 68.0797 26.5921V34.0192H63.8705V17.8323H63.8055ZM74.9868 26.2508V25.7957C74.9868 20.3838 78.4484 17.426 83.1615 17.426C87.9721 17.426 91.3362 20.3838 91.3362 25.7957V26.2508C91.3362 31.5652 88.0696 34.4255 83.1615 34.4255C77.9446 34.3767 74.9868 31.5814 74.9868 26.2508ZM87.0294 26.202V25.7957C87.0294 22.7891 85.518 20.9852 83.1127 20.9852C80.7562 20.9852 79.196 22.6429 79.196 25.7957V26.202C79.196 29.1111 80.7075 30.7688 83.1127 30.7688C85.518 30.7201 87.0294 29.1111 87.0294 26.202ZM93.5465 17.8323H97.0569L97.4632 20.8877C98.3083 18.8399 100.112 17.426 102.778 17.426C106.889 17.426 109.603 20.3838 109.603 25.8607V26.3158C109.603 31.6302 106.597 34.4417 102.778 34.4417C100.226 34.4417 98.4708 33.2879 97.6094 31.4351V39.6098H93.4977L93.5465 17.8323ZM105.329 26.202V25.8445C105.329 22.6266 103.671 21.0339 101.461 21.0339C99.1046 21.0339 97.5444 22.8379 97.5444 25.8445V26.1533C97.5444 29.0136 99.0559 30.8176 101.412 30.8176C103.834 30.7688 105.329 29.2249 105.329 26.202ZM115.828 31.0288L115.47 33.9867H111.862V12.4204H115.974V20.6926C116.884 18.5799 118.688 17.426 121.24 17.426C125.108 17.4748 127.968 20.1401 127.968 25.5032V26.007C127.968 31.3701 125.254 34.4417 121.142 34.4417C118.428 34.3767 116.673 33.1253 115.828 31.0288ZM123.645 26.007V25.6007C123.645 22.6429 122.036 20.9852 119.777 20.9852C117.469 20.9852 115.86 22.8379 115.86 25.6495V26.007C115.86 29.0136 117.421 30.7688 119.728 30.7688C122.199 30.7688 123.645 29.2249 123.645 26.007ZM129.772 26.2508V25.7957C129.772 20.3838 133.234 17.426 137.947 17.426C142.757 17.426 146.121 20.3838 146.121 25.7957V26.2508C146.121 31.5652 142.806 34.4255 137.947 34.4255C132.73 34.3767 129.772 31.5814 129.772 26.2508ZM141.847 26.202V25.7957C141.847 22.7891 140.336 20.9852 137.93 20.9852C135.574 20.9852 134.014 22.6429 134.014 25.7957V26.202C134.014 29.1111 135.525 30.7688 137.93 30.7688C140.352 30.7201 141.847 29.1111 141.847 26.202ZM151.631 25.6007L145.959 17.8323H150.818L154.085 22.6916L157.4 17.8323H162.211L156.458 25.5519L162.52 33.9867H157.758L154.052 28.6236L150.444 33.9867H145.471L151.631 25.6007Z" fill="white"/>
</g>
<path id="Vector_2" d="M18.8522 14.0132L9.42611 20.0264L18.8522 26.0396L9.42611 32.0528L0 26.0071L9.42611 19.9939L0 14.0132L9.42611 8L18.8522 14.0132ZM9.37735 33.9868L18.8035 27.9736L28.2296 33.9868L18.8035 40L9.37735 33.9868ZM18.8522 26.0071L28.2783 19.9939L18.8522 14.0132L28.2296 8L37.6557 14.0132L28.2296 20.0264L37.6557 26.0396L28.2296 32.0528L18.8522 26.0071Z" fill="#0061FF"/>
</g>
</svg>
