<svg width="168" height="48" viewBox="0 0 168 48" fill="none" xmlns="http://www.w3.org/2000/svg">
<g id="Company logo">
<path id="Vector" fill-rule="evenodd" clip-rule="evenodd" d="M44.6462 10.1057L30.4001 37.9552H17.0191L22.981 26.4131H22.7136C17.795 32.7981 10.4564 37.0013 0 37.9552V26.5729C0 26.5729 6.6892 26.1779 10.6216 22.0435H0V10.1059H11.9375V19.9244L12.2055 19.9233L17.0836 10.1059H26.1116V19.8621L26.3796 19.8617L31.4406 10.1057H44.6462Z" fill="#146EF5"/>
<g id="Vector_2">
<path d="M122.331 34.8814H126.176V12.8135H122.331V34.8814Z" fill="#F6F6F9"/>
<path fill-rule="evenodd" clip-rule="evenodd" d="M101.137 34.656C101.972 35.0034 102.822 35.177 103.686 35.177C105.113 35.177 106.39 34.8297 107.516 34.135C108.643 33.4402 109.516 32.4825 110.136 31.2621C110.755 30.0321 111.065 28.638 111.065 27.0794C111.065 25.5209 110.746 24.1267 110.108 22.8968C109.469 21.6669 108.582 20.714 107.446 20.038C106.31 19.3526 105.019 19.0146 103.573 19.024C102.653 19.024 101.771 19.2024 100.926 19.5592C100.08 19.9159 99.3765 20.4229 98.813 21.0801C98.7696 21.1302 98.7273 21.1807 98.6864 21.2317V12.8276H94.8276V34.8814H98.6582L98.6505 32.8211C98.7496 32.9426 98.8554 33.0612 98.9681 33.1772C99.5783 33.8064 100.301 34.2993 101.137 34.656ZM105.08 31.093C104.451 31.4779 103.733 31.6705 102.925 31.6705C102.127 31.6705 101.395 31.4733 100.728 31.0789C100.062 30.6752 99.5313 30.126 99.137 29.4313C98.7521 28.7365 98.5597 27.9479 98.5597 27.0654C98.5502 26.1828 98.738 25.3942 99.1229 24.6994C99.5172 23.9953 100.048 23.4507 100.714 23.0658C101.381 22.6715 102.118 22.479 102.925 22.4884C103.733 22.479 104.451 22.6668 105.08 23.0517C105.718 23.4273 106.207 23.9671 106.545 24.6712C106.892 25.366 107.066 26.1641 107.066 27.0654C107.066 27.9666 106.892 28.7647 106.545 29.4594C106.207 30.1542 105.718 30.6987 105.08 31.093Z" fill="#F6F6F9"/>
<path d="M50.2168 14.1514H54.6106L58.5412 28.5056L62.7224 14.1514H66.3839L70.9187 28.2175L74.6928 14.1514H78.7205L72.7775 34.8814H68.9892L64.3781 21.1398L60.1452 34.8814H56.3146L50.2168 14.1514Z" fill="#F6F6F9"/>
<path fill-rule="evenodd" clip-rule="evenodd" d="M85.2091 35.2475C83.6787 35.2568 82.2986 34.9188 81.0686 34.2335C79.8482 33.5388 78.8859 32.5764 78.1817 31.3466C77.4869 30.1166 77.1395 28.713 77.1395 27.1357C77.1395 25.6055 77.4964 24.2206 78.2098 22.9813C78.9233 21.742 79.8905 20.775 81.1109 20.0802C82.3314 19.3855 83.6927 19.0381 85.195 19.0381C86.8849 19.0381 88.3636 19.4136 89.6311 20.1647C90.9079 20.9158 91.8608 21.9814 92.4898 23.3615C93.1283 24.7323 93.3583 26.3049 93.1799 28.0792H81.1169C81.1506 28.7862 81.327 29.4294 81.6461 30.0086C82.0028 30.647 82.5005 31.1447 83.1388 31.5014C83.7772 31.8581 84.4908 32.0365 85.2794 32.0365C85.8803 32.0272 86.4389 31.9239 86.9553 31.7268C87.4717 31.5203 87.9082 31.2432 88.2651 30.8959C88.6311 30.5485 88.8893 30.1542 89.0395 29.713H93.0673C92.8232 30.7926 92.335 31.755 91.6027 32.5999C90.8703 33.4354 89.9502 34.0879 88.8424 34.5574C87.7345 35.0268 86.5234 35.2568 85.2091 35.2475ZM81.6602 24.2065C81.4351 24.5989 81.2793 25.0214 81.1925 25.474H89.1888C89.1308 24.9021 88.9543 24.3811 88.6593 23.9108C88.3214 23.3569 87.8613 22.9297 87.2792 22.6292C86.6971 22.3194 86.0399 22.1645 85.3076 22.1645C84.5284 22.1645 83.8196 22.3429 83.1812 22.6996C82.5427 23.0564 82.0356 23.5587 81.6602 24.2065Z" fill="#F6F6F9"/>
<path d="M113.896 19.362C113.896 18.1039 114.182 16.9867 114.755 16.0103C115.328 15.0245 116.13 14.2593 117.163 13.7148C118.205 13.1608 119.421 12.8745 120.811 12.8557V16.2779C120.163 16.2872 119.609 16.4234 119.149 16.6863C118.698 16.9397 118.351 17.3106 118.107 17.7988C117.882 18.2483 117.761 18.7693 117.743 19.362H120.726V22.6151H117.74V34.8814H113.896V22.6151H111.417V19.362H113.896Z" fill="#F6F6F9"/>
<path fill-rule="evenodd" clip-rule="evenodd" d="M135.949 35.2194C134.382 35.2194 132.978 34.8766 131.739 34.1913C130.509 33.4965 129.542 32.5388 128.838 31.3184C128.143 30.0884 127.795 28.6943 127.795 27.1357C127.795 25.5679 128.143 24.169 128.838 22.9391C129.542 21.6998 130.509 20.7374 131.739 20.0521C132.978 19.3667 134.382 19.024 135.949 19.024C137.527 19.024 138.935 19.3667 140.174 20.0521C141.423 20.7374 142.395 21.6951 143.089 22.925C143.784 24.1549 144.136 25.5585 144.146 27.1357C144.136 28.6943 143.784 30.0884 143.089 31.3184C142.404 32.5388 141.437 33.4965 140.188 34.1913C138.94 34.8766 137.527 35.2194 135.949 35.2194ZM135.949 31.6846C136.776 31.6846 137.508 31.4968 138.146 31.1212C138.785 30.7363 139.278 30.201 139.625 29.5157C139.972 28.821 140.146 28.0277 140.146 27.1357C140.146 26.2345 139.972 25.4364 139.625 24.7417C139.278 24.0469 138.785 23.5118 138.146 23.1362C137.508 22.7513 136.776 22.5588 135.949 22.5588C135.133 22.5588 134.405 22.7513 133.767 23.1362C133.138 23.5118 132.649 24.0469 132.302 24.7417C131.955 25.4364 131.786 26.2345 131.795 27.1357C131.795 28.0277 131.969 28.821 132.316 29.5157C132.673 30.201 133.161 30.7363 133.781 31.1212C134.41 31.4968 135.133 31.6846 135.949 31.6846Z" fill="#F6F6F9"/>
<path d="M148.3 19.362H144.019L148.652 34.8814H152.398L155.446 24.9692L158.736 34.8814H162.425L167.073 19.362H163.201L160.565 29.0218L157.652 19.362H153.905L151.006 29.2347L148.3 19.362Z" fill="#F6F6F9"/>
</g>
</g>
</svg>
