<svg width="221" height="50" viewBox="0 0 221 50" fill="none" xmlns="http://www.w3.org/2000/svg">
<path d="M0.0742188 18.5197H20.3223H32.6184V6.33398L0.0742188 18.5197Z" fill="#FF9D28"/>
<path d="M32.6191 6.33489V49.4081L48.0077 0.591797L32.6191 6.33489Z" fill="#68C5ED"/>
<path d="M32.6184 18.5215H20.3223L32.6184 49.3722V18.5215Z" fill="#044D80"/>
<path d="M0.0742188 18.5215L23.4884 26.4366L20.3223 18.5215H0.0742188Z" fill="#E54747"/>
<path d="M74.6251 33.6698C74.441 33.8539 74.1465 34.0748 73.7415 34.3325C73.3365 34.5902 72.7843 34.8847 72.1217 35.1424C71.459 35.4001 70.6491 35.6578 69.6551 35.8419C68.6979 36.026 67.5934 36.1364 66.3417 36.1364C63.9488 36.1364 61.8503 35.7314 60.0832 34.9951C58.3161 34.222 56.8804 33.1544 55.7391 31.7554C54.5978 30.3565 53.7511 28.7366 53.2357 26.8591C52.6835 24.9815 52.4258 22.8831 52.4258 20.6374C52.4258 18.3917 52.7203 16.2933 53.3093 14.3789C53.8984 12.4645 54.7451 10.8079 55.9232 9.40893C57.0644 8.00997 58.537 6.90553 60.2673 6.13242C61.9976 5.35931 64.0592 4.95435 66.4154 4.95435C67.5566 4.95435 68.6243 5.06479 69.5446 5.24886C70.465 5.46975 71.3117 5.69064 72.0112 5.98515C72.7107 6.27967 73.2997 6.5742 73.7415 6.86871C74.2201 7.16323 74.5514 7.45774 74.7723 7.64181C75.03 7.8627 75.2877 8.15723 75.4718 8.48856C75.6559 8.81989 75.7663 9.18804 75.7663 9.55618C75.7663 10.1452 75.5454 10.7343 75.1036 11.3233C74.6619 11.9123 74.1833 12.4645 73.6311 12.9799C73.2629 12.6118 72.8579 12.2437 72.4162 11.8755C71.9744 11.5074 71.459 11.176 70.9068 10.8815C70.3545 10.587 69.7287 10.3661 69.0292 10.182C68.3297 9.99797 67.5566 9.88751 66.6731 9.88751C65.1637 9.88751 63.8752 10.182 62.8443 10.8079C61.8135 11.4337 61.0036 12.2068 60.3778 13.2008C59.7519 14.1948 59.3101 15.2993 59.0524 16.551C58.7947 17.8027 58.6475 19.0912 58.6475 20.4165C58.6475 21.8155 58.7947 23.1408 59.0524 24.4293C59.3101 25.7178 59.7887 26.8223 60.4514 27.8163C61.1141 28.8103 61.9608 29.5834 63.0284 30.1724C64.096 30.7615 65.3846 31.056 66.9676 31.056C67.8143 31.056 68.5506 30.9455 69.2501 30.7615C69.9496 30.5406 70.5754 30.2829 71.0908 29.9883C71.6431 29.6938 72.0848 29.3625 72.4898 29.068C72.8948 28.7366 73.2261 28.4421 73.4838 28.2212C73.6679 28.4421 73.8519 28.6998 74.1096 28.9943C74.3673 29.2889 74.5882 29.6202 74.7723 29.9147C74.9932 30.246 75.1405 30.5774 75.3245 30.9087C75.4718 31.24 75.5454 31.5346 75.5454 31.7923C75.5454 32.1972 75.4718 32.4917 75.3245 32.7863C75.1773 33.044 74.9196 33.3385 74.6251 33.6698ZM97.5974 30.2461C97.5974 32.6022 97.9288 34.3325 98.6282 35.4001C98.076 35.621 97.5974 35.7683 97.1188 35.8419C96.6402 35.9155 96.1617 35.9891 95.6463 35.9891C94.5786 35.9891 93.7687 35.7683 93.2165 35.3633C92.6643 34.9583 92.2961 34.3325 92.1489 33.5594C91.4862 34.2589 90.6395 34.8479 89.535 35.3265C88.4674 35.8051 87.1421 36.026 85.5958 36.026C84.7859 36.026 83.976 35.9155 83.1661 35.6946C82.3561 35.4737 81.6198 35.1056 80.9572 34.5902C80.2945 34.0748 79.7791 33.4121 79.3373 32.5654C78.9324 31.7186 78.7115 30.6878 78.7115 29.4729C78.7115 27.9635 79.0796 26.7118 79.8159 25.7547C80.5522 24.7975 81.4726 24.0612 82.577 23.509C83.6815 22.9567 84.8964 22.5886 86.1481 22.3677C87.4366 22.1468 88.6146 22.0364 89.6823 21.9627C90.0504 21.9259 90.3817 21.9259 90.7499 21.9259H91.7071V21.116C91.7071 19.9747 91.4126 19.1648 90.7867 18.6494C90.1609 18.1708 89.1669 17.9131 87.8047 17.9131C86.5162 17.9131 85.3749 18.134 84.3809 18.539C83.387 18.9439 82.393 19.4225 81.4358 19.9747C81.0308 19.4593 80.6627 18.9071 80.4418 18.2813C80.1841 17.6554 80.0736 17.2136 80.0736 16.9191C80.0736 16.5142 80.2945 16.1092 80.7731 15.7042C81.2517 15.2993 81.8775 14.9679 82.6875 14.6366C83.4974 14.3053 84.4178 14.0844 85.4854 13.8635C86.5162 13.6794 87.6206 13.569 88.7987 13.569C90.4186 13.569 91.7807 13.7163 92.8851 14.0476C93.9896 14.3789 94.91 14.8943 95.6094 15.557C96.3089 16.2565 96.8243 17.1032 97.1188 18.134C97.4134 19.1648 97.5606 20.3797 97.5606 21.7419L97.5974 30.2461ZM91.8543 25.0552H91.2285C91.0076 25.0552 90.8235 25.0552 90.6026 25.092C89.8663 25.1656 89.13 25.2392 88.3937 25.3497C87.6575 25.4601 86.9948 25.681 86.4426 25.9755C85.8904 26.2701 85.4118 26.675 85.0436 27.1536C84.6755 27.6322 84.4914 28.2581 84.4914 28.9943C84.4914 29.8411 84.7123 30.5406 85.1909 31.1296C85.6695 31.7186 86.4794 32.0132 87.6206 32.0132C88.1729 32.0132 88.7251 31.9395 89.2405 31.7923C89.7559 31.645 90.1977 31.4609 90.6026 31.2032C91.0076 30.9455 91.3021 30.6878 91.523 30.4301C91.7439 30.1356 91.8543 29.8779 91.8543 29.657V25.0552ZM108.752 16.2196C109.231 15.6674 109.967 15.0784 110.998 14.4894C112.029 13.9003 113.28 13.6058 114.827 13.6058C115.931 13.6058 116.999 13.7899 117.993 14.158C118.987 14.5262 119.87 15.152 120.643 15.9619C121.417 16.8087 122.042 17.9131 122.484 19.2753C122.963 20.6374 123.184 22.3309 123.184 24.3557C123.184 26.675 122.926 28.6262 122.374 30.1356C121.822 31.645 121.159 32.8599 120.312 33.7066C119.465 34.5902 118.508 35.216 117.477 35.5842C116.447 35.9523 115.379 36.1364 114.348 36.1364C113.501 36.1364 112.728 36.026 112.102 35.8419C111.477 35.6578 110.924 35.4369 110.483 35.1792C110.041 34.9583 109.709 34.7006 109.452 34.4797C109.231 34.2589 109.047 34.0748 109.01 34.0011V45.0456H102.899V14.2685C103.046 14.2316 103.23 14.1948 103.451 14.1948C103.635 14.158 103.856 14.158 104.077 14.1212C104.335 14.1212 104.592 14.0844 104.924 14.0844C105.918 14.0844 106.764 14.2317 107.464 14.563C108.126 14.8943 108.568 15.4465 108.752 16.2196ZM116.852 24.503C116.852 23.6194 116.778 22.7727 116.631 21.9995C116.483 21.2264 116.226 20.5638 115.894 19.9747C115.563 19.4225 115.084 18.9808 114.495 18.6494C113.906 18.3181 113.207 18.1708 112.36 18.1708C111.108 18.1708 110.225 18.4285 109.746 18.8703C109.268 19.3489 109.01 19.8643 109.01 20.4533V29.9883C109.231 30.246 109.673 30.5037 110.299 30.8351C110.924 31.1664 111.624 31.3137 112.434 31.3137C113.943 31.3137 115.048 30.7246 115.784 29.5098C116.483 28.3317 116.852 26.675 116.852 24.503ZM127.896 32.234C127.675 31.645 127.565 31.0192 127.491 30.3565C127.417 29.6938 127.417 29.0312 127.417 28.3685V7.56819C127.638 7.53138 127.859 7.49456 128.08 7.49456C128.301 7.45774 128.522 7.45775 128.743 7.42094C128.964 7.42094 129.221 7.38412 129.442 7.38412C129.921 7.38412 130.399 7.42093 130.878 7.53138C131.357 7.605 131.798 7.78908 132.166 8.0836C132.571 8.3413 132.866 8.70945 133.124 9.18804C133.345 9.66663 133.492 10.2557 133.492 10.992V14.1948H139.787V18.723H133.529V28.2949C133.529 30.3933 134.375 31.4241 136.069 31.4241C136.474 31.4241 136.879 31.3505 137.247 31.24C137.615 31.0928 137.946 30.9455 138.241 30.7983C138.535 30.651 138.793 30.4669 139.014 30.2829C139.235 30.0988 139.382 29.9515 139.493 29.8779C139.934 30.5406 140.302 31.0928 140.523 31.5714C140.744 32.05 140.892 32.4917 140.892 32.9335C140.892 33.3385 140.744 33.7066 140.413 34.0748C140.082 34.4429 139.64 34.8111 139.088 35.1056C138.535 35.4369 137.836 35.6946 137.026 35.8787C136.216 36.0628 135.332 36.1732 134.375 36.1732C132.535 36.1732 131.062 35.8051 130.031 35.1056C129.074 34.3325 128.338 33.4121 127.896 32.234ZM155.249 31.645C155.986 31.645 156.648 31.5714 157.237 31.3873C157.789 31.24 158.305 31.0192 158.783 30.7983C159.225 30.5774 159.63 30.2829 159.962 30.0252C160.293 29.7306 160.587 29.4729 160.845 29.2521C161.213 29.6938 161.581 30.2829 161.986 30.9823C162.391 31.6818 162.575 32.2709 162.575 32.7126C162.575 33.3753 162.207 33.9643 161.471 34.5166C160.845 34.9951 159.962 35.4001 158.783 35.7683C157.642 36.0996 156.28 36.2837 154.734 36.2837C153.335 36.2837 151.936 36.0996 150.574 35.7314C149.212 35.3633 147.997 34.7374 146.929 33.8539C145.862 32.9703 145.015 31.7555 144.352 30.2461C143.689 28.7367 143.358 26.8223 143.358 24.5398C143.358 22.6622 143.653 21.0424 144.242 19.6802C144.831 18.3181 145.604 17.1768 146.561 16.2933C147.518 15.4097 148.623 14.7471 149.874 14.3053C151.089 13.9003 152.341 13.6794 153.629 13.6794C155.286 13.6794 156.722 13.9371 157.9 14.4525C159.078 14.9679 159.998 15.6674 160.735 16.551C161.471 17.4345 161.986 18.4285 162.318 19.5698C162.649 20.711 162.796 21.8891 162.796 23.1408V23.7667C162.796 24.0244 162.796 24.2453 162.759 24.5398C162.759 24.7975 162.723 25.0552 162.723 25.3129C162.723 25.5706 162.686 25.7547 162.649 25.9019H149.433C149.543 27.5586 150.058 28.9207 150.979 30.0252C151.862 31.0928 153.298 31.645 155.249 31.645ZM157.311 22.5518C157.311 21.116 157.016 19.9379 156.464 19.0544C155.912 18.1708 154.918 17.6922 153.482 17.6922C152.23 17.6922 151.273 18.134 150.537 18.9808C149.801 19.8275 149.433 21.0056 149.433 22.5518H157.311ZM173.436 16.3301C173.62 16.0724 173.841 15.7779 174.135 15.4465C174.43 15.1152 174.798 14.8207 175.24 14.563C175.681 14.3053 176.16 14.0844 176.675 13.9003C177.191 13.7162 177.743 13.6426 178.369 13.6426C178.737 13.6426 179.105 13.6794 179.51 13.7162C179.915 13.7899 180.283 13.9003 180.615 14.0476C180.946 14.1948 181.24 14.4157 181.461 14.7102C181.682 15.0048 181.793 15.3361 181.793 15.7411C181.793 16.4037 181.645 17.14 181.314 17.9867C180.983 18.8335 180.651 19.5698 180.32 20.1588C179.805 19.7539 179.289 19.4225 178.811 19.2016C178.295 18.9808 177.706 18.8703 177.007 18.8703C176.086 18.8703 175.313 19.128 174.687 19.6802C174.062 20.2324 173.73 20.8583 173.73 21.6314V36.1364H167.619V14.2317C167.766 14.1948 167.95 14.158 168.171 14.158C168.355 14.1212 168.576 14.1212 168.797 14.0844C169.018 14.0844 169.312 14.0476 169.644 14.0476C170.601 14.0476 171.448 14.2317 172.147 14.5998C172.81 15.0048 173.252 15.557 173.436 16.3301ZM190.775 16.3301C190.96 16.0724 191.18 15.7779 191.475 15.4465C191.769 15.1152 192.138 14.8207 192.579 14.563C193.021 14.3053 193.5 14.0844 194.015 13.9003C194.531 13.7162 195.083 13.6426 195.709 13.6426C196.077 13.6426 196.445 13.6794 196.85 13.7162C197.255 13.7899 197.623 13.9003 197.954 14.0476C198.286 14.1948 198.58 14.4157 198.801 14.7102C199.022 15.0048 199.132 15.3361 199.132 15.7411C199.132 16.4037 198.985 17.14 198.654 17.9867C198.322 18.8335 197.991 19.5698 197.66 20.1588C197.144 19.7539 196.629 19.4225 196.15 19.2016C195.635 18.9808 195.046 18.8703 194.346 18.8703C193.426 18.8703 192.653 19.128 192.027 19.6802C191.401 20.2324 191.07 20.8583 191.07 21.6314V36.1364H184.959V14.2317C185.106 14.1948 185.29 14.158 185.511 14.158C185.695 14.1212 185.916 14.1212 186.137 14.0844C186.358 14.0844 186.652 14.0476 186.984 14.0476C187.941 14.0476 188.787 14.2317 189.487 14.5998C190.15 15.0048 190.591 15.557 190.775 16.3301ZM219.896 30.2461C219.896 32.6022 220.227 34.3325 220.927 35.4001C220.374 35.621 219.896 35.7683 219.417 35.8419C218.939 35.9155 218.46 35.9891 217.945 35.9891C216.877 35.9891 216.067 35.7683 215.515 35.3633C214.963 34.9583 214.595 34.3325 214.447 33.5594C213.785 34.2589 212.938 34.8479 211.833 35.3265C210.766 35.8051 209.441 36.026 207.894 36.026C207.084 36.026 206.274 35.9155 205.465 35.6946C204.655 35.4737 203.918 35.1056 203.256 34.5902C202.593 34.0748 202.078 33.4121 201.636 32.5654C201.231 31.7186 201.01 30.6878 201.01 29.4729C201.01 27.9635 201.378 26.7118 202.114 25.7547C202.851 24.7975 203.771 24.0612 204.875 23.509C205.98 22.9567 207.195 22.5886 208.447 22.3677C209.735 22.1468 210.913 22.0364 211.981 21.9627C212.349 21.9259 212.68 21.9259 213.048 21.9259H214.006V21.116C214.006 19.9747 213.711 19.1648 213.085 18.6494C212.459 18.1708 211.465 17.9131 210.103 17.9131C208.815 17.9131 207.673 18.134 206.679 18.539C205.685 18.9439 204.691 19.4225 203.734 19.9747C203.329 19.4593 202.961 18.9071 202.74 18.2813C202.483 17.6554 202.372 17.2136 202.372 16.9191C202.372 16.5142 202.593 16.1092 203.072 15.7042C203.55 15.2993 204.176 14.9679 204.986 14.6366C205.796 14.3053 206.716 14.0844 207.784 13.8635C208.815 13.6794 209.919 13.569 211.097 13.569C212.717 13.569 214.079 13.7163 215.184 14.0476C216.288 14.3789 217.208 14.8943 217.908 15.557C218.607 16.2565 219.123 17.1032 219.417 18.134C219.712 19.1648 219.859 20.3797 219.859 21.7419L219.896 30.2461ZM214.153 25.0552H213.527C213.306 25.0552 213.122 25.0552 212.901 25.092C212.165 25.1656 211.428 25.2392 210.692 25.3497C209.956 25.4601 209.293 25.681 208.741 25.9755C208.189 26.2701 207.71 26.675 207.342 27.1536C206.974 27.6322 206.79 28.2581 206.79 28.9943C206.79 29.8411 207.011 30.5406 207.489 31.1296C207.968 31.7186 208.778 32.0132 209.919 32.0132C210.471 32.0132 211.024 31.9395 211.539 31.7923C212.054 31.645 212.496 31.4609 212.901 31.2032C213.306 30.9455 213.601 30.6878 213.821 30.4301C214.042 30.1356 214.153 29.8779 214.153 29.657V25.0552Z" fill="#808085"/>
</svg>
