<svg width="175" height="58" viewBox="0 0 175 58" fill="none" xmlns="http://www.w3.org/2000/svg">
<path d="M28.7176 6.17798V51.778L8.76758 40.378V17.578L28.7176 6.17798Z" fill="#545459"/>
<path opacity="0.4" d="M8.76758 17.578L48.6676 40.378V17.578L28.7176 6.17798L8.76758 17.578Z" fill="#545459"/>
<path d="M77.8034 38.478H71.1534V18.8537H77.9376C79.886 18.8537 81.5596 19.2466 82.9586 20.0323C84.364 20.8117 85.4436 21.9328 86.1974 23.3957C86.9512 24.8585 87.3281 26.6089 87.3281 28.6467C87.3281 30.6909 86.948 32.4476 86.1878 33.9169C85.434 35.3862 84.3449 36.5137 82.9203 37.2994C81.5021 38.0852 79.7965 38.478 77.8034 38.478ZM74.7084 35.4021H77.6309C78.998 35.4021 80.1383 35.153 81.0518 34.6547C81.9653 34.1501 82.652 33.3995 83.112 32.4029C83.5719 31.4 83.8019 30.1479 83.8019 28.6467C83.8019 27.1455 83.5719 25.8998 83.112 24.9096C82.652 23.9131 81.9717 23.1689 81.0709 22.677C80.1766 22.1787 79.0651 21.9296 77.7363 21.9296H74.7084V35.4021ZM94.518 38.7751C93.5854 38.7751 92.7453 38.609 91.9979 38.2768C91.2569 37.9382 90.6692 37.44 90.2348 36.782C89.8068 36.124 89.5928 35.3127 89.5928 34.3481C89.5928 33.5176 89.7461 32.8309 90.0527 32.2879C90.3594 31.7449 90.7778 31.3105 91.308 30.9848C91.8382 30.659 92.4355 30.413 93.0999 30.2469C93.7706 30.0744 94.4637 29.9499 95.1792 29.8732C96.0416 29.7838 96.7411 29.7039 97.2777 29.6337C97.8143 29.557 98.204 29.442 98.4467 29.2887C98.6959 29.129 98.8204 28.8831 98.8204 28.5509V28.4934C98.8204 27.7715 98.6064 27.2126 98.1784 26.8165C97.7504 26.4204 97.134 26.2224 96.3291 26.2224C95.4794 26.2224 94.8055 26.4077 94.3072 26.7782C93.8153 27.1487 93.4831 27.5863 93.3107 28.0909L90.0719 27.631C90.3274 26.7366 90.749 25.9892 91.3367 25.3887C91.9244 24.7819 92.6431 24.3283 93.4927 24.0281C94.3424 23.7214 95.2814 23.5681 96.3099 23.5681C97.019 23.5681 97.7249 23.6512 98.4276 23.8173C99.1303 23.9834 99.7723 24.2581 100.354 24.6413C100.935 25.0182 101.401 25.5325 101.753 26.1841C102.11 26.8357 102.289 27.6501 102.289 28.6275V38.478H98.9546V36.4562H98.8396C98.6288 36.865 98.3317 37.2483 97.9485 37.606C97.5716 37.9574 97.0956 38.2417 96.5207 38.4589C95.9522 38.6697 95.2846 38.7751 94.518 38.7751ZM95.4188 36.2262C96.1151 36.2262 96.7187 36.0889 97.2298 35.8142C97.7408 35.5331 98.1337 35.1626 98.4084 34.7026C98.6895 34.2427 98.83 33.7412 98.83 33.1982V31.4639C98.7214 31.5533 98.5362 31.6363 98.2742 31.713C98.0187 31.7897 97.7313 31.8567 97.4118 31.9142C97.0924 31.9717 96.7762 32.0228 96.4632 32.0675C96.1502 32.1123 95.8787 32.1506 95.6487 32.1825C95.1313 32.2528 94.6681 32.3678 94.2593 32.5275C93.8505 32.6872 93.5279 32.9108 93.2915 33.1982C93.0551 33.4793 92.937 33.8434 92.937 34.2906C92.937 34.9294 93.1701 35.4117 93.6365 35.7375C94.1028 36.0633 94.6969 36.2262 95.4188 36.2262ZM112.023 38.7655C110.548 38.7655 109.273 38.4589 108.2 37.8456C107.133 37.226 106.312 36.3508 105.737 35.2201C105.162 34.083 104.875 32.7447 104.875 31.2051C104.875 29.6912 105.162 28.3624 105.737 27.2189C106.319 26.0691 107.13 25.1747 108.171 24.5359C109.212 23.8907 110.436 23.5681 111.841 23.5681C112.748 23.5681 113.604 23.7151 114.409 24.0089C115.22 24.2964 115.936 24.7435 116.556 25.3504C117.182 25.9573 117.673 26.7303 118.031 27.6693C118.389 28.602 118.568 29.7135 118.568 31.0039V32.0675H106.504V29.7295H115.243C115.236 29.0651 115.093 28.4742 114.812 27.9568C114.531 27.433 114.138 27.0209 113.633 26.7207C113.135 26.4204 112.553 26.2703 111.889 26.2703C111.18 26.2703 110.557 26.4428 110.02 26.7877C109.484 27.1263 109.065 27.5735 108.765 28.1293C108.471 28.6786 108.321 29.2823 108.315 29.9403V31.9813C108.315 32.8373 108.471 33.5719 108.784 34.1852C109.097 34.7921 109.535 35.2584 110.097 35.5842C110.659 35.9036 111.317 36.0633 112.071 36.0633C112.576 36.0633 113.032 35.993 113.441 35.8525C113.85 35.7056 114.205 35.4916 114.505 35.2105C114.805 34.9294 115.032 34.5813 115.185 34.166L118.424 34.5302C118.22 35.3862 117.83 36.1336 117.255 36.7724C116.686 37.4048 115.958 37.8967 115.07 38.2481C114.182 38.593 113.167 38.7655 112.023 38.7655ZM124.191 38.478L120.032 23.7598H123.568L126.155 34.1085H126.29L128.934 23.7598H132.432L135.076 34.0511H135.22L137.769 23.7598H141.314L137.146 38.478H133.534L130.774 28.5317H130.573L127.813 38.478H124.191ZM149.465 38.7655C148.028 38.7655 146.782 38.4493 145.728 37.8169C144.674 37.1844 143.856 36.2997 143.275 35.1626C142.7 34.0255 142.412 32.6968 142.412 31.1764C142.412 29.656 142.7 28.3241 143.275 27.1806C143.856 26.0371 144.674 25.1492 145.728 24.5168C146.782 23.8843 148.028 23.5681 149.465 23.5681C150.902 23.5681 152.148 23.8843 153.202 24.5168C154.256 25.1492 155.071 26.0371 155.645 27.1806C156.227 28.3241 156.517 29.656 156.517 31.1764C156.517 32.6968 156.227 34.0255 155.645 35.1626C155.071 36.2997 154.256 37.1844 153.202 37.8169C152.148 38.4493 150.902 38.7655 149.465 38.7655ZM149.484 35.9867C150.263 35.9867 150.915 35.7727 151.439 35.3446C151.963 34.9103 152.352 34.3289 152.608 33.6007C152.87 32.8724 153.001 32.0612 153.001 31.1668C153.001 30.2661 152.87 29.4516 152.608 28.7234C152.352 27.9887 151.963 27.4042 151.439 26.9698C150.915 26.5354 150.263 26.3182 149.484 26.3182C148.686 26.3182 148.021 26.5354 147.491 26.9698C146.967 27.4042 146.574 27.9887 146.312 28.7234C146.057 29.4516 145.929 30.2661 145.929 31.1668C145.929 32.0612 146.057 32.8724 146.312 33.6007C146.574 34.3289 146.967 34.9103 147.491 35.3446C148.021 35.7727 148.686 35.9867 149.484 35.9867ZM165.612 38.7655C164.174 38.7655 162.929 38.4493 161.875 37.8169C160.821 37.1844 160.003 36.2997 159.422 35.1626C158.847 34.0255 158.559 32.6968 158.559 31.1764C158.559 29.656 158.847 28.3241 159.422 27.1806C160.003 26.0371 160.821 25.1492 161.875 24.5168C162.929 23.8843 164.174 23.5681 165.612 23.5681C167.049 23.5681 168.295 23.8843 169.349 24.5168C170.403 25.1492 171.217 26.0371 171.792 27.1806C172.374 28.3241 172.664 29.656 172.664 31.1764C172.664 32.6968 172.374 34.0255 171.792 35.1626C171.217 36.2997 170.403 37.1844 169.349 37.8169C168.295 38.4493 167.049 38.7655 165.612 38.7655ZM165.631 35.9867C166.41 35.9867 167.062 35.7727 167.586 35.3446C168.11 34.9103 168.499 34.3289 168.755 33.6007C169.017 32.8724 169.148 32.0612 169.148 31.1668C169.148 30.2661 169.017 29.4516 168.755 28.7234C168.499 27.9887 168.11 27.4042 167.586 26.9698C167.062 26.5354 166.41 26.3182 165.631 26.3182C164.832 26.3182 164.168 26.5354 163.638 26.9698C163.114 27.4042 162.721 27.9887 162.459 28.7234C162.204 29.4516 162.076 30.2661 162.076 31.1668C162.076 32.0612 162.204 32.8724 162.459 33.6007C162.721 34.3289 163.114 34.9103 163.638 35.3446C164.168 35.7727 164.832 35.9867 165.631 35.9867Z" fill="#545459"/>
</svg>
