<svg width="191" height="62" viewBox="0 0 191 62" fill="none" xmlns="http://www.w3.org/2000/svg">
<path d="M52.2181 48.4033L28.9844 61.9563V13.5527L52.2181 27.1057V48.4033Z" fill="#545459"/>
<path d="M24.0931 34.8505L0.859375 48.4035V0L24.0931 13.553V34.8505Z" fill="#545459"/>
<path d="M71.1534 40.478V20.8537H83.9169V23.8338H74.7084V29.1615H83.2557V32.1415H74.7084V37.498H83.9935V40.478H71.1534ZM87.1206 40.478V25.7598H90.436V28.2607H90.6085C90.9151 27.4175 91.423 26.7595 92.1321 26.2868C92.8411 25.8077 93.6876 25.5681 94.6713 25.5681C95.6679 25.5681 96.5079 25.8109 97.1915 26.2964C97.8814 26.7755 98.3669 27.4303 98.6479 28.2607H98.8013C99.1271 27.443 99.6764 26.7915 100.449 26.306C101.229 25.8141 102.152 25.5681 103.219 25.5681C104.573 25.5681 105.678 25.9961 106.534 26.8521C107.39 27.7082 107.818 28.957 107.818 30.5988V40.478H104.34V31.1354C104.34 30.2219 104.097 29.5543 103.612 29.1327C103.126 28.7047 102.532 28.4907 101.829 28.4907C100.992 28.4907 100.338 28.7526 99.8649 29.2764C99.3986 29.7939 99.1654 30.4678 99.1654 31.2983V40.478H95.7637V30.9917C95.7637 30.2315 95.5337 29.6246 95.0738 29.171C94.6202 28.7175 94.0261 28.4907 93.2915 28.4907C92.7932 28.4907 92.3397 28.6185 91.9308 28.874C91.522 29.1231 91.1962 29.4777 90.9534 29.9376C90.7107 30.3912 90.5893 30.9214 90.5893 31.5283V40.478H87.1206ZM111.067 45.9974V25.7598H114.479V28.1937H114.68C114.859 27.8359 115.111 27.4558 115.437 27.0534C115.763 26.6445 116.203 26.2964 116.759 26.0089C117.315 25.7151 118.024 25.5681 118.886 25.5681C120.023 25.5681 121.049 25.8588 121.962 26.4401C122.882 27.015 123.61 27.8679 124.147 28.9986C124.69 30.1229 124.962 31.5027 124.962 33.1381C124.962 34.7543 124.696 36.1277 124.166 37.2584C123.636 38.3891 122.914 39.2515 122.001 39.8456C121.087 40.4397 120.052 40.7367 118.896 40.7367C118.053 40.7367 117.353 40.5962 116.797 40.3151C116.242 40.0341 115.795 39.6955 115.456 39.2994C115.124 38.897 114.865 38.5169 114.68 38.1591H114.536V45.9974H111.067ZM114.469 33.1189C114.469 34.0707 114.603 34.9044 114.871 35.6199C115.146 36.3353 115.539 36.8943 116.05 37.2967C116.568 37.6928 117.194 37.8908 117.928 37.8908C118.695 37.8908 119.337 37.6864 119.854 37.2776C120.372 36.8623 120.761 36.297 121.023 35.5815C121.292 34.8597 121.426 34.0388 121.426 33.1189C121.426 32.2054 121.295 31.3941 121.033 30.685C120.771 29.9759 120.381 29.4202 119.864 29.0177C119.346 28.6153 118.701 28.414 117.928 28.414C117.187 28.414 116.558 28.6089 116.04 28.9986C115.523 29.3882 115.13 29.9344 114.862 30.6371C114.6 31.3398 114.469 32.1671 114.469 33.1189ZM134.082 40.7655C132.645 40.7655 131.399 40.4493 130.345 39.8169C129.291 39.1844 128.473 38.2997 127.892 37.1626C127.317 36.0255 127.03 34.6968 127.03 33.1764C127.03 31.656 127.317 30.3241 127.892 29.1806C128.473 28.0371 129.291 27.1492 130.345 26.5168C131.399 25.8843 132.645 25.5681 134.082 25.5681C135.52 25.5681 136.765 25.8843 137.819 26.5168C138.873 27.1492 139.688 28.0371 140.263 29.1806C140.844 30.3241 141.135 31.656 141.135 33.1764C141.135 34.6968 140.844 36.0255 140.263 37.1626C139.688 38.2997 138.873 39.1844 137.819 39.8169C136.765 40.4493 135.52 40.7655 134.082 40.7655ZM134.101 37.9867C134.881 37.9867 135.532 37.7727 136.056 37.3446C136.58 36.9103 136.97 36.3289 137.225 35.6007C137.487 34.8724 137.618 34.0612 137.618 33.1668C137.618 32.2661 137.487 31.4516 137.225 30.7234C136.97 29.9887 136.58 29.4042 136.056 28.9698C135.532 28.5354 134.881 28.3182 134.101 28.3182C133.303 28.3182 132.639 28.5354 132.108 28.9698C131.584 29.4042 131.192 29.9887 130.93 30.7234C130.674 31.4516 130.546 32.2661 130.546 33.1668C130.546 34.0612 130.674 34.8724 130.93 35.6007C131.192 36.3289 131.584 36.9103 132.108 37.3446C132.639 37.7727 133.303 37.9867 134.101 37.9867ZM146.425 40.478L142.266 25.7598H145.802L148.389 36.1085H148.523L151.168 25.7598H154.666L157.31 36.0511H157.454L160.003 25.7598H163.548L159.38 40.478H155.768L153.008 30.5317H152.807L150.047 40.478H146.425ZM171.795 40.7655C170.319 40.7655 169.045 40.4589 167.971 39.8456C166.905 39.226 166.084 38.3508 165.509 37.2201C164.934 36.083 164.646 34.7447 164.646 33.2051C164.646 31.6912 164.934 30.3624 165.509 29.2189C166.09 28.0691 166.901 27.1747 167.943 26.5359C168.984 25.8907 170.207 25.5681 171.613 25.5681C172.52 25.5681 173.376 25.7151 174.181 26.0089C174.992 26.2964 175.707 26.7435 176.327 27.3504C176.953 27.9573 177.445 28.7303 177.803 29.6693C178.16 30.602 178.339 31.7135 178.339 33.0039V34.0675H166.275V31.7295H175.014C175.008 31.0651 174.864 30.4742 174.583 29.9568C174.302 29.433 173.909 29.0209 173.404 28.7207C172.906 28.4204 172.325 28.2703 171.661 28.2703C170.951 28.2703 170.329 28.4428 169.792 28.7877C169.255 29.1263 168.837 29.5735 168.537 30.1293C168.243 30.6786 168.093 31.2823 168.086 31.9403V33.9813C168.086 34.8373 168.243 35.5719 168.556 36.1852C168.869 36.7921 169.307 37.2584 169.869 37.5842C170.431 37.9036 171.089 38.0633 171.843 38.0633C172.347 38.0633 172.804 37.993 173.213 37.8525C173.622 37.7056 173.976 37.4916 174.276 37.2105C174.577 36.9294 174.803 36.5813 174.957 36.166L178.196 36.5302C177.991 37.3862 177.601 38.1336 177.027 38.7724C176.458 39.4048 175.73 39.8967 174.842 40.2481C173.954 40.593 172.938 40.7655 171.795 40.7655ZM181.004 40.478V25.7598H184.367V28.2128H184.521C184.789 27.3632 185.249 26.7084 185.901 26.2485C186.559 25.7821 187.309 25.549 188.152 25.549C188.344 25.549 188.558 25.5585 188.794 25.5777C189.037 25.5905 189.238 25.6128 189.398 25.6448V28.8357C189.251 28.7846 189.018 28.7398 188.699 28.7015C188.386 28.6568 188.082 28.6344 187.788 28.6344C187.156 28.6344 186.587 28.7718 186.083 29.0465C185.584 29.3148 185.191 29.6885 184.904 30.1676C184.617 30.6467 184.473 31.1993 184.473 31.8253V40.478H181.004Z" fill="#545459"/>
</svg>
