<svg width="172" height="49" viewBox="0 0 172 49" fill="none" xmlns="http://www.w3.org/2000/svg">
<path d="M24.2176 29.778C29.5195 29.778 33.8176 25.4799 33.8176 20.178L43.4176 20.178C43.4176 30.7818 34.8214 39.378 24.2176 39.378C13.6137 39.378 5.01758 30.7818 5.01758 20.178H14.6176C14.6176 25.4799 18.9156 29.778 24.2176 29.778Z" fill="#545459"/>
<path d="M14.6172 10.5784L33.8172 10.5784C33.8172 15.8803 29.5191 20.1784 24.2172 20.1784C18.9153 20.1784 14.6172 15.8803 14.6172 10.5784Z" fill="#545459"/>
<path d="M59.8638 36.478V14.6214H69.0381V17.4277H63.8573V23.7149H67.9318V26.4941H63.8573V33.7257H69.0921V36.478H59.8638ZM70.8928 36.478V20.8816H74.5626V22.4466C75.1202 21.907 75.7049 21.4752 76.3165 21.1514C76.9461 20.8096 77.6207 20.6387 78.3403 20.6387C78.9879 20.6387 79.5006 20.8006 79.8783 21.1244C80.2561 21.4303 80.5349 21.844 80.7148 22.3657C80.8947 22.8874 80.9846 23.454 80.9846 24.0656V36.478H77.3149V24.7942C77.3149 24.3265 77.2429 23.9667 77.099 23.7149C76.9551 23.463 76.6763 23.3371 76.2625 23.3371C76.0107 23.3371 75.7319 23.409 75.4261 23.5529C75.1382 23.6969 74.8504 23.8768 74.5626 24.0926V36.478H70.8928ZM86.4254 36.7209C85.7238 36.7209 85.1212 36.541 84.6175 36.1812C84.1138 35.8034 83.7271 35.3357 83.4572 34.7781C83.1874 34.2024 83.0525 33.6088 83.0525 32.9972C83.0525 32.0258 83.2324 31.2073 83.5921 30.5417C83.9519 29.8761 84.4286 29.3184 85.0223 28.8687C85.6159 28.419 86.2905 28.0322 87.046 27.7084C87.8016 27.3666 88.5661 27.0608 89.3396 26.791V25.4418C89.3396 24.9921 89.3036 24.6143 89.2317 24.3085C89.1777 24.0027 89.0608 23.7688 88.8809 23.6069C88.719 23.445 88.4582 23.3641 88.0984 23.3641C87.7926 23.3641 87.5407 23.436 87.3428 23.5799C87.1629 23.7238 87.028 23.9307 86.9381 24.2006C86.8661 24.4524 86.8212 24.7492 86.8032 25.091L86.7492 26.0354L83.2683 25.9005C83.3223 24.1016 83.763 22.7794 84.5905 21.9339C85.436 21.0705 86.7132 20.6387 88.4222 20.6387C89.9872 20.6387 91.1205 21.0705 91.8221 21.9339C92.5416 22.7974 92.9014 23.9667 92.9014 25.4418V32.6464C92.9014 33.222 92.9104 33.7437 92.9284 34.2114C92.9644 34.6791 93.0004 35.1019 93.0363 35.4796C93.0903 35.8574 93.1353 36.1902 93.1713 36.478H89.8793C89.8253 36.1182 89.7534 35.7135 89.6634 35.2638C89.5915 34.7961 89.5375 34.4543 89.5015 34.2384C89.3216 34.868 88.9798 35.4437 88.4761 35.9653C87.9724 36.469 87.2889 36.7209 86.4254 36.7209ZM87.7746 33.9955C88.0084 33.9955 88.2243 33.9416 88.4222 33.8336C88.638 33.7077 88.8269 33.5638 88.9888 33.4019C89.1507 33.24 89.2677 33.0961 89.3396 32.9702V28.6258C88.9439 28.8597 88.5661 29.0936 88.2063 29.3274C87.8645 29.5613 87.5587 29.8221 87.2889 30.1099C87.037 30.3798 86.8391 30.6766 86.6952 31.0004C86.5693 31.3242 86.5063 31.702 86.5063 32.1337C86.5063 32.7093 86.6143 33.1681 86.8301 33.5098C87.064 33.8336 87.3788 33.9955 87.7746 33.9955ZM95.4149 36.478V20.8816H99.0846V23.2831C99.6243 22.3657 100.164 21.7091 100.704 21.3133C101.243 20.8996 101.837 20.6927 102.485 20.6927C102.592 20.6927 102.682 20.7017 102.754 20.7197C102.844 20.7197 102.943 20.7287 103.051 20.7467V24.5513C102.835 24.4614 102.592 24.3894 102.323 24.3355C102.071 24.2635 101.81 24.2275 101.54 24.2275C101.054 24.2275 100.614 24.3445 100.218 24.5783C99.8222 24.8122 99.4444 25.1989 99.0846 25.7386V36.478H95.4149ZM109.164 41.6049C108.103 41.6049 107.167 41.497 106.358 41.2811C105.548 41.0652 104.919 40.7324 104.469 40.2827C104.019 39.833 103.794 39.2483 103.794 38.5288C103.794 38.0431 103.893 37.6023 104.091 37.2066C104.307 36.8288 104.595 36.496 104.955 36.2082C105.314 35.9204 105.701 35.6775 106.115 35.4796C105.521 35.3177 105.063 35.0569 104.739 34.6971C104.433 34.3373 104.28 33.9056 104.28 33.4019C104.28 32.7903 104.433 32.2686 104.739 31.8369C105.045 31.4051 105.467 30.9464 106.007 30.4607C105.449 30.011 105.027 29.4533 104.739 28.7877C104.469 28.1042 104.334 27.2137 104.334 26.1164C104.334 24.9291 104.523 23.9307 104.901 23.1212C105.296 22.2937 105.863 21.6731 106.601 21.2594C107.356 20.8456 108.274 20.6387 109.353 20.6387C110.18 20.6387 110.873 20.7647 111.431 21.0165C111.988 21.2504 112.447 21.6101 112.807 22.0958C112.951 21.88 113.203 21.6101 113.562 21.2863C113.922 20.9625 114.336 20.6927 114.804 20.4768L115.289 20.261L116.18 22.2308C115.982 22.2847 115.712 22.3747 115.37 22.5006C115.046 22.6265 114.723 22.7614 114.399 22.9053C114.075 23.0493 113.823 23.1752 113.643 23.2831C113.805 23.6429 113.94 24.0926 114.048 24.6323C114.156 25.172 114.21 25.6846 114.21 26.1703C114.21 27.2677 114.039 28.2211 113.697 29.0306C113.355 29.8401 112.825 30.4697 112.105 30.9194C111.404 31.3512 110.486 31.567 109.353 31.567C108.975 31.567 108.606 31.5401 108.247 31.4861C107.887 31.4141 107.554 31.3332 107.248 31.2432C107.14 31.4051 107.032 31.576 106.924 31.7559C106.834 31.9358 106.789 32.1247 106.789 32.3226C106.789 32.5205 106.897 32.6824 107.113 32.8083C107.329 32.9342 107.689 33.0241 108.193 33.0781L111.485 33.4019C112.762 33.5278 113.706 33.9326 114.318 34.6162C114.929 35.2818 115.235 36.1902 115.235 37.3415C115.235 38.2769 115.019 39.0594 114.588 39.6891C114.174 40.3187 113.517 40.7954 112.618 41.1192C111.736 41.443 110.585 41.6049 109.164 41.6049ZM109.569 38.8526C110.576 38.8526 111.332 38.7536 111.835 38.5558C112.339 38.3579 112.591 37.9981 112.591 37.4764C112.591 37.1886 112.528 36.9547 112.402 36.7748C112.276 36.595 112.051 36.451 111.727 36.3431C111.404 36.2172 110.945 36.1272 110.351 36.0733L107.68 35.8304C107.482 35.9923 107.302 36.1632 107.14 36.3431C106.996 36.505 106.879 36.6849 106.789 36.8828C106.7 37.0807 106.655 37.2875 106.655 37.5034C106.655 37.9531 106.87 38.2859 107.302 38.5018C107.734 38.7356 108.489 38.8526 109.569 38.8526ZM109.353 29.2195C109.677 29.2195 109.938 29.1655 110.135 29.0576C110.333 28.9317 110.486 28.7428 110.594 28.4909C110.702 28.2211 110.774 27.8883 110.81 27.4925C110.846 27.0968 110.864 26.6381 110.864 26.1164C110.864 25.5947 110.846 25.136 110.81 24.7402C110.774 24.3445 110.702 24.0117 110.594 23.7418C110.504 23.472 110.36 23.2741 110.162 23.1482C109.965 23.0223 109.695 22.9593 109.353 22.9593C109.029 22.9593 108.759 23.0223 108.543 23.1482C108.346 23.2741 108.193 23.472 108.085 23.7418C107.995 23.9937 107.923 24.3175 107.869 24.7132C107.833 25.109 107.815 25.5767 107.815 26.1164C107.815 26.6201 107.833 27.0698 107.869 27.4656C107.905 27.8433 107.977 28.1671 108.085 28.437C108.193 28.6888 108.346 28.8867 108.543 29.0306C108.759 29.1565 109.029 29.2195 109.353 29.2195ZM117.063 40.7144V38.0701C117.693 38.0701 118.206 38.0341 118.601 37.9621C118.997 37.8902 119.285 37.7642 119.465 37.5843C119.645 37.4045 119.735 37.1526 119.735 36.8288C119.735 36.595 119.672 36.2262 119.546 35.7225C119.438 35.2188 119.312 34.6701 119.168 34.0765L115.741 20.8816H119.303L121.327 31.1623L123.081 20.8816H126.616L122.973 37.0986C122.775 38.0161 122.442 38.7356 121.974 39.2573C121.507 39.779 120.922 40.1478 120.22 40.3636C119.519 40.5975 118.7 40.7144 117.765 40.7144H117.063ZM128.286 36.478V14.6214H134.708C136.021 14.6214 137.082 14.8643 137.892 15.35C138.719 15.8357 139.322 16.5462 139.7 17.4817C140.096 18.3991 140.293 19.5144 140.293 20.8276C140.293 22.2487 140.051 23.4 139.565 24.2815C139.079 25.145 138.396 25.7746 137.514 26.1703C136.651 26.5661 135.625 26.764 134.438 26.764H132.279V36.478H128.286ZM132.279 23.9577H133.79C134.51 23.9577 135.068 23.8588 135.463 23.6609C135.877 23.445 136.156 23.1122 136.3 22.6625C136.462 22.1948 136.543 21.5742 136.543 20.8006C136.543 20.0091 136.48 19.3705 136.354 18.8848C136.246 18.3811 135.994 18.0123 135.598 17.7785C135.221 17.5446 134.618 17.4277 133.79 17.4277H132.279V23.9577ZM142.246 36.478V14.6214H145.888V36.478H142.246ZM151.041 36.7209C150.429 36.7209 149.926 36.568 149.53 36.2622C149.134 35.9384 148.846 35.5156 148.666 34.9939C148.486 34.4543 148.396 33.8876 148.396 33.294V20.8816H152.066V32.6194C152.066 33.0871 152.138 33.4559 152.282 33.7257C152.444 33.9776 152.732 34.1035 153.146 34.1035C153.415 34.1035 153.685 34.0315 153.955 33.8876C154.243 33.7437 154.522 33.5728 154.792 33.3749V20.8816H158.461V36.478H154.792V34.9939C154.27 35.4976 153.694 35.9114 153.065 36.2352C152.435 36.559 151.76 36.7209 151.041 36.7209ZM165.252 36.7209C163.939 36.7209 162.859 36.3701 162.014 35.6685C161.168 34.967 160.566 33.9416 160.206 32.5924L162.931 31.5401C163.147 32.3855 163.435 33.0331 163.795 33.4829C164.155 33.9326 164.622 34.1574 165.198 34.1574C165.63 34.1574 165.953 34.0495 166.169 33.8336C166.385 33.6178 166.493 33.321 166.493 32.9432C166.493 32.5115 166.358 32.1247 166.088 31.7829C165.837 31.4231 165.396 30.9824 164.766 30.4607L162.877 28.8687C162.194 28.2751 161.636 27.6724 161.204 27.0608C160.791 26.4312 160.584 25.6487 160.584 24.7132C160.584 23.8678 160.773 23.1482 161.15 22.5546C161.546 21.9429 162.077 21.4752 162.742 21.1514C163.426 20.8096 164.182 20.6387 165.009 20.6387C166.268 20.6387 167.276 21.0165 168.031 21.772C168.805 22.5096 169.299 23.481 169.515 24.6863L167.114 25.7116C167.024 25.2799 166.889 24.8841 166.709 24.5244C166.547 24.1466 166.331 23.8408 166.061 23.6069C165.792 23.3731 165.477 23.2561 165.117 23.2561C164.739 23.2561 164.433 23.3731 164.2 23.6069C163.984 23.8408 163.876 24.1376 163.876 24.4974C163.876 24.8032 164.002 25.118 164.253 25.4418C164.523 25.7656 164.901 26.1344 165.387 26.5481L167.303 28.2751C167.716 28.6348 168.112 29.0216 168.49 29.4353C168.868 29.8491 169.182 30.3168 169.434 30.8385C169.686 31.3422 169.812 31.9268 169.812 32.5924C169.812 33.4919 169.605 34.2474 169.191 34.859C168.796 35.4706 168.247 35.9384 167.545 36.2622C166.862 36.568 166.097 36.7209 165.252 36.7209Z" fill="#545459"/>
</svg>
