<svg width="50" height="50" viewBox="0 0 50 50" fill="none" xmlns="http://www.w3.org/2000/svg">
<path d="M34.9536 35.6224C36.7929 38.814 38.6116 41.9695 40.4289 45.1215C32.3814 51.2826 19.861 52.0271 10.5923 44.9321C-0.0738762 36.7608 -1.82696 22.8182 3.88355 12.7817C10.4515 1.2376 22.7422 -1.31545 30.6557 0.556607C30.4417 1.02154 25.7021 10.8543 25.7021 10.8543C25.7021 10.8543 25.3274 10.8789 25.1154 10.883C22.7764 10.9821 21.0342 11.5264 19.167 12.4918C17.1183 13.5608 15.3627 15.1153 14.0535 17.0195C12.7443 18.9236 11.9215 21.1195 11.6569 23.4151C11.3808 25.7431 11.7027 28.1031 12.5922 30.2722C13.3443 32.106 14.4082 33.7346 15.8345 35.1096C18.0224 37.221 20.6261 38.5283 23.644 38.9611C26.502 39.3713 29.2506 38.9652 31.8262 37.6709C32.7924 37.1861 33.6142 36.6507 34.5748 35.9164C34.6972 35.8371 34.8059 35.7366 34.9536 35.6224Z" fill="#FF492C"/>
<path d="M34.9712 7.63123C34.5042 7.17176 34.0714 6.74785 33.6406 6.3212C33.3835 6.06685 33.136 5.80225 32.8728 5.55405C32.7784 5.46449 32.6677 5.3421 32.6677 5.3421C32.6677 5.3421 32.7572 5.15202 32.7955 5.07407C33.2994 4.06284 34.0891 3.32373 35.0259 2.73572C36.0617 2.08056 37.2685 1.74721 38.4937 1.77781C40.0615 1.80858 41.5192 2.19899 42.7493 3.25057C43.6573 4.0266 44.1229 5.01117 44.2049 6.1865C44.3417 8.16932 43.5212 9.68789 41.8919 10.7477C40.9346 11.3712 39.9022 11.8533 38.867 12.4242C38.2961 12.7394 37.8079 13.0163 37.25 13.5865C36.7591 14.1588 36.7352 14.6983 36.7352 14.6983L44.1516 14.6887V17.9918H32.7039V17.6725C32.6601 16.0493 32.8495 14.5219 33.5928 13.0477C34.2765 11.6953 35.339 10.7053 36.6155 9.94292C37.5987 9.35559 38.6339 8.85579 39.6192 8.2712C40.227 7.91087 40.6564 7.38235 40.653 6.61589C40.653 5.95814 40.1743 5.37355 39.4906 5.19099C37.8784 4.75614 36.2374 5.45013 35.3841 6.92562C35.2597 7.14099 35.1325 7.355 34.9712 7.63123ZM49.3165 32.1115L43.0665 21.3181H30.6985L24.4082 32.223H36.8671L43.0152 42.965L49.3165 32.1115Z" fill="#FF492C"/>
</svg>
