<svg width="275" height="88" viewBox="0 0 275 88" fill="none" xmlns="http://www.w3.org/2000/svg">
<rect x="0.5" y="0.5" width="274" height="87" rx="7.5" fill="#0C0C0C"/>
<rect x="0.5" y="0.5" width="274" height="87" rx="7.5" stroke="#545459"/>
<rect x="16" y="16" width="56" height="56" rx="28" fill="#F6F6F9"/>
<path d="M58.0014 44.3109C58.0014 43.1598 57.9061 42.3198 57.6998 41.4487H44.2871V46.6442H52.1601C52.0014 47.9354 51.1442 49.8798 49.2394 51.1864L49.2127 51.3604L53.4536 54.58L53.7474 54.6087C56.4458 52.1665 58.0014 48.5731 58.0014 44.3109Z" fill="#4285F4"/>
<path d="M44.2853 57.9998C48.1424 57.9998 51.3804 56.7553 53.7456 54.6086L49.2377 51.1863C48.0313 52.0108 46.4123 52.5863 44.2853 52.5863C40.5076 52.5863 37.3013 50.1441 36.1583 46.7686L35.9908 46.7825L31.5811 50.127L31.5234 50.2841C33.8726 54.8574 38.698 57.9998 44.2853 57.9998Z" fill="#34A853"/>
<path d="M36.1606 46.769C35.859 45.8979 35.6845 44.9645 35.6845 44.0001C35.6845 43.0356 35.859 42.1023 36.1447 41.2312L36.1368 41.0456L31.6718 37.6475L31.5257 37.7156C30.5575 39.6134 30.002 41.7445 30.002 44.0001C30.002 46.2556 30.5575 48.3867 31.5257 50.2845L36.1606 46.769Z" fill="#FBBC05"/>
<path d="M44.2854 35.4133C46.9679 35.4133 48.7774 36.5488 49.8092 37.4978L53.8409 33.64C51.3648 31.3844 48.1425 30 44.2854 30C38.698 30 33.8726 33.1422 31.5234 37.7155L36.1425 41.2311C37.3013 37.8555 40.5076 35.4133 44.2854 35.4133Z" fill="#EB4335"/>
<path d="M91.056 38.68C90.192 38.68 89.376 38.512 88.608 38.176C87.84 37.84 87.168 37.378 86.592 36.79C86.016 36.19 85.56 35.5 85.224 34.72C84.9 33.928 84.738 33.082 84.738 32.182C84.738 31.282 84.9 30.442 85.224 29.662C85.56 28.882 86.016 28.198 86.592 27.61C87.18 27.01 87.864 26.548 88.644 26.224C89.436 25.888 90.288 25.72 91.2 25.72C92.196 25.72 93.12 25.912 93.972 26.296C94.824 26.68 95.538 27.226 96.114 27.934L94.71 29.338C94.338 28.81 93.84 28.408 93.216 28.132C92.592 27.844 91.92 27.7 91.2 27.7C90.336 27.7 89.574 27.892 88.914 28.276C88.266 28.648 87.762 29.17 87.402 29.842C87.042 30.514 86.862 31.294 86.862 32.182C86.862 33.07 87.042 33.856 87.402 34.54C87.774 35.212 88.272 35.74 88.896 36.124C89.52 36.508 90.228 36.7 91.02 36.7C91.86 36.7 92.58 36.55 93.18 36.25C93.792 35.938 94.26 35.482 94.584 34.882C94.908 34.27 95.07 33.52 95.07 32.632L96.366 33.568H90.984V31.678H97.212V31.966C97.212 33.466 96.942 34.714 96.402 35.71C95.874 36.706 95.148 37.45 94.224 37.942C93.3 38.434 92.244 38.68 91.056 38.68ZM102.962 38.68C102.122 38.68 101.36 38.482 100.676 38.086C99.9923 37.678 99.4463 37.132 99.0383 36.448C98.6423 35.764 98.4443 35.002 98.4443 34.162C98.4443 33.322 98.6423 32.566 99.0383 31.894C99.4463 31.222 99.9923 30.688 100.676 30.292C101.36 29.884 102.122 29.68 102.962 29.68C103.814 29.68 104.582 29.878 105.266 30.274C105.95 30.67 106.49 31.21 106.886 31.894C107.294 32.566 107.498 33.322 107.498 34.162C107.498 35.002 107.294 35.764 106.886 36.448C106.49 37.132 105.95 37.678 105.266 38.086C104.582 38.482 103.814 38.68 102.962 38.68ZM102.962 36.772C103.454 36.772 103.886 36.664 104.258 36.448C104.642 36.22 104.936 35.908 105.14 35.512C105.356 35.116 105.464 34.666 105.464 34.162C105.464 33.658 105.356 33.214 105.14 32.83C104.924 32.446 104.63 32.146 104.258 31.93C103.886 31.702 103.454 31.588 102.962 31.588C102.482 31.588 102.05 31.702 101.666 31.93C101.294 32.146 101 32.446 100.784 32.83C100.58 33.214 100.478 33.658 100.478 34.162C100.478 34.666 100.58 35.116 100.784 35.512C101 35.908 101.294 36.22 101.666 36.448C102.05 36.664 102.482 36.772 102.962 36.772ZM113.105 38.68C112.265 38.68 111.503 38.482 110.819 38.086C110.135 37.678 109.589 37.132 109.181 36.448C108.785 35.764 108.587 35.002 108.587 34.162C108.587 33.322 108.785 32.566 109.181 31.894C109.589 31.222 110.135 30.688 110.819 30.292C111.503 29.884 112.265 29.68 113.105 29.68C113.957 29.68 114.725 29.878 115.409 30.274C116.093 30.67 116.633 31.21 117.029 31.894C117.437 32.566 117.641 33.322 117.641 34.162C117.641 35.002 117.437 35.764 117.029 36.448C116.633 37.132 116.093 37.678 115.409 38.086C114.725 38.482 113.957 38.68 113.105 38.68ZM113.105 36.772C113.597 36.772 114.029 36.664 114.401 36.448C114.785 36.22 115.079 35.908 115.283 35.512C115.499 35.116 115.607 34.666 115.607 34.162C115.607 33.658 115.499 33.214 115.283 32.83C115.067 32.446 114.773 32.146 114.401 31.93C114.029 31.702 113.597 31.588 113.105 31.588C112.625 31.588 112.193 31.702 111.809 31.93C111.437 32.146 111.143 32.446 110.927 32.83C110.723 33.214 110.621 33.658 110.621 34.162C110.621 34.666 110.723 35.116 110.927 35.512C111.143 35.908 111.437 36.22 111.809 36.448C112.193 36.664 112.625 36.772 113.105 36.772ZM122.887 42.28C121.975 42.28 121.177 42.112 120.493 41.776C119.809 41.452 119.257 40.99 118.837 40.39L120.133 39.094C120.481 39.526 120.877 39.85 121.321 40.066C121.765 40.282 122.299 40.39 122.923 40.39C123.703 40.39 124.321 40.186 124.777 39.778C125.233 39.382 125.461 38.836 125.461 38.14V36.016L125.803 34.108L125.461 32.182V29.86H127.441V38.14C127.441 38.968 127.249 39.688 126.865 40.3C126.481 40.924 125.947 41.41 125.263 41.758C124.579 42.106 123.787 42.28 122.887 42.28ZM122.797 38.32C122.029 38.32 121.333 38.134 120.709 37.762C120.097 37.378 119.611 36.856 119.251 36.196C118.903 35.536 118.729 34.798 118.729 33.982C118.729 33.166 118.903 32.434 119.251 31.786C119.611 31.138 120.097 30.628 120.709 30.256C121.333 29.872 122.029 29.68 122.797 29.68C123.481 29.68 124.081 29.818 124.597 30.094C125.113 30.37 125.515 30.754 125.803 31.246C126.091 31.726 126.235 32.29 126.235 32.938V35.062C126.235 35.698 126.085 36.262 125.785 36.754C125.497 37.246 125.095 37.63 124.579 37.906C124.063 38.182 123.469 38.32 122.797 38.32ZM123.193 36.448C123.673 36.448 124.093 36.346 124.453 36.142C124.813 35.938 125.089 35.656 125.281 35.296C125.485 34.924 125.587 34.492 125.587 34C125.587 33.508 125.485 33.082 125.281 32.722C125.089 32.35 124.813 32.062 124.453 31.858C124.093 31.654 123.673 31.552 123.193 31.552C122.713 31.552 122.287 31.654 121.915 31.858C121.555 32.062 121.273 32.35 121.069 32.722C120.865 33.082 120.763 33.508 120.763 34C120.763 34.48 120.865 34.906 121.069 35.278C121.273 35.65 121.555 35.938 121.915 36.142C122.287 36.346 122.713 36.448 123.193 36.448ZM129.641 38.5V25.54H131.621V38.5H129.641ZM137.839 38.68C136.975 38.68 136.195 38.488 135.499 38.104C134.815 37.708 134.269 37.168 133.861 36.484C133.465 35.8 133.267 35.032 133.267 34.18C133.267 33.328 133.465 32.566 133.861 31.894C134.257 31.21 134.791 30.67 135.463 30.274C136.147 29.878 136.903 29.68 137.731 29.68C138.535 29.68 139.243 29.866 139.855 30.238C140.479 30.61 140.965 31.12 141.313 31.768C141.673 32.416 141.853 33.154 141.853 33.982C141.853 34.126 141.841 34.276 141.817 34.432C141.805 34.576 141.781 34.738 141.745 34.918H134.653V33.298H140.719L139.981 33.946C139.957 33.418 139.855 32.974 139.675 32.614C139.495 32.254 139.237 31.978 138.901 31.786C138.577 31.594 138.175 31.498 137.695 31.498C137.191 31.498 136.753 31.606 136.381 31.822C136.009 32.038 135.721 32.344 135.517 32.74C135.313 33.124 135.211 33.586 135.211 34.126C135.211 34.666 135.319 35.14 135.535 35.548C135.751 35.956 136.057 36.274 136.453 36.502C136.849 36.718 137.305 36.826 137.821 36.826C138.265 36.826 138.673 36.748 139.045 36.592C139.429 36.436 139.753 36.208 140.017 35.908L141.277 37.186C140.857 37.678 140.347 38.05 139.747 38.302C139.147 38.554 138.511 38.68 137.839 38.68ZM152.627 33.784C152.255 33.784 151.925 33.7 151.637 33.532C151.349 33.364 151.121 33.136 150.953 32.848C150.797 32.548 150.719 32.224 150.719 31.876C150.719 31.528 150.797 31.21 150.953 30.922C151.121 30.634 151.349 30.406 151.637 30.238C151.925 30.058 152.255 29.968 152.627 29.968C152.999 29.968 153.323 30.058 153.599 30.238C153.887 30.406 154.109 30.634 154.265 30.922C154.433 31.21 154.517 31.528 154.517 31.876C154.517 32.224 154.433 32.548 154.265 32.848C154.109 33.136 153.887 33.364 153.599 33.532C153.323 33.7 152.999 33.784 152.627 33.784ZM163.412 34L167.894 25.9H170.234L165.644 34H163.412ZM163.412 35.26V34L164.294 33.406H173.186V35.26H163.412ZM169.388 38.5V30.256H171.422V38.5H169.388ZM175.643 38.68C175.259 38.68 174.941 38.554 174.689 38.302C174.449 38.038 174.329 37.72 174.329 37.348C174.329 36.964 174.449 36.646 174.689 36.394C174.941 36.142 175.259 36.016 175.643 36.016C176.027 36.016 176.339 36.142 176.579 36.394C176.831 36.646 176.957 36.964 176.957 37.348C176.957 37.72 176.831 38.038 176.579 38.302C176.339 38.554 176.027 38.68 175.643 38.68ZM179.841 38.5L183.531 33.334L184.269 32.884C184.149 33.148 183.993 33.382 183.801 33.586C183.621 33.79 183.381 33.946 183.081 34.054C182.781 34.162 182.397 34.216 181.929 34.216C181.209 34.216 180.549 34.048 179.949 33.712C179.349 33.364 178.869 32.884 178.509 32.272C178.149 31.66 177.969 30.952 177.969 30.148C177.969 29.332 178.167 28.588 178.563 27.916C178.971 27.244 179.511 26.71 180.183 26.314C180.855 25.918 181.605 25.72 182.433 25.72C183.273 25.72 184.029 25.918 184.701 26.314C185.373 26.698 185.901 27.22 186.285 27.88C186.681 28.528 186.879 29.26 186.879 30.076C186.879 31.228 186.477 32.392 185.673 33.568L182.235 38.5H179.841ZM182.433 32.596C182.889 32.596 183.297 32.488 183.657 32.272C184.017 32.056 184.299 31.762 184.503 31.39C184.707 31.018 184.809 30.604 184.809 30.148C184.809 29.668 184.707 29.242 184.503 28.87C184.299 28.498 184.017 28.204 183.657 27.988C183.297 27.772 182.889 27.664 182.433 27.664C181.977 27.664 181.569 27.772 181.209 27.988C180.849 28.204 180.561 28.498 180.345 28.87C180.141 29.242 180.039 29.668 180.039 30.148C180.039 30.616 180.141 31.036 180.345 31.408C180.561 31.768 180.849 32.056 181.209 32.272C181.581 32.488 181.989 32.596 182.433 32.596ZM187.644 39.22L192.684 25.18H194.538L189.498 39.22H187.644ZM199.153 38.68C198.277 38.68 197.497 38.53 196.813 38.23C196.129 37.918 195.553 37.468 195.085 36.88L196.489 35.476C196.741 35.86 197.095 36.166 197.551 36.394C198.019 36.622 198.541 36.736 199.117 36.736C199.645 36.736 200.107 36.64 200.503 36.448C200.899 36.256 201.211 35.98 201.439 35.62C201.667 35.26 201.781 34.834 201.781 34.342C201.781 33.826 201.667 33.4 201.439 33.064C201.223 32.716 200.929 32.458 200.557 32.29C200.197 32.11 199.807 32.02 199.387 32.02C198.907 32.02 198.475 32.074 198.091 32.182C197.719 32.29 197.353 32.482 196.993 32.758L197.047 31.462C197.239 31.21 197.461 31.006 197.713 30.85C197.965 30.682 198.259 30.556 198.595 30.472C198.931 30.388 199.327 30.346 199.783 30.346C200.671 30.346 201.415 30.532 202.015 30.904C202.627 31.276 203.089 31.774 203.401 32.398C203.713 33.01 203.869 33.694 203.869 34.45C203.869 35.266 203.665 35.992 203.257 36.628C202.861 37.264 202.309 37.768 201.601 38.14C200.893 38.5 200.077 38.68 199.153 38.68ZM196.993 32.758L195.859 31.624L196.417 25.9H198.307L197.659 31.858L196.993 32.758ZM196.777 27.754L196.417 25.9H203.167V27.754H196.777Z" fill="#F6F6F9"/>
<path fill-rule="evenodd" clip-rule="evenodd" d="M92.3136 52.7051L94.5966 57.5569L99.7 58.3351C99.8321 58.3557 99.9417 58.4527 99.9829 58.5855C100.024 58.7183 99.9896 58.8641 99.8941 58.9617L96.202 62.7374L97.0737 68.07C97.0966 68.2075 97.0428 68.3466 96.9348 68.4288C96.8269 68.511 96.6836 68.5219 96.5655 68.4569L92.0005 65.9397L87.4356 68.4576C87.3175 68.5229 87.1742 68.5121 87.0662 68.43C86.9582 68.3478 86.9043 68.2086 86.9274 68.071L87.7991 62.7374L84.1059 58.9617C84.0103 58.8641 83.976 58.7183 84.0171 58.5855C84.0583 58.4527 84.1679 58.3557 84.3 58.3351L89.4034 57.5569L91.6874 52.7051C91.7456 52.5797 91.8672 52.5 92.0005 52.5C92.1339 52.5 92.2555 52.5797 92.3136 52.7051Z" fill="#F3B814"/>
<path fill-rule="evenodd" clip-rule="evenodd" d="M112.314 52.7051L114.597 57.5569L119.7 58.3351C119.832 58.3557 119.942 58.4527 119.983 58.5855C120.024 58.7183 119.99 58.8641 119.894 58.9617L116.202 62.7374L117.074 68.07C117.097 68.2075 117.043 68.3466 116.935 68.4288C116.827 68.511 116.684 68.5219 116.565 68.4569L112.001 65.9397L107.436 68.4576C107.317 68.5229 107.174 68.5121 107.066 68.43C106.958 68.3478 106.904 68.2086 106.927 68.071L107.799 62.7374L104.106 58.9617C104.01 58.8641 103.976 58.7183 104.017 58.5855C104.058 58.4527 104.168 58.3557 104.3 58.3351L109.403 57.5569L111.687 52.7051C111.746 52.5797 111.867 52.5 112.001 52.5C112.134 52.5 112.255 52.5797 112.314 52.7051Z" fill="#F3B814"/>
<path fill-rule="evenodd" clip-rule="evenodd" d="M132.314 52.7051L134.597 57.5569L139.7 58.3351C139.832 58.3557 139.942 58.4527 139.983 58.5855C140.024 58.7183 139.99 58.8641 139.894 58.9617L136.202 62.7374L137.074 68.07C137.097 68.2075 137.043 68.3466 136.935 68.4288C136.827 68.511 136.684 68.5219 136.565 68.4569L132.001 65.9397L127.436 68.4576C127.317 68.5229 127.174 68.5121 127.066 68.43C126.958 68.3478 126.904 68.2086 126.927 68.071L127.799 62.7374L124.106 58.9617C124.01 58.8641 123.976 58.7183 124.017 58.5855C124.058 58.4527 124.168 58.3557 124.3 58.3351L129.403 57.5569L131.687 52.7051C131.746 52.5797 131.867 52.5 132.001 52.5C132.134 52.5 132.255 52.5797 132.314 52.7051Z" fill="#F3B814"/>
<path fill-rule="evenodd" clip-rule="evenodd" d="M152.314 52.7051L154.597 57.5569L159.7 58.3351C159.832 58.3557 159.942 58.4527 159.983 58.5855C160.024 58.7183 159.99 58.8641 159.894 58.9617L156.202 62.7374L157.074 68.07C157.097 68.2075 157.043 68.3466 156.935 68.4288C156.827 68.511 156.684 68.5219 156.565 68.4569L152.001 65.9397L147.436 68.4576C147.317 68.5229 147.174 68.5121 147.066 68.43C146.958 68.3478 146.904 68.2086 146.927 68.071L147.799 62.7374L144.106 58.9617C144.01 58.8641 143.976 58.7183 144.017 58.5855C144.058 58.4527 144.168 58.3557 144.3 58.3351L149.403 57.5569L151.687 52.7051C151.746 52.5797 151.867 52.5 152.001 52.5C152.134 52.5 152.255 52.5797 152.314 52.7051Z" fill="#F3B814"/>
<path fill-rule="evenodd" clip-rule="evenodd" d="M172.314 52.7051L174.597 57.5569L179.7 58.3351C179.832 58.3557 179.942 58.4527 179.983 58.5855C180.024 58.7183 179.99 58.8641 179.894 58.9617L176.202 62.7374L177.074 68.07C177.097 68.2075 177.043 68.3466 176.935 68.4288C176.827 68.511 176.684 68.5219 176.565 68.4569L172.001 65.9397L167.436 68.4576C167.317 68.5229 167.174 68.5121 167.066 68.43C166.958 68.3478 166.904 68.2086 166.927 68.071L167.799 62.7374L164.106 58.9617C164.01 58.8641 163.976 58.7183 164.017 58.5855C164.058 58.4527 164.168 58.3557 164.3 58.3351L169.403 57.5569L171.687 52.7051C171.746 52.5797 171.867 52.5 172.001 52.5C172.134 52.5 172.255 52.5797 172.314 52.7051Z" fill="#F3B814"/>
<path d="M255 44L239 44" stroke="white" stroke-width="1.5" stroke-linecap="round" stroke-linejoin="round"/>
<path d="M250 49C250 49 255 45.3176 255 44C255 42.6824 250 39 250 39" stroke="white" stroke-width="1.5" stroke-linecap="round" stroke-linejoin="round"/>
</svg>
