<svg width="110" height="24" viewBox="0 0 110 24" fill="none" xmlns="http://www.w3.org/2000/svg">
<path d="M12.5953 23.478H0.751274C0.247274 23.478 -0.00472638 23.226 -0.00472638 22.722V1.08603C-0.00472638 0.582027 0.247274 0.330027 0.751274 0.330027H3.81127C4.31527 0.330027 4.56727 0.582027 4.56727 1.08603V19.086C4.56727 19.35 4.71127 19.482 4.99927 19.482H12.5953C13.0753 19.482 13.3153 19.746 13.3153 20.274V22.722C13.3153 23.226 13.0753 23.478 12.5953 23.478ZM18.2191 23.478H14.7631C14.3311 23.478 14.1871 23.226 14.3311 22.722L20.0191 1.08603C20.1871 0.582027 20.5471 0.330027 21.0991 0.330027H25.8871C26.4871 0.330027 26.8471 0.582027 26.9671 1.08603L32.6552 22.722C32.7992 23.226 32.6551 23.478 32.2231 23.478H28.7671C28.5031 23.478 28.3231 23.43 28.2271 23.334C28.1311 23.214 28.0591 23.01 28.0111 22.722L27.0031 18.762H19.9831L18.9751 22.722C18.9271 23.01 18.8431 23.214 18.7231 23.334C18.6271 23.43 18.4591 23.478 18.2191 23.478ZM23.4391 4.68603L20.8471 15.09H26.1751L23.5831 4.68603H23.4391ZM44.9182 23.478H40.2022C39.6982 23.478 39.3982 23.226 39.3022 22.722L33.7222 1.15803C33.5542 0.606027 33.7942 0.330027 34.4422 0.330027H37.8262C38.3062 0.330027 38.5942 0.582027 38.6902 1.08603L42.4702 18.798H42.6142L46.3942 1.08603C46.4902 0.582027 46.7782 0.330027 47.2582 0.330027H50.6422C51.2422 0.330027 51.4822 0.606027 51.3622 1.15803L45.7822 22.722C45.6622 23.226 45.3742 23.478 44.9182 23.478ZM56.3116 23.478H52.8556C52.4236 23.478 52.2796 23.226 52.4236 22.722L58.1116 1.08603C58.2796 0.582027 58.6396 0.330027 59.1916 0.330027H63.9796C64.5796 0.330027 64.9396 0.582027 65.0596 1.08603L70.7476 22.722C70.8916 23.226 70.7476 23.478 70.3156 23.478H66.8596C66.5956 23.478 66.4156 23.43 66.3196 23.334C66.2236 23.214 66.1516 23.01 66.1036 22.722L65.0956 18.762H58.0756L57.0676 22.722C57.0196 23.01 56.9356 23.214 56.8156 23.334C56.7196 23.43 56.5516 23.478 56.3116 23.478ZM61.5316 4.68603L58.9396 15.09H64.2676L61.6756 4.68603H61.5316ZM72.9667 22.722V20.562C72.9667 19.77 73.1227 19.182 73.4347 18.798L82.9747 4.72203V4.57803H74.3707C73.8667 4.57803 73.6147 4.32603 73.6147 3.82203V1.08603C73.6147 0.582027 73.8667 0.330027 74.3707 0.330027H87.1507C87.6307 0.330027 87.8707 0.582027 87.8707 1.08603V4.18203C87.8707 4.90203 87.6907 5.52603 87.3307 6.05403L78.3667 19.086V19.23H87.5107C87.9907 19.23 88.2307 19.458 88.2307 19.914V22.65C88.2307 23.202 87.9907 23.478 87.5107 23.478H73.7227C73.2187 23.478 72.9667 23.226 72.9667 22.722ZM94.4041 23.478H90.9481C90.5161 23.478 90.3721 23.226 90.5161 22.722L96.2041 1.08603C96.3721 0.582027 96.7321 0.330027 97.2841 0.330027H102.072C102.672 0.330027 103.032 0.582027 103.152 1.08603L108.84 22.722C108.984 23.226 108.84 23.478 108.408 23.478H104.952C104.688 23.478 104.508 23.43 104.412 23.334C104.316 23.214 104.244 23.01 104.196 22.722L103.188 18.762H96.1681L95.1601 22.722C95.1121 23.01 95.0281 23.214 94.9081 23.334C94.8121 23.43 94.6441 23.478 94.4041 23.478ZM99.6241 4.68603L97.0321 15.09H102.36L99.7681 4.68603H99.6241Z" fill="#545459"/>
</svg>
