<svg width="162" height="47" viewBox="0 0 162 47" fill="none" xmlns="http://www.w3.org/2000/svg">
<path fill-rule="evenodd" clip-rule="evenodd" d="M23.1345 46.2689C35.9113 46.2689 46.2689 35.9113 46.2689 23.1345C46.2689 10.3577 35.9113 0 23.1345 0C10.3577 0 0 10.3577 0 23.1345C0 35.9113 10.3577 46.2689 23.1345 46.2689ZM42.6161 23.2605C42.6164 23.2209 42.6165 23.1813 42.6165 23.1417C42.6165 23.119 42.6164 23.0964 42.6164 23.0738C42.6163 23.0566 42.6162 23.0394 42.6161 23.0222V23.1417C40.0577 23.1417 37.5244 22.6378 35.1608 21.6587C32.7972 20.6797 30.6495 19.2446 28.8405 17.4356C27.0315 15.6266 25.5965 13.4789 24.6174 11.1153C23.649 8.77724 23.1454 6.27313 23.1346 3.74297C23.1239 6.27313 22.6203 8.77724 21.6519 11.1153C20.6728 13.4789 19.2378 15.6266 17.4288 17.4356C15.6197 19.2446 13.4721 20.6797 11.1085 21.6587C8.74485 22.6377 6.21153 23.1417 3.65317 23.1417V23.1436C6.21153 23.1436 8.74485 23.6475 11.1085 24.6265C13.4721 25.6056 15.6197 27.0406 17.4288 28.8496C19.2378 30.6586 20.6728 32.8063 21.6519 35.1699C22.6203 37.508 23.1239 40.0121 23.1346 42.5422C23.1454 40.0121 23.649 37.508 24.6174 35.1699C25.5965 32.8063 27.0315 30.6586 28.8405 28.8496C30.6495 27.0406 32.7972 25.6056 35.1608 24.6265C37.5244 23.6475 40.0578 23.1436 42.6161 23.1436V23.2605Z" fill="white"/>
<path d="M63.8231 34.4353C62.1189 34.4353 60.6552 34.1445 59.4322 33.5631C58.2292 32.9817 57.1365 32.1095 56.154 30.9466L58.8608 28.2399C59.4823 29.0619 60.2041 29.7035 61.0262 30.1646C61.8482 30.6057 62.8507 30.8263 64.0336 30.8263C65.0963 30.8263 65.9384 30.6158 66.5599 30.1947C67.2015 29.7737 67.5223 29.1922 67.5223 28.4504C67.5223 27.8088 67.3419 27.2875 66.981 26.8865C66.6201 26.4855 66.1389 26.1446 65.5374 25.8639C64.9559 25.5833 64.3043 25.3326 63.5825 25.1121C62.8808 24.8715 62.169 24.6008 61.4472 24.3001C60.7455 23.9993 60.0938 23.6284 59.4923 23.1873C58.9109 22.7261 58.4397 22.1447 58.0788 21.443C57.7179 20.7212 57.5375 19.8189 57.5375 18.7362C57.5375 17.453 57.8482 16.3603 58.4698 15.4581C59.0913 14.5558 59.9435 13.8641 61.0262 13.3829C62.1088 12.9017 63.3319 12.6611 64.6953 12.6611C66.1389 12.6611 67.4421 12.9318 68.605 13.4731C69.7679 14.0145 70.7203 14.7162 71.4621 15.5784L68.7554 18.2851C68.1338 17.6034 67.4922 17.1022 66.8306 16.7814C66.189 16.4606 65.4572 16.3002 64.6351 16.3002C63.6928 16.3002 62.9509 16.4806 62.4096 16.8415C61.8682 17.2024 61.5976 17.7237 61.5976 18.4054C61.5976 18.9868 61.778 19.458 62.1389 19.8189C62.4998 20.1798 62.971 20.4906 63.5524 20.7512C64.1539 21.0119 64.8056 21.2625 65.5073 21.5031C66.2291 21.7437 66.9409 22.0144 67.6426 22.3151C68.3644 22.6159 69.016 23.0068 69.5975 23.488C70.199 23.9692 70.6802 24.5908 71.0411 25.3527C71.402 26.0945 71.5824 27.0168 71.5824 28.1196C71.5824 30.0844 70.8907 31.6283 69.5072 32.7511C68.1238 33.8739 66.2291 34.4353 63.8231 34.4353ZM82.4495 34.4353C81.4069 34.4353 80.4646 34.2247 79.6225 33.8037C78.7804 33.3626 78.1087 32.7711 77.6075 32.0293C77.1062 31.2874 76.8356 30.4353 76.7955 29.4729V24.3301C76.8356 23.3677 77.1062 22.5156 77.6075 21.7738C78.1288 21.0119 78.8004 20.4104 79.6225 19.9693C80.4646 19.5282 81.4069 19.3076 82.4495 19.3076C83.7929 19.3076 84.9958 19.6385 86.0585 20.3001C87.1211 20.9618 87.9532 21.864 88.5547 23.0068C89.1762 24.1497 89.487 25.4429 89.487 26.8865C89.487 28.31 89.1762 29.5932 88.5547 30.7361C87.9532 31.8789 87.1211 32.7812 86.0585 33.4428C84.9958 34.1044 83.7929 34.4353 82.4495 34.4353ZM81.7578 30.7962C82.4796 30.7962 83.1212 30.6358 83.6826 30.315C84.244 29.9742 84.6751 29.513 84.9758 28.9316C85.2966 28.3301 85.457 27.6384 85.457 26.8564C85.457 26.0945 85.2966 25.4229 84.9758 24.8414C84.6751 24.2399 84.244 23.7788 83.6826 23.458C83.1212 23.1171 82.4796 22.9467 81.7578 22.9467C81.056 22.9467 80.4245 23.1171 79.8631 23.458C79.3017 23.7788 78.8606 24.2399 78.5398 24.8414C78.239 25.4229 78.0887 26.0945 78.0887 26.8564C78.0887 27.6384 78.239 28.3301 78.5398 28.9316C78.8606 29.513 79.2917 29.9742 79.833 30.315C80.3944 30.6358 81.036 30.7962 81.7578 30.7962ZM74.3895 40.2096V19.6084H78.3293V23.4279L77.6676 26.9466L78.2992 30.4654V40.2096H74.3895ZM99.0174 34.4353C97.4937 34.4353 96.1403 34.1145 94.9573 33.4729C93.7744 32.8112 92.8321 31.909 92.1303 30.7661C91.4486 29.6233 91.1078 28.3201 91.1078 26.8564C91.1078 25.4128 91.4386 24.1296 92.1002 23.0068C92.7819 21.864 93.7042 20.9618 94.8671 20.3001C96.03 19.6184 97.3232 19.2776 98.7468 19.2776C100.15 19.2776 101.383 19.5984 102.446 20.24C103.529 20.8615 104.371 21.7237 104.972 22.8264C105.594 23.9091 105.905 25.1422 105.905 26.5256C105.905 26.7862 105.885 27.0569 105.844 27.3376C105.824 27.5983 105.774 27.899 105.694 28.2399L93.4837 28.2699V25.3226L103.859 25.2925L102.266 26.5256C102.225 25.6635 102.065 24.9417 101.784 24.3602C101.524 23.7788 101.133 23.3377 100.611 23.0369C100.11 22.7161 99.4886 22.5557 98.7468 22.5557C97.9648 22.5557 97.2831 22.7362 96.7017 23.0971C96.1202 23.4379 95.6691 23.9291 95.3483 24.5707C95.0476 25.1923 94.8972 25.9341 94.8972 26.7963C94.8972 27.6785 95.0576 28.4504 95.3784 29.112C95.7192 29.7536 96.2004 30.2549 96.822 30.6158C97.4435 30.9566 98.1653 31.127 98.9874 31.127C99.7292 31.127 100.401 31.0067 101.002 30.7661C101.604 30.5055 102.125 30.1245 102.566 29.6233L104.882 31.9391C104.18 32.7611 103.318 33.3827 102.296 33.8037C101.293 34.2247 100.2 34.4353 99.0174 34.4353ZM115.198 34.4353C113.714 34.4353 112.381 34.1044 111.198 33.4428C110.015 32.7812 109.083 31.8789 108.401 30.7361C107.72 29.5932 107.379 28.31 107.379 26.8865C107.379 25.4429 107.72 24.1497 108.401 23.0068C109.083 21.864 110.015 20.9618 111.198 20.3001C112.401 19.6184 113.735 19.2776 115.198 19.2776C116.341 19.2776 117.394 19.4881 118.356 19.9091C119.318 20.3302 120.15 20.9317 120.852 21.7136L118.326 24.27C117.945 23.8489 117.484 23.5281 116.942 23.3076C116.421 23.087 115.84 22.9768 115.198 22.9768C114.476 22.9768 113.825 23.1472 113.243 23.488C112.682 23.8088 112.231 24.26 111.89 24.8414C111.569 25.4028 111.409 26.0745 111.409 26.8564C111.409 27.6183 111.569 28.3 111.89 28.9015C112.231 29.483 112.682 29.9441 113.243 30.2849C113.825 30.6057 114.476 30.7661 115.198 30.7661C115.86 30.7661 116.451 30.6559 116.973 30.4353C117.514 30.1947 117.975 29.8539 118.356 29.4128L120.912 31.9691C120.171 32.7711 119.318 33.3827 118.356 33.8037C117.394 34.2247 116.341 34.4353 115.198 34.4353ZM125.044 34.1345V13.5634H128.984V34.1345H125.044ZM121.645 23.067V19.6084H132.382V23.067H121.645ZM134.598 34.1345V19.6084H138.538V34.1345H134.598ZM138.538 26.1045L137.004 25.082C137.184 23.2976 137.706 21.8941 138.568 20.8715C139.43 19.8289 140.673 19.3076 142.297 19.3076C142.999 19.3076 143.63 19.4279 144.192 19.6685C144.753 19.8891 145.264 20.26 145.725 20.7813L143.259 23.6083C143.039 23.3677 142.768 23.1873 142.447 23.067C142.147 22.9467 141.796 22.8865 141.395 22.8865C140.553 22.8865 139.861 23.1572 139.32 23.6986C138.798 24.2199 138.538 25.0219 138.538 26.1045ZM153.646 34.4353C152.122 34.4353 150.768 34.1145 149.585 33.4729C148.402 32.8112 147.46 31.909 146.758 30.7661C146.077 29.6233 145.736 28.3201 145.736 26.8564C145.736 25.4128 146.067 24.1296 146.728 23.0068C147.41 21.864 148.332 20.9618 149.495 20.3001C150.658 19.6184 151.951 19.2776 153.375 19.2776C154.778 19.2776 156.011 19.5984 157.074 20.24C158.157 20.8615 158.999 21.7237 159.6 22.8264C160.222 23.9091 160.533 25.1422 160.533 26.5256C160.533 26.7862 160.513 27.0569 160.472 27.3376C160.452 27.5983 160.402 27.899 160.322 28.2399L148.112 28.2699V25.3226L158.488 25.2925L156.894 26.5256C156.853 25.6635 156.693 24.9417 156.412 24.3602C156.152 23.7788 155.761 23.3377 155.239 23.0369C154.738 22.7161 154.117 22.5557 153.375 22.5557C152.593 22.5557 151.911 22.7362 151.33 23.0971C150.748 23.4379 150.297 23.9291 149.976 24.5707C149.676 25.1923 149.525 25.9341 149.525 26.7963C149.525 27.6785 149.686 28.4504 150.006 29.112C150.347 29.7536 150.829 30.2549 151.45 30.6158C152.072 30.9566 152.793 31.127 153.615 31.127C154.357 31.127 155.029 31.0067 155.63 30.7661C156.232 30.5055 156.753 30.1245 157.194 29.6233L159.51 31.9391C158.808 32.7611 157.946 33.3827 156.924 33.8037C155.921 34.2247 154.828 34.4353 153.646 34.4353Z" fill="white"/>
</svg>
