<svg width="150" height="53" viewBox="0 0 150 53" fill="none" xmlns="http://www.w3.org/2000/svg">
<path fill-rule="evenodd" clip-rule="evenodd" d="M52.2178 26.978C52.2178 41.3374 40.5772 52.978 26.2178 52.978C11.8584 52.978 0.217773 41.3374 0.217773 26.978C0.217773 12.6186 11.8584 0.978027 26.2178 0.978027C40.5772 0.978027 52.2178 12.6186 52.2178 26.978ZM14.9452 15.5773H26.6741V27.3062H14.9452V15.5773ZM43.0952 15.5773H31.3662V27.3062H43.0952V15.5773ZM10.2528 27.3086H21.9817V39.0376H10.2528V27.3086ZM38.4019 27.3086H26.673V39.0376H38.4019V27.3086Z" fill="#545459"/>
<path d="M75.2931 21.7124C75.2003 20.844 74.8092 20.1679 74.1198 19.684C73.437 19.2001 72.5487 18.9581 71.455 18.9581C70.6861 18.9581 70.0265 19.0741 69.4763 19.3062C68.9261 19.5382 68.5052 19.853 68.2135 20.2508C67.9218 20.6485 67.7727 21.1026 67.7661 21.613C67.7661 22.0372 67.8622 22.4051 68.0544 22.7167C68.2533 23.0282 68.5218 23.2934 68.8598 23.5121C69.1979 23.7242 69.5724 23.9032 69.9834 24.049C70.3944 24.1949 70.8087 24.3175 71.2263 24.4169L73.1354 24.8942C73.9043 25.0732 74.6434 25.3151 75.3527 25.6201C76.0686 25.925 76.7083 26.3095 77.2718 26.7735C77.8418 27.2375 78.2926 27.7976 78.624 28.4539C78.9555 29.1101 79.1212 29.8791 79.1212 30.7607C79.1212 31.9539 78.8163 33.0045 78.2064 33.9127C77.5966 34.8142 76.7149 35.5202 75.5615 36.0306C74.4147 36.5344 73.026 36.7863 71.3953 36.7863C69.8111 36.7863 68.4356 36.541 67.2689 36.0505C66.1089 35.5599 65.2007 34.844 64.5445 33.9027C63.8949 32.9615 63.5435 31.8147 63.4905 30.4624H67.1198C67.1728 31.1717 67.3915 31.7616 67.776 32.2323C68.1605 32.7029 68.661 33.0543 69.2774 33.2863C69.9005 33.5183 70.5966 33.6343 71.3655 33.6343C72.1676 33.6343 72.8702 33.515 73.4735 33.2763C74.0833 33.0311 74.5606 32.693 74.9053 32.2621C75.25 31.8246 75.4256 31.3142 75.4323 30.7309C75.4256 30.2006 75.2699 29.7631 74.9649 29.4184C74.66 29.067 74.2324 28.7754 73.6823 28.5434C73.1387 28.3047 72.5023 28.0926 71.7732 27.907L69.4564 27.3104C67.7793 26.8795 66.4536 26.2266 65.4791 25.3516C64.5113 24.47 64.0274 23.3 64.0274 21.8417C64.0274 20.6419 64.3522 19.5912 65.0019 18.6897C65.6581 17.7882 66.5497 17.0888 67.6766 16.5917C68.8035 16.0879 70.0795 15.836 71.5047 15.836C72.9498 15.836 74.2159 16.0879 75.303 16.5917C76.3968 17.0888 77.2552 17.7815 77.8783 18.6698C78.5014 19.5514 78.8229 20.5656 78.8428 21.7124H75.2931Z" fill="#545459"/>
<path d="M86.3657 36.7863C85.3979 36.7863 84.5262 36.6139 83.7506 36.2692C82.9817 35.9179 82.3718 35.4008 81.9211 34.7181C81.477 34.0353 81.2549 33.1935 81.2549 32.1925C81.2549 31.3308 81.414 30.6182 81.7322 30.0547C82.0503 29.4913 82.4845 29.0405 83.0347 28.7025C83.5849 28.3644 84.2047 28.1092 84.8941 27.9368C85.5901 27.7579 86.3093 27.6286 87.0518 27.549C87.9467 27.4562 88.6725 27.3734 89.2293 27.3005C89.7861 27.2209 90.1905 27.1016 90.4424 26.9425C90.7009 26.7768 90.8302 26.5216 90.8302 26.1769V26.1172C90.8302 25.3682 90.6081 24.7882 90.164 24.3772C89.7198 23.9662 89.0802 23.7607 88.2449 23.7607C87.3633 23.7607 86.664 23.9529 86.1469 24.3374C85.6365 24.7219 85.2918 25.1759 85.1128 25.6996L81.752 25.2223C82.0172 24.2943 82.4547 23.5187 83.0645 22.8956C83.6744 22.2659 84.4201 21.7953 85.3018 21.4837C86.1834 21.1655 87.1578 21.0064 88.2251 21.0064C88.9609 21.0064 89.6933 21.0926 90.4225 21.265C91.1517 21.4373 91.8179 21.7223 92.4211 22.1201C93.0243 22.5112 93.5082 23.0448 93.8728 23.7209C94.244 24.3971 94.4296 25.2422 94.4296 26.2564V36.478H90.9694V34.38H90.8501C90.6313 34.8043 90.3231 35.202 89.9253 35.5732C89.5342 35.9378 89.0404 36.2328 88.4438 36.4581C87.8538 36.6769 87.1611 36.7863 86.3657 36.7863ZM87.3003 34.1414C88.0229 34.1414 88.6493 33.9989 89.1796 33.7138C89.7099 33.4222 90.1176 33.0377 90.4026 32.5604C90.6943 32.0831 90.8401 31.5628 90.8401 30.9993V29.1996C90.7274 29.2924 90.5352 29.3786 90.2634 29.4581C89.9983 29.5377 89.7 29.6073 89.3685 29.6669C89.0371 29.7266 88.709 29.7796 88.3841 29.826C88.0593 29.8724 87.7776 29.9122 87.539 29.9454C87.002 30.0183 86.5215 30.1376 86.0972 30.3033C85.673 30.469 85.3382 30.701 85.093 30.9993C84.8477 31.291 84.7251 31.6688 84.7251 32.1329C84.7251 32.7957 84.967 33.2962 85.4509 33.6343C85.9348 33.9723 86.5513 34.1414 87.3003 34.1414Z" fill="#545459"/>
<path d="M102.164 36.7863C101.196 36.7863 100.324 36.6139 99.5488 36.2692C98.7798 35.9179 98.17 35.4008 97.7192 34.7181C97.2751 34.0353 97.053 33.1935 97.053 32.1925C97.053 31.3308 97.2121 30.6182 97.5303 30.0547C97.8485 29.4913 98.2827 29.0405 98.8328 28.7025C99.383 28.3644 100.003 28.1092 100.692 27.9368C101.388 27.7579 102.107 27.6286 102.85 27.549C103.745 27.4562 104.471 27.3734 105.027 27.3005C105.584 27.2209 105.989 27.1016 106.241 26.9425C106.499 26.7768 106.628 26.5216 106.628 26.1769V26.1172C106.628 25.3682 106.406 24.7882 105.962 24.3772C105.518 23.9662 104.878 23.7607 104.043 23.7607C103.161 23.7607 102.462 23.9529 101.945 24.3374C101.435 24.7219 101.09 25.1759 100.911 25.6996L97.5502 25.2223C97.8153 24.2943 98.2528 23.5187 98.8627 22.8956C99.4725 22.2659 100.218 21.7953 101.1 21.4837C101.982 21.1655 102.956 21.0064 104.023 21.0064C104.759 21.0064 105.491 21.0926 106.221 21.265C106.95 21.4373 107.616 21.7223 108.219 22.1201C108.822 22.5112 109.306 23.0448 109.671 23.7209C110.042 24.3971 110.228 25.2422 110.228 26.2564V36.478H106.768V34.38H106.648C106.429 34.8043 106.121 35.202 105.723 35.5732C105.332 35.9378 104.839 36.2328 104.242 36.4581C103.652 36.6769 102.959 36.7863 102.164 36.7863ZM103.098 34.1414C103.821 34.1414 104.447 33.9989 104.978 33.7138C105.508 33.4222 105.916 33.0377 106.201 32.5604C106.492 32.0831 106.638 31.5628 106.638 30.9993V29.1996C106.526 29.2924 106.333 29.3786 106.062 29.4581C105.796 29.5377 105.498 29.6073 105.167 29.6669C104.835 29.7266 104.507 29.7796 104.182 29.826C103.857 29.8724 103.576 29.9122 103.337 29.9454C102.8 30.0183 102.32 30.1376 101.895 30.3033C101.471 30.469 101.136 30.701 100.891 30.9993C100.646 31.291 100.523 31.6688 100.523 32.1329C100.523 32.7957 100.765 33.2962 101.249 33.6343C101.733 33.9723 102.349 34.1414 103.098 34.1414Z" fill="#545459"/>
<path d="M125.638 25.2422L122.357 25.6002C122.264 25.2687 122.102 24.9572 121.87 24.6655C121.644 24.3739 121.339 24.1385 120.955 23.9596C120.57 23.7806 120.1 23.6911 119.543 23.6911C118.794 23.6911 118.164 23.8535 117.654 24.1783C117.15 24.5031 116.901 24.924 116.908 25.4411C116.901 25.8852 117.064 26.2465 117.395 26.5249C117.733 26.8033 118.29 27.032 119.066 27.211L121.671 27.7678C123.116 28.0794 124.19 28.5732 124.892 29.2493C125.602 29.9255 125.96 30.8104 125.966 31.9042C125.96 32.8653 125.678 33.7138 125.121 34.4496C124.571 35.1788 123.805 35.7489 122.824 36.1598C121.843 36.5708 120.716 36.7763 119.443 36.7763C117.574 36.7763 116.069 36.3852 114.929 35.603C113.789 34.8142 113.11 33.7171 112.891 32.3118L116.401 31.9738C116.56 32.6632 116.898 33.1835 117.415 33.5348C117.932 33.8862 118.605 34.0618 119.434 34.0618C120.289 34.0618 120.975 33.8862 121.492 33.5348C122.015 33.1835 122.277 32.7493 122.277 32.2323C122.277 31.7948 122.108 31.4335 121.77 31.1485C121.439 30.8634 120.922 30.6447 120.219 30.4922L117.614 29.9454C116.149 29.6404 115.065 29.1267 114.363 28.4042C113.66 27.675 113.312 26.7536 113.318 25.64C113.312 24.6987 113.567 23.8833 114.084 23.1939C114.608 22.4979 115.334 21.961 116.262 21.5831C117.196 21.1987 118.273 21.0064 119.493 21.0064C121.283 21.0064 122.692 21.3876 123.719 22.1499C124.753 22.9122 125.393 23.943 125.638 25.2422Z" fill="#545459"/>
<path d="M128.654 36.478V21.2053H132.254V36.478H128.654ZM130.464 19.0377C129.894 19.0377 129.403 18.8488 128.992 18.4709C128.581 18.0865 128.376 17.6258 128.376 17.0888C128.376 16.5453 128.581 16.0846 128.992 15.7067C129.403 15.3223 129.894 15.13 130.464 15.13C131.041 15.13 131.531 15.3223 131.935 15.7067C132.346 16.0846 132.552 16.5453 132.552 17.0888C132.552 17.6258 132.346 18.0865 131.935 18.4709C131.531 18.8488 131.041 19.0377 130.464 19.0377Z" fill="#545459"/>
<path d="M142.337 36.7763C140.845 36.7763 139.553 36.4482 138.459 35.7919C137.365 35.1357 136.517 34.2176 135.914 33.0377C135.317 31.8578 135.019 30.479 135.019 28.9013C135.019 27.3237 135.317 25.9416 135.914 24.755C136.517 23.5685 137.365 22.6471 138.459 21.9908C139.553 21.3346 140.845 21.0064 142.337 21.0064C143.828 21.0064 145.121 21.3346 146.215 21.9908C147.309 22.6471 148.154 23.5685 148.75 24.755C149.354 25.9416 149.655 27.3237 149.655 28.9013C149.655 30.479 149.354 31.8578 148.75 33.0377C148.154 34.2176 147.309 35.1357 146.215 35.7919C145.121 36.4482 143.828 36.7763 142.337 36.7763ZM142.357 33.8928C143.166 33.8928 143.842 33.6707 144.385 33.2266C144.929 32.7759 145.333 32.1726 145.598 31.4169C145.87 30.6613 146.006 29.8194 146.006 28.8914C146.006 27.9567 145.87 27.1115 145.598 26.3559C145.333 25.5936 144.929 24.987 144.385 24.5363C143.842 24.0855 143.166 23.8601 142.357 23.8601C141.528 23.8601 140.839 24.0855 140.289 24.5363C139.745 24.987 139.337 25.5936 139.066 26.3559C138.8 27.1115 138.668 27.9567 138.668 28.8914C138.668 29.8194 138.8 30.6613 139.066 31.4169C139.337 32.1726 139.745 32.7759 140.289 33.2266C140.839 33.6707 141.528 33.8928 142.357 33.8928Z" fill="#545459"/>
</svg>
