<svg width="217" height="48" viewBox="0 0 217 48" fill="none" xmlns="http://www.w3.org/2000/svg">
<path d="M50.9788 18.3426H31.6708L25.7272 0L19.7484 18.3426L0.44043 18.3075L16.0556 29.6574L10.0768 48L25.692 36.6501L41.3072 48L35.3636 29.6574L50.9788 18.3426Z" fill="#00B67A"/>
<path d="M36.7004 33.8105L35.3639 29.6641L25.7275 36.6567L36.7004 33.8105Z" fill="#005128"/>
<path d="M61.0059 14.5828H82.3537V18.5535H73.9482V40.9371H69.341V18.5535H60.9707L61.0059 14.5828ZM81.4393 21.8565H85.3782V25.5462H85.4486C85.5893 25.0191 85.8354 24.5271 86.1871 24.0352C86.5388 23.5432 86.9609 23.0864 87.4884 22.6999C87.9808 22.2782 88.5435 21.962 89.1765 21.716C89.7744 21.47 90.4075 21.3295 91.0405 21.3295C91.5329 21.3295 91.8846 21.3646 92.0604 21.3646C92.2363 21.3997 92.4473 21.4349 92.6231 21.4349V25.4759C92.3418 25.4056 92.0253 25.3705 91.7087 25.3353C91.3922 25.3002 91.1108 25.265 90.7943 25.265C90.0909 25.265 89.4227 25.4056 88.7897 25.6867C88.1566 25.9678 87.6291 26.3895 87.1367 26.9166C86.6795 27.4788 86.2926 28.1464 86.0113 28.9546C85.7299 29.7628 85.5893 30.7116 85.5893 31.7658V40.8317H81.3689L81.4393 21.8565ZM111.966 40.9371H107.816V38.2665H107.746C107.218 39.2504 106.445 39.9883 105.425 40.5857C104.405 41.1831 103.35 41.4642 102.295 41.4642C99.7977 41.4642 97.9689 40.8668 96.8435 39.6018C95.718 38.3719 95.1553 36.4744 95.1553 33.9795V21.8565H99.3756V33.5579C99.3756 35.2445 99.6922 36.4393 100.36 37.1069C100.993 37.8097 101.908 38.1611 103.068 38.1611C103.948 38.1611 104.686 38.0205 105.284 37.7394C105.882 37.4583 106.374 37.1069 106.726 36.6501C107.113 36.1933 107.359 35.6311 107.535 34.9986C107.711 34.3661 107.781 33.6633 107.781 32.9254V21.8565H112.001V40.9371H111.966ZM119.141 34.8229C119.282 36.0527 119.739 36.8961 120.548 37.4232C121.357 37.9151 122.341 38.1611 123.467 38.1611C123.854 38.1611 124.311 38.1259 124.803 38.0557C125.295 37.9854 125.788 37.88 126.21 37.7043C126.667 37.5286 127.019 37.2826 127.3 36.9312C127.581 36.5798 127.722 36.1582 127.687 35.6311C127.652 35.104 127.476 34.6472 127.089 34.2958C126.702 33.9444 126.245 33.6984 125.682 33.4524C125.12 33.2416 124.451 33.0659 123.713 32.9254C122.974 32.7848 122.236 32.6091 121.462 32.4334C120.688 32.2577 119.915 32.0469 119.176 31.8009C118.437 31.5549 117.804 31.2387 117.207 30.7819C116.644 30.3602 116.151 29.8331 115.835 29.1655C115.483 28.4978 115.307 27.7248 115.307 26.7409C115.307 25.6867 115.554 24.8434 116.081 24.1406C116.573 23.4378 117.242 22.8756 118.015 22.4539C118.789 22.0322 119.668 21.716 120.618 21.5403C121.568 21.3646 122.482 21.2943 123.326 21.2943C124.311 21.2943 125.26 21.3997 126.14 21.6106C127.019 21.8214 127.863 22.1377 128.566 22.6296C129.305 23.0864 129.903 23.7189 130.36 24.4568C130.852 25.1948 131.134 26.1084 131.274 27.1626H126.878C126.667 26.1435 126.21 25.4759 125.506 25.1245C124.768 24.7731 123.959 24.5974 123.009 24.5974C122.728 24.5974 122.341 24.6325 121.954 24.6677C121.532 24.738 121.181 24.8082 120.794 24.9488C120.442 25.0894 120.126 25.3002 119.879 25.5462C119.633 25.7921 119.493 26.1435 119.493 26.5652C119.493 27.0923 119.668 27.4788 120.02 27.7951C120.372 28.1113 120.829 28.3573 121.427 28.6033C121.99 28.8141 122.658 28.9898 123.396 29.1303C124.135 29.2709 124.909 29.4466 125.682 29.6223C126.456 29.798 127.195 30.0088 127.933 30.2548C128.672 30.5008 129.34 30.817 129.903 31.2738C130.465 31.6955 130.958 32.2226 131.309 32.8551C131.661 33.4876 131.837 34.2958 131.837 35.2094C131.837 36.3339 131.591 37.2826 131.063 38.0908C130.536 38.8639 129.867 39.5315 129.059 40.0235C128.25 40.5154 127.3 40.8668 126.315 41.1128C125.295 41.3236 124.311 41.4642 123.326 41.4642C122.13 41.4642 121.005 41.3236 119.985 41.0425C118.965 40.7614 118.051 40.3397 117.312 39.8126C116.573 39.2504 115.976 38.5828 115.554 37.7394C115.132 36.9312 114.885 35.9473 114.85 34.7877H119.106V34.8229H119.141ZM133.033 21.8565H136.233V16.0937H140.453V21.8214H144.252V24.9488H140.453V35.1391C140.453 35.5959 140.489 35.9473 140.524 36.2987C140.559 36.615 140.664 36.8961 140.77 37.1069C140.911 37.3177 141.122 37.4934 141.368 37.5989C141.649 37.7043 142.001 37.7746 142.493 37.7746C142.775 37.7746 143.091 37.7746 143.373 37.7394C143.654 37.7043 143.97 37.6691 144.252 37.5989V40.8668C143.795 40.9371 143.337 40.9722 142.88 41.0074C142.423 41.0776 142.001 41.0776 141.509 41.0776C140.383 41.0776 139.504 40.9722 138.836 40.7614C138.167 40.5505 137.64 40.2343 137.253 39.8478C136.866 39.4261 136.62 38.9341 136.479 38.3368C136.339 37.7394 136.268 37.0015 136.233 36.2284V24.9839H133.033V21.7863V21.8565ZM147.206 21.8565H151.18V24.4568H151.25C151.848 23.3324 152.657 22.5593 153.712 22.0674C154.767 21.5754 155.893 21.3295 157.159 21.3295C158.671 21.3295 159.972 21.5754 161.098 22.1377C162.223 22.6648 163.138 23.3675 163.876 24.3163C164.615 25.2299 165.178 26.3192 165.529 27.5491C165.881 28.779 166.092 30.1142 166.092 31.4847C166.092 32.7848 165.916 34.0147 165.6 35.2094C165.248 36.4041 164.755 37.4934 164.087 38.4071C163.419 39.3207 162.575 40.0586 161.52 40.6208C160.465 41.183 159.269 41.4642 157.862 41.4642C157.264 41.4642 156.631 41.3939 156.033 41.2885C155.436 41.1831 154.838 41.0074 154.275 40.7614C153.712 40.5154 153.185 40.1992 152.728 39.8126C152.235 39.4261 151.848 38.9693 151.532 38.4773H151.461V48H147.241V21.8565H147.206ZM161.942 31.4144C161.942 30.571 161.836 29.7277 161.59 28.9195C161.379 28.1113 161.028 27.4085 160.57 26.776C160.113 26.1435 159.55 25.6516 158.917 25.265C158.249 24.8785 157.475 24.7028 156.631 24.7028C154.873 24.7028 153.536 25.3002 152.622 26.5301C151.743 27.7599 151.286 29.4115 151.286 31.4495C151.286 32.4334 151.391 33.3119 151.637 34.1201C151.884 34.9283 152.2 35.6311 152.692 36.2284C153.15 36.8258 153.712 37.2826 154.381 37.634C155.049 37.9854 155.787 38.1611 156.667 38.1611C157.651 38.1611 158.425 37.9503 159.093 37.5637C159.761 37.1772 160.289 36.6501 160.746 36.0527C161.168 35.4202 161.485 34.7175 161.661 33.9093C161.836 33.0659 161.942 32.2577 161.942 31.4144ZM169.363 14.5828H173.583V18.5535H169.363V14.5828ZM169.363 21.8565H173.583V40.9371H169.363V21.8565ZM177.346 14.5828H181.566V40.9371H177.346V14.5828ZM194.438 41.4642C192.926 41.4642 191.555 41.2182 190.359 40.6911C189.163 40.164 188.178 39.4964 187.334 38.6179C186.525 37.7394 185.892 36.6501 185.47 35.4202C185.048 34.1904 184.802 32.8199 184.802 31.3792C184.802 29.9385 185.013 28.6033 185.47 27.3734C185.892 26.1435 186.525 25.0893 187.334 24.1757C188.143 23.2973 189.163 22.5945 190.359 22.1025C191.555 21.6106 192.926 21.3295 194.438 21.3295C195.951 21.3295 197.322 21.5754 198.518 22.1025C199.714 22.5945 200.699 23.2973 201.543 24.1757C202.352 25.0542 202.985 26.1435 203.407 27.3734C203.829 28.6033 204.075 29.9385 204.075 31.3792C204.075 32.8551 203.864 34.1904 203.407 35.4202C202.949 36.6501 202.352 37.7043 201.543 38.6179C200.734 39.4964 199.714 40.1992 198.518 40.6911C197.322 41.183 195.986 41.4642 194.438 41.4642ZM194.438 38.126C195.353 38.126 196.197 37.9151 196.865 37.5286C197.569 37.1421 198.096 36.615 198.553 35.9825C199.01 35.35 199.327 34.612 199.538 33.839C199.749 33.0308 199.855 32.2226 199.855 31.3792C199.855 30.571 199.749 29.7628 199.538 28.9546C199.327 28.1464 199.01 27.4437 198.553 26.8112C198.096 26.1787 197.533 25.6867 196.865 25.3002C196.162 24.9137 195.353 24.7028 194.438 24.7028C193.524 24.7028 192.68 24.9137 192.012 25.3002C191.308 25.6867 190.781 26.2138 190.324 26.8112C189.866 27.4437 189.55 28.1464 189.339 28.9546C189.128 29.7628 189.022 30.571 189.022 31.3792C189.022 32.2226 189.128 33.0308 189.339 33.839C189.55 34.6472 189.866 35.35 190.324 35.9825C190.781 36.615 191.344 37.1421 192.012 37.5286C192.715 37.9503 193.524 38.126 194.438 38.126ZM205.341 21.8565H208.541V16.0937H212.762V21.8214H216.56V24.9488H212.762V35.1391C212.762 35.5959 212.797 35.9473 212.832 36.2987C212.867 36.615 212.973 36.8961 213.078 37.1069C213.219 37.3177 213.43 37.4934 213.676 37.5989C213.957 37.7043 214.309 37.7746 214.802 37.7746C215.083 37.7746 215.399 37.7746 215.681 37.7394C215.962 37.7043 216.279 37.6691 216.56 37.5989V40.8668C216.103 40.9371 215.646 40.9722 215.188 41.0074C214.731 41.0776 214.309 41.0776 213.817 41.0776C212.691 41.0776 211.812 40.9722 211.144 40.7614C210.476 40.5505 209.948 40.2343 209.561 39.8478C209.174 39.4261 208.928 38.9341 208.788 38.3368C208.647 37.7394 208.577 37.0015 208.541 36.2284V24.9839H205.341V21.7863V21.8565Z" fill="#808085"/>
</svg>
