<svg width="32" height="33" viewBox="0 0 32 33" fill="none" xmlns="http://www.w3.org/2000/svg">
<path d="M30 16.0723C30 23.8003 23.735 30.0723 16 30.0723C8.265 30.0723 2 23.8003 2 16.0723C2 8.33726 8.265 2.07227 16 2.07227C23.735 2.07227 30 8.33726 30 16.0723Z" fill="#283544"/>
<path d="M22.5621 12.5297C22.4857 12.5742 20.6671 13.5147 20.6671 15.6001C20.7528 17.9784 22.9621 18.8124 23 18.8124C22.9621 18.857 22.6665 19.9485 21.7907 21.0928C21.0956 22.0785 20.3242 23.0723 19.1528 23.0723C18.0385 23.0723 17.6385 22.4153 16.3528 22.4153C14.972 22.4153 14.5813 23.0723 13.5242 23.0723C12.3528 23.0723 11.5242 22.0252 10.7913 21.0488C9.8391 19.7709 9.02978 17.7654 9.00121 15.8397C8.98195 14.8193 9.19189 13.8163 9.72481 12.9643C10.477 11.7749 11.8198 10.9675 13.2863 10.9409C14.4099 10.9056 15.4099 11.6597 16.0956 11.6597C16.7528 11.6597 17.9814 10.9409 19.3714 10.9409C19.9714 10.9415 21.5714 11.1099 22.5621 12.5297ZM16.0006 10.7371C15.8006 9.8053 16.3528 8.87345 16.8671 8.27904C17.5242 7.56018 18.5621 7.07227 19.4571 7.07227C19.5143 8.00411 19.1522 8.91802 18.505 9.58362C17.9242 10.3025 16.9242 10.8436 16.0006 10.7371Z" fill="white"/>
</svg>
