<svg width="20" height="20" viewBox="0 0 20 20" fill="none" xmlns="http://www.w3.org/2000/svg">
<path fill-rule="evenodd" clip-rule="evenodd" d="M6.75426 6.32114L9.60801 0.256419C9.68066 0.0996009 9.83267 0 9.99935 0C9.99956 0 9.99978 1.6979e-07 10 5.09277e-07V16.8L9.99935 16.7996L4.29316 19.9461C4.14545 20.0274 3.9664 20.0138 3.83148 19.911C3.69656 19.8083 3.62923 19.6343 3.65788 19.4624L4.74755 12.7968L0.132335 8.07711C0.0464296 7.98933 8.2016e-05 7.8704 -1.90735e-06 7.74874C-1.90735e-06 7.74852 -1.90735e-06 7.7483 -1.90735e-06 7.74808C3.05176e-05 7.70086 0.00703239 7.65324 0.0213957 7.60687C0.0728369 7.44082 0.209818 7.31957 0.374965 7.2939L6.75426 6.32114Z" fill="#F3B814"/>
<path fill-rule="evenodd" clip-rule="evenodd" d="M13.2457 6.32115L10.392 0.256421C10.3193 0.0996028 10.1673 0 10.0007 0C10.0004 0 10.0002 1.69546e-07 10 5.08543e-07V16.8L10.0007 16.7996L15.7068 19.9461C15.8545 20.0273 16.0336 20.0138 16.1685 19.911C16.3034 19.8083 16.3708 19.6343 16.3421 19.4624L15.2524 12.7968L19.8677 8.07711C19.9871 7.9551 20.03 7.77292 19.9786 7.60687C19.9272 7.44082 19.7902 7.31957 19.625 7.2939L13.2457 6.32115Z" fill="#545459"/>
</svg>
