<svg width="18" height="17" viewBox="0 0 18 17" fill="none" xmlns="http://www.w3.org/2000/svg">
<g id="elements">
<path id="Vector" d="M2.83322 8.22239C2.1222 6.9826 1.77889 5.97023 1.57188 4.94403C1.26572 3.42631 1.96636 1.94373 3.12704 0.99773C3.61759 0.597912 4.17992 0.734514 4.47 1.25492L5.12489 2.42981C5.64397 3.36105 5.90351 3.82667 5.85203 4.32032C5.80055 4.81397 5.45053 5.21602 4.75048 6.02013L2.83322 8.22239ZM2.83322 8.22239C4.27238 10.7318 6.53088 12.9916 9.04323 14.4324M9.04323 14.4324C10.283 15.1434 11.2954 15.4867 12.3216 15.6937C13.8393 15.9999 15.3219 15.2993 16.2679 14.1386C16.6677 13.648 16.5311 13.0857 16.0107 12.7956L14.8358 12.1407C13.9046 11.6217 13.439 11.3621 12.9453 11.4136C12.4517 11.4651 12.0496 11.8151 11.2455 12.5151L9.04323 14.4324Z" stroke="#5E75F0" stroke-width="1.2" stroke-linejoin="round"/>
<path id="Vector_2" d="M10.5 4.38951C11.5674 4.8428 12.4228 5.6982 12.8761 6.76563M10.9905 0.765625C13.6434 1.53119 15.7343 3.62202 16.5 6.27485" stroke="#5E75F0" stroke-width="1.2" stroke-linecap="round"/>
</g>
</svg>
