<svg width="57" height="57" viewBox="0 0 57 57" fill="none" xmlns="http://www.w3.org/2000/svg">
<rect x="0.859375" y="0.953125" width="56" height="56" rx="8" fill="#0C0C0C"/>
<path d="M25.2863 30.6598H29.4063V40.2598C29.4063 41.6731 31.1663 42.3398 32.0996 41.2731L42.193 29.8064C43.073 28.8064 42.3663 27.2464 41.033 27.2464H36.913V17.6464C36.913 16.2331 35.153 15.5664 34.2196 16.6331L24.1263 28.0998C23.2596 29.0998 23.9663 30.6598 25.2863 30.6598Z" fill="#F3B814"/>
<path d="M24.1927 19.2864H14.8594C14.3127 19.2864 13.8594 18.833 13.8594 18.2864C13.8594 17.7397 14.3127 17.2864 14.8594 17.2864H24.1927C24.7394 17.2864 25.1927 17.7397 25.1927 18.2864C25.1927 18.833 24.7394 19.2864 24.1927 19.2864Z" fill="#F3B814"/>
<path d="M22.8594 40.6199H14.8594C14.3127 40.6199 13.8594 40.1665 13.8594 39.6199C13.8594 39.0732 14.3127 38.6199 14.8594 38.6199H22.8594C23.406 38.6199 23.8594 39.0732 23.8594 39.6199C23.8594 40.1665 23.406 40.6199 22.8594 40.6199Z" fill="#F3B814"/>
<path d="M18.8594 29.9531H14.8594C14.3127 29.9531 13.8594 29.4998 13.8594 28.9531C13.8594 28.4065 14.3127 27.9531 14.8594 27.9531H18.8594C19.406 27.9531 19.8594 28.4065 19.8594 28.9531C19.8594 29.4998 19.406 29.9531 18.8594 29.9531Z" fill="#F3B814"/>
</svg>
