<svg width="57" height="57" viewBox="0 0 57 57" fill="none" xmlns="http://www.w3.org/2000/svg">
<rect x="0.859375" y="0.953125" width="56" height="56" rx="8" fill="#0C0C0C"/>
<path d="M29.7634 39.5624C30.1297 39.6476 30.1633 40.1274 29.8065 40.2464L27.6998 40.9397C22.4065 42.6464 19.6198 41.2197 17.8998 35.9264L16.1932 30.6597C14.4865 25.3664 15.8998 22.5664 21.1932 20.8597L22.2305 20.5162C22.6334 20.3827 23.021 20.7851 22.8986 21.1915C22.7866 21.5634 22.6815 21.9595 22.5798 22.3797L21.2732 27.9664C19.8065 34.2464 21.9532 37.713 28.2332 39.2064L29.7634 39.5624Z" fill="#25C679"/>
<path d="M35.7523 17.2331L33.5256 16.7131C29.0723 15.6597 26.419 16.5264 24.859 19.7531C24.459 20.5664 24.139 21.5531 23.8723 22.6864L22.5656 28.2731C21.259 33.8464 22.979 36.5931 28.539 37.9131L30.779 38.4464C31.5523 38.6331 32.2723 38.7531 32.939 38.8064C37.099 39.2064 39.3123 37.2597 40.4323 32.4464L41.739 26.8731C43.0456 21.2997 41.339 18.5397 35.7523 17.2331ZM33.2456 30.7264C33.1256 31.1797 32.7256 31.4731 32.2723 31.4731C32.1923 31.4731 32.1123 31.4597 32.019 31.4464L28.139 30.4597C27.6056 30.3264 27.2856 29.7797 27.419 29.2464C27.5523 28.7131 28.099 28.3931 28.6323 28.5264L32.5123 29.5131C33.059 29.6464 33.379 30.1931 33.2456 30.7264ZM37.1523 26.2197C37.0323 26.6731 36.6323 26.9664 36.179 26.9664C36.099 26.9664 36.019 26.9531 35.9256 26.9397L29.459 25.2997C28.9256 25.1664 28.6056 24.6197 28.739 24.0864C28.8723 23.5531 29.419 23.2331 29.9523 23.3664L36.419 25.0064C36.9656 25.1264 37.2856 25.6731 37.1523 26.2197Z" fill="#25C679"/>
</svg>
