<svg width="56" height="57" viewBox="0 0 56 57" fill="none" xmlns="http://www.w3.org/2000/svg">
<rect x="0.4" y="0.657813" width="55.2" height="55.2" rx="7.6" fill="#19191A"/>
<rect x="0.4" y="0.657813" width="55.2" height="55.2" rx="7.6" stroke="#545459" stroke-width="0.8"/>
<path d="M24.4269 29.9644H28.5469V39.5644C28.5469 40.9778 30.3069 41.6444 31.2402 40.5778L41.3336 29.1111C42.2136 28.1111 41.5069 26.5511 40.1736 26.5511H36.0536V16.9511C36.0536 15.5378 34.2936 14.8711 33.3602 15.9378L23.2669 27.4044C22.4002 28.4044 23.1069 29.9644 24.4269 29.9644Z" fill="#5E75F0"/>
<path d="M23.3333 18.5912H14C13.4533 18.5912 13 18.1379 13 17.5912C13 17.0445 13.4533 16.5912 14 16.5912H23.3333C23.88 16.5912 24.3333 17.0445 24.3333 17.5912C24.3333 18.1379 23.88 18.5912 23.3333 18.5912Z" fill="#5E75F0"/>
<path d="M22 39.9244H14C13.4533 39.9244 13 39.4711 13 38.9244C13 38.3778 13.4533 37.9244 14 37.9244H22C22.5467 37.9244 23 38.3778 23 38.9244C23 39.4711 22.5467 39.9244 22 39.9244Z" fill="#5E75F0"/>
<path d="M18 29.2578H14C13.4533 29.2578 13 28.8045 13 28.2578C13 27.7111 13.4533 27.2578 14 27.2578H18C18.5467 27.2578 19 27.7111 19 28.2578C19 28.8045 18.5467 29.2578 18 29.2578Z" fill="#5E75F0"/>
</svg>
