<svg width="56" height="57" viewBox="0 0 56 57" fill="none" xmlns="http://www.w3.org/2000/svg">
<rect x="0.4" y="0.657813" width="55.2" height="55.2" rx="7.6" fill="#19191A"/>
<rect x="0.4" y="0.657813" width="55.2" height="55.2" rx="7.6" stroke="#545459" stroke-width="0.8"/>
<path d="M28.904 38.8672C29.2704 38.9524 29.3039 39.4322 28.9471 39.5512L26.8405 40.2445C21.5471 41.9512 18.7605 40.5245 17.0405 35.2312L15.3338 29.9645C13.6271 24.6712 15.0405 21.8712 20.3338 20.1645L21.3711 19.821C21.774 19.6875 22.1617 20.0899 22.0393 20.4963C21.9272 20.8682 21.8221 21.2643 21.7205 21.6845L20.4138 27.2712C18.9471 33.5512 21.0938 37.0178 27.3738 38.5112L28.904 38.8672Z" fill="#F3B814"/>
<path d="M34.8929 16.5379L32.6663 16.0179C28.2129 14.9645 25.5596 15.8312 23.9996 19.0579C23.5996 19.8712 23.2796 20.8579 23.0129 21.9912L21.7063 27.5779C20.3996 33.1512 22.1196 35.8979 27.6796 37.2179L29.9196 37.7512C30.6929 37.9379 31.4129 38.0579 32.0796 38.1112C36.2396 38.5112 38.4529 36.5645 39.5729 31.7512L40.8796 26.1779C42.1863 20.6045 40.4796 17.8445 34.8929 16.5379ZM32.3863 30.0312C32.2663 30.4845 31.8663 30.7779 31.4129 30.7779C31.3329 30.7779 31.2529 30.7645 31.1596 30.7512L27.2796 29.7645C26.7463 29.6312 26.4263 29.0845 26.5596 28.5512C26.6929 28.0179 27.2396 27.6979 27.7729 27.8312L31.6529 28.8179C32.1996 28.9512 32.5196 29.4979 32.3863 30.0312ZM36.2929 25.5245C36.1729 25.9779 35.7729 26.2712 35.3196 26.2712C35.2396 26.2712 35.1596 26.2579 35.0663 26.2445L28.5996 24.6045C28.0663 24.4712 27.7463 23.9245 27.8796 23.3912C28.0129 22.8579 28.5596 22.5379 29.0929 22.6712L35.5596 24.3112C36.1063 24.4312 36.4263 24.9779 36.2929 25.5245Z" fill="#F3B814"/>
</svg>
