<svg width="25" height="24" viewBox="0 0 25 24" fill="none" xmlns="http://www.w3.org/2000/svg">
<path d="M2.96875 6C2.96875 4.11438 2.96875 3.17157 3.55454 2.58579C4.14032 2 5.08313 2 6.96875 2C8.85437 2 9.79718 2 10.383 2.58579C10.9688 3.17157 10.9688 4.11438 10.9688 6V8C10.9688 9.88562 10.9688 10.8284 10.383 11.4142C9.79718 12 8.85437 12 6.96875 12C5.08313 12 4.14032 12 3.55454 11.4142C2.96875 10.8284 2.96875 9.88562 2.96875 8V6Z" stroke="white" stroke-width="1.5"/>
<path d="M2.96875 19C2.96875 18.0681 2.96875 17.6022 3.12099 17.2346C3.32398 16.7446 3.71333 16.3552 4.20338 16.1522C4.57093 16 5.03687 16 5.96875 16H7.96875C8.90063 16 9.36657 16 9.73412 16.1522C10.2242 16.3552 10.6135 16.7446 10.8165 17.2346C10.9688 17.6022 10.9688 18.0681 10.9688 19C10.9688 19.9319 10.9688 20.3978 10.8165 20.7654C10.6135 21.2554 10.2242 21.6448 9.73412 21.8478C9.36657 22 8.90063 22 7.96875 22H5.96875C5.03687 22 4.57093 22 4.20338 21.8478C3.71333 21.6448 3.32398 21.2554 3.12099 20.7654C2.96875 20.3978 2.96875 19.9319 2.96875 19Z" stroke="white" stroke-width="1.5"/>
<path d="M14.9688 16C14.9688 14.1144 14.9688 13.1716 15.5545 12.5858C16.1403 12 17.0831 12 18.9688 12C20.8544 12 21.7972 12 22.383 12.5858C22.9688 13.1716 22.9688 14.1144 22.9688 16V18C22.9688 19.8856 22.9688 20.8284 22.383 21.4142C21.7972 22 20.8544 22 18.9688 22C17.0831 22 16.1403 22 15.5545 21.4142C14.9688 20.8284 14.9688 19.8856 14.9688 18V16Z" stroke="white" stroke-width="1.5"/>
<path d="M14.9688 5C14.9688 4.06812 14.9688 3.60218 15.121 3.23463C15.324 2.74458 15.7133 2.35523 16.2034 2.15224C16.5709 2 17.0369 2 17.9688 2H19.9688C20.9006 2 21.3666 2 21.7341 2.15224C22.2242 2.35523 22.6135 2.74458 22.8165 3.23463C22.9688 3.60218 22.9688 4.06812 22.9688 5C22.9688 5.93188 22.9688 6.39782 22.8165 6.76537C22.6135 7.25542 22.2242 7.64477 21.7341 7.84776C21.3666 8 20.9006 8 19.9688 8H17.9688C17.0369 8 16.5709 8 16.2034 7.84776C15.7133 7.64477 15.324 7.25542 15.121 6.76537C14.9688 6.39782 14.9688 5.93188 14.9688 5Z" stroke="white" stroke-width="1.5"/>
</svg>
