<svg width="73" height="73" viewBox="0 0 73 73" fill="none" xmlns="http://www.w3.org/2000/svg">
<rect x="0.907813" y="1.02634" width="71.2" height="71.2" rx="35.6" fill="#19191A"/>
<rect x="0.907813" y="1.02634" width="71.2" height="71.2" rx="35.6" stroke="#545459" stroke-width="0.8"/>
<ellipse cx="34.5078" cy="22.6263" rx="16" ry="6" stroke="white" stroke-width="1.5"/>
<path d="M24.5078 34.3099C25.711 34.6716 27.0565 34.9695 28.5078 35.1898" stroke="white" stroke-width="1.5" stroke-linecap="round"/>
<path d="M18.5078 36.6263C18.5078 39.6861 24.6152 42.2108 32.5078 42.5799" stroke="white" stroke-width="1.5" stroke-linecap="round"/>
<path d="M24.5078 48.3099C25.711 48.6716 27.0565 48.9695 28.5078 49.1898" stroke="white" stroke-width="1.5" stroke-linecap="round"/>
<path d="M34.5078 56.6263C25.6713 56.6263 18.5078 53.9401 18.5078 50.6263V22.6263M50.5078 22.6263V34.6263" stroke="white" stroke-width="1.5" stroke-linecap="round" stroke-linejoin="round"/>
<path d="M46.5078 54.0549V56.6263M46.5078 54.0549C44.1942 54.0549 42.1559 52.9185 40.9604 51.193M46.5078 54.0549C48.8214 54.0549 50.8597 52.9185 52.0552 51.193M46.5078 41.1978C48.8215 41.1978 50.86 42.3344 52.0554 44.0601M46.5078 41.1978C44.1941 41.1978 42.1556 42.3344 40.9602 44.0601M46.5078 41.1978V38.6263M54.5078 42.4835L52.0554 44.0601M38.5087 52.7692L40.9604 51.193M38.5078 42.4835L40.9602 44.0601M54.507 52.7692L52.0552 51.193M52.0554 44.0601C52.7623 45.0806 53.1745 46.307 53.1745 47.6263C53.1745 48.9458 52.7622 50.1724 52.0552 51.193M40.9602 44.0601C40.2533 45.0806 39.8411 46.307 39.8411 47.6263C39.8411 48.9458 40.2534 50.1724 40.9604 51.193" stroke="white" stroke-width="1.5" stroke-linecap="round"/>
</svg>
