<svg width="72" height="72" viewBox="0 0 72 72" fill="none" xmlns="http://www.w3.org/2000/svg">
<rect x="0.5" y="0.5" width="71" height="71" rx="35.5" fill="#0C0C0C"/>
<rect x="0.5" y="0.5" width="71" height="71" rx="35.5" stroke="#36363A"/>
<path d="M18.5 30.5C18.5 26.2996 18.5 24.1994 19.3175 22.5951C20.0365 21.1839 21.1839 20.0365 22.5951 19.3175C24.1994 18.5 26.2996 18.5 30.5 18.5H41.5C45.7004 18.5 47.8006 18.5 49.4049 19.3175C50.8161 20.0365 51.9635 21.1839 52.6825 22.5951C53.5 24.1994 53.5 26.2996 53.5 30.5V41.5C53.5 45.7004 53.5 47.8006 52.6825 49.4049C51.9635 50.8161 50.8161 51.9635 49.4049 52.6825C47.8006 53.5 45.7004 53.5 41.5 53.5H30.5C26.2996 53.5 24.1994 53.5 22.5951 52.6825C21.1839 51.9635 20.0365 50.8161 19.3175 49.4049C18.5 47.8006 18.5 45.7004 18.5 41.5V30.5Z" fill="url(#paint0_linear_11024_12710)"/>
<path d="M46.344 28.5333C44.4518 26.9333 42.1812 26.1333 39.7844 26L39.406 26.4C41.5505 26.9333 43.4427 28 45.2087 29.4667C43.0642 28.2667 40.6674 27.4667 38.1445 27.2C37.3876 27.0667 36.7569 27.0667 36 27.0667C35.2431 27.0667 34.6124 27.0667 33.8555 27.2C31.3326 27.4667 28.9358 28.2667 26.7913 29.4667C28.5573 28 30.4495 26.9333 32.594 26.4L32.2156 26C29.8188 26.1333 27.5482 26.9333 25.656 28.5333C23.5115 32.8 22.3761 37.6 22.25 42.5333C24.1422 44.6667 26.7913 46 29.5665 46C29.5665 46 30.4495 44.9333 31.0803 44C29.4404 43.6 27.9266 42.6667 26.9174 41.2C27.8005 41.7333 28.6835 42.2667 29.5665 42.6667C30.7018 43.2 31.8372 43.4667 32.9725 43.7333C33.9817 43.8667 34.9908 44 36 44C37.0092 44 38.0183 43.8667 39.0275 43.7333C40.1628 43.4667 41.2982 43.2 42.4335 42.6667C43.3165 42.2667 44.1995 41.7333 45.0826 41.2C44.0734 42.6667 42.5596 43.6 40.9197 44C41.5505 44.9333 42.4335 46 42.4335 46C45.2087 46 47.8578 44.6667 49.75 42.5333C49.6239 37.6 48.4885 32.8 46.344 28.5333ZM31.8372 40.1333C30.5757 40.1333 29.4404 38.9333 29.4404 37.4667C29.4404 36 30.5757 34.8 31.8372 34.8C33.0986 34.8 34.2339 36 34.2339 37.4667C34.2339 38.9333 33.0986 40.1333 31.8372 40.1333ZM40.1628 40.1333C38.9014 40.1333 37.7661 38.9333 37.7661 37.4667C37.7661 36 38.9014 34.8 40.1628 34.8C41.4243 34.8 42.5596 36 42.5596 37.4667C42.5596 38.9333 41.4243 40.1333 40.1628 40.1333Z" fill="white"/>
<defs>
<linearGradient id="paint0_linear_11024_12710" x1="36" y1="18.5" x2="36" y2="53.5" gradientUnits="userSpaceOnUse">
<stop stop-color="#687EC9"/>
<stop offset="1" stop-color="#5971C3"/>
</linearGradient>
</defs>
</svg>
