<svg width="18" height="19" viewBox="0 0 18 19" fill="none" xmlns="http://www.w3.org/2000/svg">
<path fill-rule="evenodd" clip-rule="evenodd" d="M3.33825 2.13592C2.98678 1.78445 2.41693 1.78445 2.06546 2.13592C1.71399 2.48739 1.71399 3.05724 2.06546 3.40871L14.6655 16.0087C15.0169 16.3602 15.5868 16.3602 15.9383 16.0087C16.2897 15.6572 16.2897 15.0874 15.9383 14.7359L14.6124 13.4101C15.9962 12.3055 17.047 10.8013 17.59 9.07228C16.4432 5.42091 13.0319 2.77231 9.00205 2.77231C7.54084 2.77231 6.16096 3.12054 4.94087 3.73853L3.33825 2.13592ZM7.17317 5.97084L8.53567 7.33333C8.68442 7.29353 8.84078 7.27231 9.00208 7.27231C9.9962 7.27231 10.8021 8.0782 10.8021 9.07231C10.8021 9.23362 10.7809 9.38998 10.7411 9.53873L12.1036 10.9012C12.4203 10.3652 12.6021 9.74 12.6021 9.07231C12.6021 7.08409 10.9903 5.47231 9.00208 5.47231C8.3344 5.47231 7.70916 5.65408 7.17317 5.97084Z" fill="#ECECEC"/>
<path d="M11.2105 15.0994L8.77654 12.6654C6.96797 12.5536 5.52083 11.1064 5.40903 9.29785L2.10328 5.9921C1.35242 6.88732 0.772587 7.93083 0.414062 9.07235C1.56091 12.7237 4.97216 15.3723 9.00203 15.3723C9.76402 15.3723 10.5039 15.2776 11.2105 15.0994Z" fill="#ECECEC"/>
</svg>
