<svg width="64" height="65" viewBox="0 0 64 65" fill="none" xmlns="http://www.w3.org/2000/svg">
<rect y="0.421875" width="64" height="64" rx="32" fill="#19191A"/>
<path d="M21.0362 32.345C19.7721 30.1409 19.1618 28.3411 18.7938 26.5168C18.2495 23.8186 19.4951 21.1829 21.5585 19.5011C22.4306 18.7903 23.4303 19.0332 23.946 19.9584L25.1103 22.047C26.0331 23.7026 26.4945 24.5304 26.403 25.408C26.3114 26.2856 25.6892 27.0003 24.4446 28.4298L21.0362 32.345ZM21.0362 32.345C23.5947 36.8062 27.6098 40.8235 32.0762 43.385M32.0762 43.385C34.2803 44.649 36.08 45.2594 37.9044 45.6274C40.6026 46.1717 43.2383 44.9261 44.9201 42.8627C45.6308 41.9906 45.388 40.9909 44.4628 40.4752L42.3741 39.3109C40.7186 38.3881 39.8908 37.9267 39.0132 38.0182C38.1356 38.1097 37.4209 38.732 35.9913 39.9765L32.0762 43.385Z" stroke="white" stroke-width="1.5" stroke-linejoin="round"/>
<path d="M32 25.7551H33.1429C33.6816 25.7551 33.951 25.7551 34.1183 25.9178C34.2857 26.0806 34.2857 26.3425 34.2857 26.8662C34.2857 27.9138 34.2857 28.4376 33.951 28.763C33.6964 29.0105 33.3238 29.0698 32.686 29.084C32.3589 29.0913 32.1953 29.0949 32.0977 29.1921C32 29.2892 32 29.4445 32 29.7551V31.3107C32 31.8345 32 32.0964 32.1674 32.2591C32.3347 32.4218 32.6041 32.4218 33.1429 32.4218H34.2857M40 25.7551V29.0885M40 29.0885H38.0571C37.6261 29.0885 37.4106 29.0885 37.2768 28.9583C37.1429 28.8281 37.1429 28.6186 37.1429 28.1996V25.7551M40 29.0885V32.4218" stroke="white" stroke-width="1.5" stroke-linecap="round" stroke-linejoin="round"/>
<path d="M29.332 22.1621C29.4507 22.0287 29.574 21.8981 29.7019 21.7702C33.2775 18.1946 39.0747 18.1946 42.6503 21.7702C46.2259 25.3458 46.2259 31.1431 42.6503 34.7187C42.5225 34.8465 42.3918 34.9698 42.2585 35.0885" stroke="white" stroke-width="1.5" stroke-linecap="round"/>
</svg>
