<svg width="32" height="33" viewBox="0 0 32 33" fill="none" xmlns="http://www.w3.org/2000/svg">
<g id="vuesax/bold/frame">
<g id="frame">
<path id="Vector" d="M14.6663 27.1819V6.11519C14.6663 4.11519 13.813 3.31519 11.693 3.31519H6.30634C4.18634 3.31519 3.33301 4.11519 3.33301 6.11519V27.1819C3.33301 29.1819 4.18634 29.9819 6.30634 29.9819H11.693C13.813 29.9819 14.6663 29.1819 14.6663 27.1819Z" fill="#5E75F0"/>
<path id="Vector_2" d="M28.6663 26.835V21.1284C28.6663 19.395 27.333 17.9817 25.693 17.9817H20.3063C18.6663 17.9817 17.333 19.395 17.333 21.1284V26.835C17.333 28.5684 18.6663 29.9817 20.3063 29.9817H25.693C27.333 29.9817 28.6663 28.5684 28.6663 26.835Z" fill="#5E75F0"/>
<path id="Vector_3" d="M28.6663 12.1685V6.46185C28.6663 4.72852 27.333 3.31519 25.693 3.31519H20.3063C18.6663 3.31519 17.333 4.72852 17.333 6.46185V12.1685C17.333 13.9019 18.6663 15.3152 20.3063 15.3152H25.693C27.333 15.3152 28.6663 13.9019 28.6663 12.1685Z" fill="#5E75F0"/>
</g>
</g>
</svg>
