<svg width="60" height="61" viewBox="0 0 60 61" fill="none" xmlns="http://www.w3.org/2000/svg">
<rect y="0.421875" width="60" height="60" rx="30" fill="#19191A"/>
<path d="M18.334 23.4219C18.334 21.7884 18.334 20.9717 18.6519 20.3478C18.9315 19.799 19.3777 19.3528 19.9265 19.0731C20.5504 18.7552 21.3672 18.7552 23.0007 18.7552C24.6341 18.7552 25.4509 18.7552 26.0748 19.0731C26.6236 19.3528 27.0698 19.799 27.3494 20.3478C27.6673 20.9717 27.6673 21.7884 27.6673 23.4219C27.6673 25.0554 27.6673 25.8721 27.3494 26.4961C27.0698 27.0449 26.6236 27.4911 26.0748 27.7707C25.4509 28.0886 24.6341 28.0886 23.0007 28.0886C21.3672 28.0886 20.5504 28.0886 19.9265 27.7707C19.3777 27.4911 18.9315 27.0449 18.6519 26.4961C18.334 25.8721 18.334 25.0554 18.334 23.4219Z" stroke="white" stroke-width="1.5"/>
<path d="M18.334 37.4219C18.334 35.7884 18.334 34.9717 18.6519 34.3478C18.9315 33.799 19.3777 33.3528 19.9265 33.0731C20.5504 32.7552 21.3672 32.7552 23.0007 32.7552C24.6341 32.7552 25.4509 32.7552 26.0748 33.0731C26.6236 33.3528 27.0698 33.799 27.3494 34.3478C27.6673 34.9717 27.6673 35.7884 27.6673 37.4219C27.6673 39.0554 27.6673 39.8721 27.3494 40.4961C27.0698 41.0449 26.6236 41.4911 26.0748 41.7707C25.4509 42.0886 24.6341 42.0886 23.0007 42.0886C21.3672 42.0886 20.5504 42.0886 19.9265 41.7707C19.3777 41.4911 18.9315 41.0449 18.6519 40.4961C18.334 39.8721 18.334 39.0554 18.334 37.4219Z" stroke="white" stroke-width="1.5"/>
<path d="M32.334 37.4219C32.334 35.7884 32.334 34.9717 32.6519 34.3478C32.9315 33.799 33.3777 33.3528 33.9265 33.0731C34.5504 32.7552 35.3672 32.7552 37.0007 32.7552C38.6341 32.7552 39.4509 32.7552 40.0748 33.0731C40.6236 33.3528 41.0698 33.799 41.3494 34.3478C41.6673 34.9717 41.6673 35.7884 41.6673 37.4219C41.6673 39.0554 41.6673 39.8721 41.3494 40.4961C41.0698 41.0449 40.6236 41.4911 40.0748 41.7707C39.4509 42.0886 38.6341 42.0886 37.0007 42.0886C35.3672 42.0886 34.5504 42.0886 33.9265 41.7707C33.3777 41.4911 32.9315 41.0449 32.6519 40.4961C32.334 39.8721 32.334 39.0554 32.334 37.4219Z" stroke="white" stroke-width="1.5"/>
<path d="M33.9063 27.9203L33.7495 27.1868L33.9063 27.9203ZM32.5023 26.5162L33.2357 26.6731V26.6731L32.5023 26.5162ZM33.5248 23.5522L32.9944 23.0219L33.5248 23.5522ZM36.8703 26.8978L37.4006 27.4281L36.8703 26.8978ZM41.4296 20.4788L42.0791 20.1038V20.1038L41.4296 20.4788ZM40.7295 23.0387L40.1991 22.5083L40.7295 23.0387ZM41.4296 22.253L42.0791 22.628L41.4296 22.253ZM39.9438 18.993L40.3188 18.3434V18.3434L39.9438 18.993ZM37.3839 19.6931L37.9142 20.2234L37.3839 19.6931ZM38.1696 18.993L37.7946 18.3434V18.3434L38.1696 18.993ZM40.1991 22.5083L36.34 26.3675L37.4006 27.4281L41.2598 23.569L40.1991 22.5083ZM34.0551 24.0826L37.9142 20.2234L36.8536 19.1628L32.9944 23.0219L34.0551 24.0826ZM33.7495 27.1868C33.3227 27.2781 33.0857 27.3267 32.9247 27.337C32.7772 27.3464 32.8892 27.3081 33.0019 27.4207L31.9412 28.4814C32.2812 28.8214 32.7082 28.8538 33.0199 28.834C33.3183 28.815 33.685 28.7345 34.0631 28.6537L33.7495 27.1868ZM31.7689 26.3594C31.688 26.7376 31.6076 27.1043 31.5886 27.4026C31.5688 27.7144 31.6012 28.1413 31.9412 28.4814L33.0019 27.4207C33.1145 27.5333 33.0762 27.6454 33.0856 27.4978C33.0958 27.3368 33.1445 27.0999 33.2357 26.6731L31.7689 26.3594ZM40.1991 20.2234C40.6222 20.6465 40.7251 20.7585 40.7801 20.8538L42.0791 20.1038C41.9005 19.7944 41.6146 19.5175 41.2598 19.1628L40.1991 20.2234ZM41.2598 23.569C41.6146 23.2142 41.9005 22.9374 42.0791 22.628L40.7801 21.878C40.7251 21.9732 40.6222 22.0853 40.1991 22.5083L41.2598 23.569ZM40.7801 20.8538C40.9631 21.1707 40.9631 21.5611 40.7801 21.878L42.0791 22.628C42.53 21.847 42.53 20.8848 42.0791 20.1038L40.7801 20.8538ZM41.2598 19.1628C40.905 18.808 40.6282 18.522 40.3188 18.3434L39.5688 19.6425C39.664 19.6974 39.7761 19.8004 40.1991 20.2234L41.2598 19.1628ZM37.9142 20.2234C38.3373 19.8004 38.4493 19.6974 38.5446 19.6425L37.7946 18.3434C37.4852 18.522 37.2083 18.808 36.8536 19.1628L37.9142 20.2234ZM40.3188 18.3434C39.5378 17.8925 38.5756 17.8925 37.7946 18.3434L38.5446 19.6425C38.8615 19.4595 39.2519 19.4595 39.5688 19.6425L40.3188 18.3434ZM36.34 26.3675C36.0894 26.6181 35.7531 26.7732 35.2997 26.8889C35.0726 26.9469 34.8317 26.9914 34.5676 27.037C34.3124 27.0811 34.0256 27.1278 33.7495 27.1868L34.0631 28.6537C34.3017 28.6027 34.5465 28.5629 34.823 28.5151C35.0907 28.4689 35.3819 28.4161 35.6708 28.3423C36.2492 28.1946 36.8803 27.9485 37.4006 27.4281L36.34 26.3675ZM33.2357 26.6731C33.2948 26.3969 33.3415 26.1102 33.3856 25.855C33.4312 25.5908 33.4757 25.3499 33.5337 25.1229C33.6494 24.6695 33.8045 24.3332 34.0551 24.0826L32.9944 23.0219C32.4741 23.5423 32.228 24.1733 32.0803 24.7518C32.0065 25.0407 31.9537 25.3319 31.9075 25.5996C31.8597 25.8761 31.8199 26.1209 31.7689 26.3594L33.2357 26.6731Z" fill="white"/>
</svg>
