<svg width="60" height="61" viewBox="0 0 60 61" fill="none" xmlns="http://www.w3.org/2000/svg">
<rect y="0.421875" width="60" height="60" rx="30" fill="#19191A"/>
<path d="M29.9993 26.9219C28.7107 26.9219 27.666 27.7054 27.666 28.6719C27.666 29.6384 28.7107 30.4219 29.9993 30.4219C31.288 30.4219 32.3327 31.2054 32.3327 32.1719C32.3327 33.1384 31.288 33.9219 29.9993 33.9219M29.9993 26.9219C31.0153 26.9219 31.8796 27.4089 32.1999 28.0886M29.9993 26.9219V25.7552M29.9993 33.9219C28.9834 33.9219 28.1191 33.4349 27.7988 32.7552M29.9993 33.9219V35.0886" stroke="white" stroke-width="1.5" stroke-linecap="round"/>
<path d="M29.9973 18.7552C26.4882 18.7552 24.2129 21.1107 21.522 21.9693C20.4279 22.3184 19.8808 22.4929 19.6594 22.739C19.438 22.9851 19.3732 23.3446 19.2435 24.0637C17.856 31.7589 20.8887 38.8732 28.1214 41.6423C28.8985 41.9398 29.287 42.0886 30.0011 42.0886C30.7151 42.0886 31.1037 41.9398 31.8807 41.6423C39.1129 38.8732 42.1427 31.7589 40.7548 24.0637C40.6251 23.3445 40.5602 22.9849 40.3388 22.7388C40.1173 22.4928 39.5703 22.3183 38.4763 21.9694C35.7843 21.1109 33.5065 18.7552 29.9973 18.7552Z" stroke="white" stroke-width="1.5" stroke-linecap="round" stroke-linejoin="round"/>
</svg>
