<svg width="32" height="33" viewBox="0 0 32 33" fill="none" xmlns="http://www.w3.org/2000/svg">
<g id="vuesax/bold/flash-circle">
<g id="flash-circle">
<path id="Vector" d="M16.0003 3.31519C8.64033 3.31519 2.66699 9.28852 2.66699 16.6485C2.66699 24.0085 8.64033 29.9819 16.0003 29.9819C23.3603 29.9819 29.3337 24.0085 29.3337 16.6485C29.3337 9.28852 23.3603 3.31519 16.0003 3.31519ZM20.707 18.2885L13.8003 23.0752C12.787 23.7819 12.2003 23.3685 12.4937 22.1819L13.7603 17.0619L11.5603 16.5152C10.5603 16.2752 10.4403 15.5819 11.2803 14.9952L18.187 10.2085C19.2003 9.50185 19.787 9.91519 19.4937 11.1019L18.227 16.2219L20.427 16.7685C21.427 17.0219 21.547 17.7019 20.707 18.2885Z" fill="#5E75F0"/>
</g>
</g>
</svg>
