<svg width="57" height="57" viewBox="0 0 57 57" fill="none" xmlns="http://www.w3.org/2000/svg">
<rect x="0.907813" y="0.652625" width="55.2" height="55.2" rx="27.6" fill="#19191A"/>
<rect x="0.907813" y="0.652625" width="55.2" height="55.2" rx="27.6" stroke="#36363A" stroke-width="0.8"/>
<path d="M19.2824 32.6478C17.658 33.6306 13.399 35.6374 15.993 38.1486C17.2602 39.3753 18.6715 40.2526 20.4458 40.2526H30.5705C32.3448 40.2526 33.7561 39.3753 35.0232 38.1486C37.6172 35.6374 33.3583 33.6306 31.7339 32.6478C27.9248 30.3431 23.0915 30.3431 19.2824 32.6478Z" stroke="white" stroke-width="1.5" stroke-linecap="round" stroke-linejoin="round"/>
<path d="M30.5085 21.586C30.5085 24.5315 28.1206 26.9193 25.1751 26.9193C22.2296 26.9193 19.8418 24.5315 19.8418 21.586C19.8418 18.6404 22.2296 16.2526 25.1751 16.2526C28.1206 16.2526 30.5085 18.6404 30.5085 21.586Z" stroke="white" stroke-width="1.5"/>
<path d="M35.1748 18.9193L41.8415 18.9193" stroke="white" stroke-width="1.5" stroke-linecap="round" stroke-linejoin="round"/>
<path d="M35.1748 22.9193L41.8415 22.9193" stroke="white" stroke-width="1.5" stroke-linecap="round" stroke-linejoin="round"/>
<path d="M39.1748 26.9193L41.8415 26.9193" stroke="white" stroke-width="1.5" stroke-linecap="round" stroke-linejoin="round"/>
</svg>
