<svg width="32" height="33" viewBox="0 0 32 33" fill="none" xmlns="http://www.w3.org/2000/svg">
<path d="M20.7731 26.9151C17.9598 27.1151 17.9598 31.1951 20.7731 31.3951H27.4531C28.2664 31.3951 29.0398 31.1018 29.6398 30.5551C31.6131 28.8351 30.5598 25.3685 27.9598 25.0485C27.0264 19.4218 18.8798 21.5551 20.8131 26.9151" fill="#5E75F0"/>
<path d="M20.7731 26.9151C17.9598 27.1151 17.9598 31.1951 20.7731 31.3951H27.4531C28.2664 31.3951 29.0398 31.1018 29.6398 30.5551C31.6131 28.8351 30.5598 25.3685 27.9598 25.0485C27.0264 19.4218 18.8798 21.5551 20.8131 26.9151" fill="#5E75F0"/>
<path d="M29.3337 15.4085V21.1019C29.3337 21.5285 28.6537 21.7152 28.3603 21.4085C27.7337 20.7552 26.947 20.2619 26.0403 19.9819C23.947 19.3285 21.5337 19.9685 20.0137 21.5419C19.0537 22.5685 18.5337 23.8485 18.507 25.2352C18.507 25.4752 18.387 25.6885 18.2003 25.8352C17.2403 26.5952 16.6537 27.7819 16.6537 29.1419V29.1552C16.6537 29.5819 16.347 29.9685 15.9203 29.9685H9.78699C5.86699 29.9819 2.66699 26.7819 2.66699 22.8485V9.20852C2.66699 5.95519 5.30699 3.31519 8.56033 3.31519H11.6537C13.827 3.31519 14.507 4.02185 15.3737 5.18185L17.2403 7.66185C17.6537 8.20852 17.707 8.27519 18.4803 8.27519H22.2003C25.3737 8.27519 28.067 10.3552 28.987 13.2352C29.187 13.8352 29.2937 14.4485 29.3203 15.1019C29.3337 15.1952 29.3337 15.3152 29.3337 15.4085Z" fill="#5E75F0"/>
</svg>
