<svg width="65" height="65" viewBox="0 0 65 65" fill="none" xmlns="http://www.w3.org/2000/svg">
<rect x="0.907813" y="0.652625" width="63.2" height="63.2" rx="31.6" fill="#19191A"/>
<rect x="0.907813" y="0.652625" width="63.2" height="63.2" rx="31.6" stroke="#36363A" stroke-width="0.8"/>
<path d="M19.1748 24.2526C19.1748 22.3858 19.1748 21.4524 19.5381 20.7393C19.8577 20.1121 20.3676 19.6022 20.9948 19.2826C21.7079 18.9193 22.6413 18.9193 24.5081 18.9193C26.375 18.9193 27.3084 18.9193 28.0214 19.2826C28.6486 19.6022 29.1586 20.1121 29.4782 20.7393C29.8415 21.4524 29.8415 22.3858 29.8415 24.2526C29.8415 26.1195 29.8415 27.0529 29.4782 27.7659C29.1586 28.3931 28.6486 28.9031 28.0214 29.2227C27.3084 29.586 26.375 29.586 24.5081 29.586C22.6413 29.586 21.7079 29.586 20.9948 29.2227C20.3676 28.9031 19.8577 28.3931 19.5381 27.7659C19.1748 27.0529 19.1748 26.1195 19.1748 24.2526Z" stroke="white" stroke-width="1.5"/>
<path d="M19.1748 40.2526C19.1748 38.3858 19.1748 37.4524 19.5381 36.7393C19.8577 36.1121 20.3676 35.6022 20.9948 35.2826C21.7079 34.9193 22.6413 34.9193 24.5081 34.9193C26.375 34.9193 27.3084 34.9193 28.0214 35.2826C28.6486 35.6022 29.1586 36.1121 29.4782 36.7393C29.8415 37.4524 29.8415 38.3858 29.8415 40.2526C29.8415 42.1195 29.8415 43.0529 29.4782 43.7659C29.1586 44.3931 28.6486 44.9031 28.0214 45.2227C27.3084 45.586 26.375 45.586 24.5081 45.586C22.6413 45.586 21.7079 45.586 20.9948 45.2227C20.3676 44.9031 19.8577 44.3931 19.5381 43.7659C19.1748 43.0529 19.1748 42.1195 19.1748 40.2526Z" stroke="white" stroke-width="1.5"/>
<path d="M35.1748 40.2526C35.1748 38.3858 35.1748 37.4524 35.5381 36.7393C35.8577 36.1121 36.3676 35.6022 36.9948 35.2826C37.7079 34.9193 38.6413 34.9193 40.5081 34.9193C42.375 34.9193 43.3084 34.9193 44.0214 35.2826C44.6486 35.6022 45.1586 36.1121 45.4782 36.7393C45.8415 37.4524 45.8415 38.3858 45.8415 40.2526C45.8415 42.1195 45.8415 43.0529 45.4782 43.7659C45.1586 44.3931 44.6486 44.9031 44.0214 45.2227C43.3084 45.586 42.375 45.586 40.5081 45.586C38.6413 45.586 37.7079 45.586 36.9948 45.2227C36.3676 44.9031 35.8577 44.3931 35.5381 43.7659C35.1748 43.0529 35.1748 42.1195 35.1748 40.2526Z" stroke="white" stroke-width="1.5"/>
<path d="M36.9718 29.3936L36.8149 28.6602L36.9718 29.3936ZM35.3672 27.789L36.1006 27.9458L35.3672 27.789ZM36.5357 24.4016L36.0054 23.8713L36.5357 24.4016ZM40.3592 28.2251L40.8895 28.7554L40.3592 28.2251ZM45.5698 20.889L46.2193 20.514L45.5698 20.889ZM44.7696 23.8146L44.2393 23.2843L44.7696 23.8146ZM45.5698 22.9167L46.2193 23.2917L45.5698 22.9167ZM43.8717 19.191L44.2467 18.5414V18.5414L43.8717 19.191ZM40.9462 19.9911L41.4765 20.5215L40.9462 19.9911ZM41.844 19.191L41.469 18.5414V18.5414L41.844 19.191ZM44.2393 23.2843L39.8289 27.6947L40.8895 28.7554L45.3 24.3449L44.2393 23.2843ZM37.066 24.9319L41.4765 20.5215L40.4158 19.4608L36.0054 23.8713L37.066 24.9319ZM36.8149 28.6602C36.3306 28.7637 36.0506 28.8216 35.8568 28.8339C35.6764 28.8454 35.7659 28.802 35.8623 28.8984L34.8017 29.9591C35.1579 30.3154 35.6074 30.3528 35.952 30.3309C36.2831 30.3098 36.693 30.2202 37.1286 30.127L36.8149 28.6602ZM34.6338 27.6322C34.5406 28.0678 34.4509 28.4777 34.4299 28.8088C34.408 29.1534 34.4454 29.6028 34.8017 29.9591L35.8623 28.8984C35.9587 28.9948 35.9154 29.0844 35.9269 28.904C35.9392 28.7102 35.997 28.4301 36.1006 27.9458L34.6338 27.6322ZM44.2393 20.5215C44.7179 21.0001 44.8486 21.1399 44.9203 21.264L46.2193 20.514C46.024 20.1758 45.7103 19.8711 45.3 19.4608L44.2393 20.5215ZM45.3 24.3449C45.7103 23.9346 46.024 23.63 46.2193 23.2917L44.9203 22.5417C44.8486 22.6659 44.7179 22.8057 44.2393 23.2843L45.3 24.3449ZM44.9203 21.264C45.1485 21.6593 45.1485 22.1464 44.9203 22.5417L46.2193 23.2917C46.7155 22.4323 46.7155 21.3734 46.2193 20.514L44.9203 21.264ZM45.3 19.4608C44.8896 19.0505 44.585 18.7367 44.2467 18.5414L43.4967 19.8405C43.6209 19.9121 43.7607 20.0429 44.2393 20.5215L45.3 19.4608ZM41.4765 20.5215C41.9551 20.0429 42.0949 19.9121 42.219 19.8405L41.469 18.5414C41.1308 18.7367 40.8261 19.0505 40.4158 19.4608L41.4765 20.5215ZM44.2467 18.5414C43.3873 18.0452 42.3285 18.0452 41.469 18.5414L42.219 19.8405C42.6144 19.6122 43.1014 19.6122 43.4967 19.8405L44.2467 18.5414ZM39.8289 27.6947C39.5232 28.0004 39.1178 28.1841 38.5907 28.3187C38.3268 28.3861 38.0479 28.4375 37.7458 28.4897C37.4525 28.5404 37.1278 28.5933 36.8149 28.6602L37.1286 30.127C37.4039 30.0681 37.6866 30.0222 38.0011 29.9678C38.3068 29.915 38.636 29.8553 38.9618 29.7721C39.6139 29.6056 40.3141 29.3309 40.8895 28.7554L39.8289 27.6947ZM36.1006 27.9458C36.1675 27.6329 36.2204 27.3082 36.271 27.015C36.3232 26.7129 36.3747 26.434 36.442 26.1701C36.5766 25.643 36.7604 25.2376 37.066 24.9319L36.0054 23.8713C35.4299 24.4467 35.1552 25.1468 34.9887 25.799C34.9055 26.1248 34.8457 26.454 34.7929 26.7596C34.7386 27.0741 34.6926 27.3569 34.6338 27.6322L36.1006 27.9458Z" fill="white"/>
</svg>
