<svg width="61" height="61" viewBox="0 0 61 61" fill="none" xmlns="http://www.w3.org/2000/svg">
<rect x="1.07188" y="0.49375" width="59.2" height="59.2" rx="29.6" fill="#19191A"/>
<rect x="1.07188" y="0.49375" width="59.2" height="59.2" rx="29.6" stroke="#36363A" stroke-width="0.8"/>
<path d="M19.0059 23.0938C19.0059 21.4603 19.0059 20.6436 19.3238 20.0197C19.6034 19.4708 20.0496 19.0247 20.5984 18.745C21.2223 18.4271 22.039 18.4271 23.6725 18.4271C25.306 18.4271 26.1228 18.4271 26.7467 18.745C27.2955 19.0247 27.7417 19.4708 28.0213 20.0197C28.3392 20.6436 28.3392 21.4603 28.3392 23.0938C28.3392 24.7273 28.3392 25.544 28.0213 26.1679C27.7417 26.7167 27.2955 27.1629 26.7467 27.4426C26.1228 27.7605 25.306 27.7605 23.6725 27.7605C22.039 27.7605 21.2223 27.7605 20.5984 27.4426C20.0496 27.1629 19.6034 26.7167 19.3238 26.1679C19.0059 25.544 19.0059 24.7273 19.0059 23.0938Z" stroke="white" stroke-width="1.5"/>
<path d="M19.0059 37.0938C19.0059 35.4603 19.0059 34.6436 19.3238 34.0197C19.6034 33.4708 20.0496 33.0247 20.5984 32.745C21.2223 32.4271 22.039 32.4271 23.6725 32.4271C25.306 32.4271 26.1228 32.4271 26.7467 32.745C27.2955 33.0247 27.7417 33.4708 28.0213 34.0197C28.3392 34.6436 28.3392 35.4603 28.3392 37.0938C28.3392 38.7273 28.3392 39.544 28.0213 40.1679C27.7417 40.7167 27.2955 41.1629 26.7467 41.4426C26.1228 41.7605 25.306 41.7605 23.6725 41.7605C22.039 41.7605 21.2223 41.7605 20.5984 41.4426C20.0496 41.1629 19.6034 40.7167 19.3238 40.1679C19.0059 39.544 19.0059 38.7273 19.0059 37.0938Z" stroke="white" stroke-width="1.5"/>
<path d="M33.0059 37.0938C33.0059 35.4603 33.0059 34.6436 33.3238 34.0197C33.6034 33.4708 34.0496 33.0247 34.5984 32.745C35.2223 32.4271 36.039 32.4271 37.6725 32.4271C39.306 32.4271 40.1228 32.4271 40.7467 32.745C41.2955 33.0247 41.7417 33.4708 42.0213 34.0197C42.3392 34.6436 42.3392 35.4603 42.3392 37.0938C42.3392 38.7273 42.3392 39.544 42.0213 40.1679C41.7417 40.7167 41.2955 41.1629 40.7467 41.4426C40.1228 41.7605 39.306 41.7605 37.6725 41.7605C36.039 41.7605 35.2223 41.7605 34.5984 41.4426C34.0496 41.1629 33.6034 40.7167 33.3238 40.1679C33.0059 39.544 33.0059 38.7273 33.0059 37.0938Z" stroke="white" stroke-width="1.5"/>
<path d="M34.5782 27.5921L34.4214 26.8587L34.5782 27.5921ZM33.1742 26.1881L33.9076 26.3449V26.3449L33.1742 26.1881ZM34.1966 23.2241L33.6663 22.6938L34.1966 23.2241ZM37.5422 26.5697L38.0725 27.1L37.5422 26.5697ZM42.1015 20.1506L42.751 19.7756V19.7756L42.1015 20.1506ZM41.4013 22.7105L40.871 22.1802L41.4013 22.7105ZM42.1015 21.9249L42.751 22.2999L42.1015 21.9249ZM40.6157 18.6648L40.9907 18.0153V18.0153L40.6157 18.6648ZM38.0558 19.365L38.5861 19.8953L38.0558 19.365ZM38.8414 18.6648L38.4664 18.0153V18.0153L38.8414 18.6648ZM40.871 22.1802L37.0119 26.0393L38.0725 27.1L41.9317 23.2409L40.871 22.1802ZM34.727 23.7545L38.5861 19.8953L37.5255 18.8347L33.6663 22.6938L34.727 23.7545ZM34.4214 26.8587C33.9946 26.95 33.7576 26.9986 33.5966 27.0089C33.4491 27.0182 33.5611 26.9799 33.6737 27.0926L32.6131 28.1532C32.9531 28.4933 33.3801 28.5257 33.6918 28.5058C33.9901 28.4869 34.3569 28.4064 34.735 28.3256L34.4214 26.8587ZM32.4408 26.0313C32.3599 26.4094 32.2795 26.7762 32.2605 27.0745C32.2407 27.3863 32.273 27.8132 32.6131 28.1532L33.6737 27.0926C33.7864 27.2052 33.7481 27.3173 33.7575 27.1697C33.7677 27.0087 33.8163 26.7717 33.9076 26.3449L32.4408 26.0313ZM40.871 19.8953C41.2941 20.3184 41.397 20.4304 41.452 20.5256L42.751 19.7756C42.5724 19.4663 42.2864 19.1894 41.9317 18.8347L40.871 19.8953ZM41.9317 23.2409C42.2864 22.8861 42.5724 22.6092 42.751 22.2999L41.452 21.5499C41.397 21.6451 41.2941 21.7571 40.871 22.1802L41.9317 23.2409ZM41.452 20.5256C41.6349 20.8425 41.6349 21.233 41.452 21.5499L42.751 22.2999C43.2019 21.5189 43.2019 20.5566 42.751 19.7756L41.452 20.5256ZM41.9317 18.8347C41.5769 18.4799 41.3 18.1939 40.9907 18.0153L40.2407 19.3143C40.3359 19.3693 40.448 19.4723 40.871 19.8953L41.9317 18.8347ZM38.5861 19.8953C39.0092 19.4723 39.1212 19.3693 39.2164 19.3143L38.4664 18.0153C38.1571 18.1939 37.8802 18.4799 37.5255 18.8347L38.5861 19.8953ZM40.9907 18.0153C40.2097 17.5644 39.2474 17.5644 38.4664 18.0153L39.2164 19.3143C39.5333 19.1314 39.9238 19.1314 40.2407 19.3143L40.9907 18.0153ZM37.0119 26.0393C36.7613 26.2899 36.425 26.445 35.9716 26.5608C35.7445 26.6188 35.5036 26.6632 35.2395 26.7089C34.9842 26.753 34.6975 26.7997 34.4214 26.8587L34.735 28.3256C34.9736 28.2745 35.2183 28.2348 35.4949 28.187C35.7625 28.1407 36.0537 28.0879 36.3426 28.0142C36.9211 27.8665 37.5521 27.6204 38.0725 27.1L37.0119 26.0393ZM33.9076 26.3449C33.9667 26.0688 34.0133 25.7821 34.0574 25.5268C34.1031 25.2627 34.1476 25.0218 34.2055 24.7948C34.3213 24.3413 34.4764 24.0051 34.727 23.7545L33.6663 22.6938C33.1459 23.2142 32.8998 23.8452 32.7521 24.4237C32.6784 24.7126 32.6256 25.0038 32.5793 25.2715C32.5316 25.548 32.4918 25.7927 32.4408 26.0313L33.9076 26.3449Z" fill="white"/>
</svg>
