<svg width="60" height="61" viewBox="0 0 60 61" fill="none" xmlns="http://www.w3.org/2000/svg">
<rect y="0.421875" width="60" height="60" rx="30" fill="#19191A"/>
<path d="M34.668 36.8386H38.7513M34.668 36.8386V33.7553C34.668 33.2839 34.668 33.0482 34.8144 32.9017C34.9609 32.7553 35.1966 32.7553 35.668 32.7553H37.0013M34.668 36.8386V39.922C34.668 40.3934 34.668 40.6291 34.8144 40.7755C34.9609 40.922 35.1966 40.922 35.668 40.922H37.0013M38.7513 36.8386C39.7178 36.8386 40.5013 35.9245 40.5013 34.797C40.5013 33.6694 39.7178 32.7553 38.7513 32.7553H37.0013M38.7513 36.8386C39.7178 36.8386 40.5013 37.7527 40.5013 38.8803C40.5013 40.0079 39.7178 40.922 38.7513 40.922H37.0013M37.0013 40.922V42.0886M37.0013 32.7553V31.5886" stroke="white" stroke-width="1.5" stroke-linecap="round"/>
<path d="M31.1673 42.0886L28.5158 42.0886C24.7111 42.0886 22.8087 42.0886 21.4876 41.1578C21.109 40.8911 20.773 40.5748 20.4896 40.2186C19.5007 38.9752 19.5007 37.1847 19.5007 33.6038L19.5007 30.6341C19.5007 27.177 19.5007 25.4485 20.0477 24.068C20.9273 21.8486 22.7873 20.098 25.1454 19.2702C26.6122 18.7553 28.4488 18.7553 32.1219 18.7553C34.2208 18.7553 35.2702 18.7553 36.1084 19.0495C37.4559 19.5225 38.5188 20.5229 39.0214 21.7911C39.334 22.58 39.334 23.5677 39.334 25.5432L39.334 28.0886" stroke="white" stroke-width="1.5" stroke-linecap="round" stroke-linejoin="round"/>
<path d="M19.4993 30.4219C19.4993 28.2741 21.2405 26.533 23.3882 26.533C24.165 26.533 25.0807 26.6691 25.8359 26.4667C26.507 26.2869 27.0311 25.7628 27.2109 25.0918C27.4132 24.3366 27.2771 23.4208 27.2771 22.6441C27.2771 20.4963 29.0182 18.7552 31.166 18.7552" stroke="white" stroke-width="1.5" stroke-linecap="round" stroke-linejoin="round"/>
</svg>
