<svg width="32" height="33" viewBox="0 0 32 33" fill="none" xmlns="http://www.w3.org/2000/svg">
<path d="M27.9597 1.98169H24.0397C22.3463 1.98169 21.333 2.99502 21.333 4.68836V8.60836C21.333 10.3017 22.3463 11.315 24.0397 11.315H27.9597C29.653 11.315 30.6663 10.3017 30.6663 8.60836V4.68836C30.6663 2.99502 29.653 1.98169 27.9597 1.98169ZM28.813 6.88836C28.3197 8.46169 26.5997 9.31502 25.9997 9.31502C25.3997 9.31502 23.693 8.48836 23.1863 6.88836C23.1063 6.64836 23.0663 6.38169 23.0663 6.12836C23.0663 5.26169 23.5063 4.36836 24.4263 4.07502C24.973 3.90169 25.5597 3.99502 25.973 4.34169C26.3997 4.00836 26.9863 3.90169 27.5463 4.07502C28.773 4.46169 29.1597 5.83502 28.813 6.88836Z" fill="#5E75F0"/>
<path d="M24.0403 13.3152C21.4403 13.3152 19.3337 11.2085 19.3337 8.60852V4.64852C19.3337 3.91519 18.7337 3.31519 18.0003 3.31519H9.33366C5.65366 3.31519 2.66699 6.28852 2.66699 9.95519V19.2485C2.66699 22.9285 5.65366 25.9152 9.33366 25.9152H11.3337C11.707 25.9152 12.187 26.1552 12.4003 26.4485L14.4003 29.1019C15.2803 30.2752 16.7203 30.2752 17.6003 29.1019L19.6003 26.4485C19.8537 26.1152 20.2537 25.9152 20.667 25.9152H22.6803C26.3603 25.9152 29.3337 22.9419 29.3337 19.2619V14.6485C29.3337 13.9152 28.7337 13.3152 28.0003 13.3152H24.0403ZM10.667 16.6485C9.92033 16.6485 9.33366 16.0485 9.33366 15.3152C9.33366 14.5819 9.92033 13.9819 10.667 13.9819C11.4003 13.9819 12.0003 14.5819 12.0003 15.3152C12.0003 16.0485 11.4137 16.6485 10.667 16.6485ZM16.0003 16.6485C15.2537 16.6485 14.667 16.0485 14.667 15.3152C14.667 14.5819 15.2537 13.9819 16.0003 13.9819C16.7337 13.9819 17.3337 14.5819 17.3337 15.3152C17.3337 16.0485 16.747 16.6485 16.0003 16.6485Z" fill="#5E75F0"/>
</svg>
