<svg width="61" height="61" viewBox="0 0 61 61" fill="none" xmlns="http://www.w3.org/2000/svg">
<rect x="1.07188" y="0.49375" width="59.2" height="59.2" rx="29.6" fill="#19191A"/>
<rect x="1.07188" y="0.49375" width="59.2" height="59.2" rx="29.6" stroke="#36363A" stroke-width="0.8"/>
<path d="M41.9024 26.0105C42.6662 23.3663 42.4518 21.071 41.0735 19.6928C38.1578 16.7771 31.1375 19.0701 25.3932 24.8144C24.7795 25.4281 24.2053 26.0563 23.6725 26.6925M37.6725 33.4951C37.1398 34.1313 36.5655 34.7595 35.9519 35.3731C30.2076 41.1175 23.1872 43.4105 20.2715 40.4948C18.7929 39.0162 18.6538 36.4819 19.6251 33.5938" stroke="white" stroke-width="1.5" stroke-linecap="round" stroke-linejoin="round"/>
<path d="M31.5469 26.5938L29.2769 29.2775C28.9998 29.6368 28.8613 29.8165 28.9471 29.9551C29.033 30.0938 29.2827 30.0938 29.7823 30.0938H31.5615C32.061 30.0938 32.3108 30.0938 32.3966 30.2324C32.4824 30.371 32.3439 30.5507 32.0668 30.91L29.7823 33.5938" stroke="white" stroke-width="1.5" stroke-linecap="round" stroke-linejoin="round"/>
<path d="M27.7565 37.4904C26.9547 36.8493 26.1628 36.1421 25.3938 35.3731C19.6495 29.6288 17.3564 22.6085 20.2722 19.6928C21.7508 18.2141 24.2851 18.0751 27.1732 19.0464M33.5898 40.9317C36.718 42.1251 39.4968 42.0722 41.0742 40.4948C43.9899 37.5791 41.6969 30.5588 35.9525 24.8144C35.1835 24.0454 34.3917 23.3383 33.5898 22.6972" stroke="white" stroke-width="1.5" stroke-linecap="round" stroke-linejoin="round"/>
</svg>
