<svg width="60" height="61" viewBox="0 0 60 61" fill="none" xmlns="http://www.w3.org/2000/svg">
<rect y="0.421875" width="60" height="60" rx="30" fill="#19191A"/>
<path d="M31.3089 34.6717C31.016 34.9646 31.016 35.4394 31.3089 35.7323C31.6018 36.0252 32.0766 36.0252 32.3695 35.7323L31.3089 34.6717ZM33.4727 34.6292C33.7656 34.3363 33.7656 33.8614 33.4727 33.5685C33.1798 33.2756 32.7049 33.2756 32.412 33.5685L33.4727 34.6292ZM34.6183 31.3623C34.3254 31.6552 34.3254 32.13 34.6183 32.4229C34.9112 32.7158 35.386 32.7158 35.6789 32.4229L34.6183 31.3623ZM38.2529 29.849C38.5458 29.5561 38.5458 29.0812 38.2529 28.7883C37.96 28.4954 37.4851 28.4954 37.1922 28.7883L38.2529 29.849ZM19.5422 34.6717C19.2493 34.9646 19.2493 35.4394 19.5422 35.7323C19.8351 36.0252 20.3099 36.0252 20.6028 35.7323L19.5422 34.6717ZM28.9556 42.0561L28.8681 41.3112L28.9556 42.0561ZM28.1423 42.0808L28.1852 41.332L28.1423 42.0808ZM41.6597 28.5633L40.911 28.6062L41.6597 28.5633ZM41.6351 29.3766L40.8902 29.2891L41.6351 29.3766ZM25.0905 23.2454L24.5602 22.715H24.5602L25.0905 23.2454ZM31.0457 18.7872L31.1332 19.5321L31.0457 18.7872ZM31.859 18.7626L31.8161 19.5113L31.859 18.7626ZM22.8243 25.5116L23.3547 26.0419L22.8243 25.5116ZM18.3662 31.4667L19.1111 31.5542L18.3662 31.4667ZM18.3416 32.28L19.0903 32.2371L18.3416 32.28ZM32.3695 35.7323L33.4727 34.6292L32.412 33.5685L31.3089 34.6717L32.3695 35.7323ZM35.6789 32.4229L38.2529 29.849L37.1922 28.7883L34.6183 31.3623L35.6789 32.4229ZM20.6028 35.7323L35.3112 21.0239L34.2506 19.9633L19.5422 34.6717L20.6028 35.7323ZM23.3547 26.0419L25.6209 23.7757L24.5602 22.715L22.294 24.9812L23.3547 26.0419ZM36.6466 34.8015L34.3804 37.0677L35.4411 38.1283L37.7073 35.8621L36.6466 34.8015ZM34.3804 37.0677C32.9484 38.4997 31.9181 39.5284 31.0371 40.2305C30.167 40.924 29.5188 41.2348 28.8681 41.3112L29.0431 42.801C30.0887 42.6782 30.9985 42.1795 31.972 41.4035C32.9347 40.6363 34.0339 39.5355 35.4411 38.1283L34.3804 37.0677ZM21.9163 38.506C23.2384 39.8281 24.2793 40.871 25.2048 41.5872C26.1469 42.3162 27.046 42.7691 28.0994 42.8295L28.1852 41.332C27.5513 41.2956 26.9386 41.0322 26.1228 40.4009C25.2904 39.7568 24.3271 38.7955 22.977 37.4454L21.9163 38.506ZM28.8681 41.3112C28.6396 41.3381 28.4111 41.3449 28.1852 41.332L28.0994 42.8295C28.4132 42.8475 28.729 42.8379 29.0431 42.801L28.8681 41.3112ZM37.0243 23.398C38.3745 24.7481 39.3358 25.7114 39.9799 26.5438C40.6112 27.3597 40.8746 27.9723 40.911 28.6062L42.4085 28.5204C42.3481 27.467 41.8952 26.5679 41.1662 25.6258C40.45 24.7003 39.4071 23.6594 38.085 22.3373L37.0243 23.398ZM37.7073 35.8621C39.1145 34.4549 40.2153 33.3557 40.9825 32.3931C41.7584 31.4195 42.2571 30.5098 42.38 29.4641L40.8902 29.2891C40.8138 29.9398 40.503 30.588 39.8095 31.4582C39.1073 32.3392 38.0787 33.3694 36.6466 34.8015L37.7073 35.8621ZM40.911 28.6062C40.9239 28.8321 40.9171 29.0606 40.8902 29.2891L42.38 29.4641C42.4169 29.15 42.4265 28.8342 42.4085 28.5204L40.911 28.6062ZM25.6209 23.7757C27.0529 22.3436 28.0832 21.315 28.9642 20.6128C29.8343 19.9193 30.4825 19.6085 31.1332 19.5321L30.9582 18.0423C29.9126 18.1652 29.0028 18.6639 28.0293 19.4398C27.0666 20.2071 25.9674 21.3079 24.5602 22.715L25.6209 23.7757ZM38.085 22.3373C36.7629 21.0152 35.722 19.9724 34.7965 19.2562C33.8544 18.5272 32.9553 18.0742 31.9019 18.0138L31.8161 19.5113C32.45 19.5477 33.0627 19.8112 33.8785 20.4425C34.7109 21.0866 35.6742 22.0479 37.0243 23.398L38.085 22.3373ZM31.1332 19.5321C31.3617 19.5053 31.5902 19.4984 31.8161 19.5113L31.9019 18.0138C31.5881 17.9958 31.2723 18.0054 30.9582 18.0423L31.1332 19.5321ZM22.294 24.9812C20.8868 26.3884 19.7861 27.4876 19.0188 28.4503C18.2429 29.4238 17.7442 30.3336 17.6213 31.3792L19.1111 31.5542C19.1875 30.9035 19.4983 30.2553 20.1918 29.3852C20.894 28.5042 21.9226 27.474 23.3547 26.0419L22.294 24.9812ZM22.977 37.4454C21.6268 36.0952 20.6656 35.1319 20.0215 34.2995C19.3901 33.4837 19.1267 32.8711 19.0903 32.2371L17.5928 32.323C17.6532 33.3763 18.1061 34.2754 18.8351 35.2175C19.5513 36.1431 20.5942 37.1839 21.9163 38.506L22.977 37.4454ZM17.6213 31.3792C17.5844 31.6933 17.5748 32.0091 17.5928 32.323L19.0903 32.2371C19.0774 32.0112 19.0842 31.7827 19.1111 31.5542L17.6213 31.3792Z" fill="white"/>
<path d="M20.668 42.0885H39.3346" stroke="white" stroke-width="1.5" stroke-linecap="round"/>
</svg>
