<svg width="61" height="61" viewBox="0 0 61 61" fill="none" xmlns="http://www.w3.org/2000/svg">
<rect x="1.07188" y="0.49375" width="59.2" height="59.2" rx="29.6" fill="#19191A"/>
<rect x="1.07188" y="0.49375" width="59.2" height="59.2" rx="29.6" stroke="#36363A" stroke-width="0.8"/>
<path d="M30.6691 18.4271C27.1601 18.4271 24.8848 20.7826 22.1939 21.6412C21.0998 21.9903 20.5527 22.1648 20.3313 22.4109C20.1099 22.6569 20.0451 23.0165 19.9154 23.7356C18.5279 31.4308 21.5606 38.5451 28.7932 41.3142C29.5703 41.6117 29.9589 41.7605 30.673 41.7605C31.387 41.7604 31.7755 41.6117 32.5526 41.3142C39.7848 38.5451 42.8146 31.4308 41.4267 23.7356C41.297 23.0164 41.2321 22.6568 41.0107 22.4107C40.7892 22.1646 40.2422 21.9902 39.1481 21.6413C36.4562 20.7828 34.1783 18.4271 30.6691 18.4271Z" stroke="white" stroke-width="1.5" stroke-linecap="round" stroke-linejoin="round"/>
<path d="M27.8482 34.594L27.544 35.2795H27.544L27.8482 34.594ZM26.7433 33.4101L26.0438 33.6806H26.0438L26.7433 33.4101ZM34.5991 33.4101L35.2987 33.6806H35.2987L34.5991 33.4101ZM33.4942 34.594L33.7984 35.2795H33.7984L33.4942 34.594ZM33.4942 28.3645L33.7984 27.679L33.4942 28.3645ZM34.5991 29.5484L35.2987 29.2779L35.2987 29.2779L34.5991 29.5484ZM27.8482 28.3645L27.544 27.679H27.544L27.8482 28.3645ZM26.7433 29.5484L26.0438 29.2779L26.7433 29.5484ZM27.8796 28.198C27.8796 28.6122 28.2153 28.948 28.6296 28.948C29.0438 28.948 29.3796 28.6122 29.3796 28.198H27.8796ZM31.9629 28.198C31.9629 28.6122 32.2987 28.948 32.7129 28.948C33.1271 28.948 33.4629 28.6122 33.4629 28.198H31.9629ZM29.6504 28.948H31.6921V27.448H29.6504V28.948ZM31.6921 34.0105H29.6504V35.5105H31.6921V34.0105ZM29.6504 34.0105C29.1638 34.0105 28.839 34.01 28.588 33.9917C28.3447 33.9739 28.2286 33.9422 28.1525 33.9085L27.544 35.2795C27.8431 35.4123 28.1524 35.4638 28.4786 35.4877C28.797 35.511 29.1857 35.5105 29.6504 35.5105V34.0105ZM25.8379 31.4792C25.8379 31.9793 25.8375 32.3894 25.8588 32.7238C25.8805 33.0641 25.9268 33.3779 26.0438 33.6806L27.4428 33.1397C27.4044 33.0403 27.373 32.8984 27.3558 32.6285C27.3382 32.3528 27.3379 31.9985 27.3379 31.4792H25.8379ZM28.1525 33.9085C27.8436 33.7714 27.5824 33.5007 27.4428 33.1397L26.0438 33.6806C26.3186 34.3915 26.8524 34.9726 27.544 35.2795L28.1525 33.9085ZM34.0046 31.4792C34.0046 31.9985 34.0042 32.3528 33.9866 32.6285C33.9695 32.8984 33.938 33.0403 33.8996 33.1397L35.2987 33.6806C35.4157 33.3779 35.4619 33.0641 35.4836 32.7238C35.5049 32.3894 35.5046 31.9793 35.5046 31.4792H34.0046ZM31.6921 35.5105C32.1567 35.5105 32.5454 35.511 32.8638 35.4877C33.1901 35.4638 33.4993 35.4123 33.7984 35.2795L33.19 33.9085C33.1139 33.9422 32.9977 33.9739 32.7545 33.9917C32.5034 34.01 32.1787 34.0105 31.6921 34.0105V35.5105ZM33.8996 33.1397C33.76 33.5007 33.4989 33.7714 33.19 33.9085L33.7984 35.2795C34.4901 34.9726 35.0238 34.3915 35.2987 33.6806L33.8996 33.1397ZM31.6921 28.948C32.1787 28.948 32.5034 28.9485 32.7545 28.9668C32.9977 28.9846 33.1139 29.0163 33.19 29.05L33.7984 27.679C33.4993 27.5462 33.1901 27.4947 32.8638 27.4708C32.5454 27.4475 32.1567 27.448 31.6921 27.448V28.948ZM35.5046 31.4792C35.5046 30.9792 35.5049 30.5691 35.4836 30.2347C35.4619 29.8944 35.4157 29.5806 35.2987 29.2779L33.8996 29.8188C33.938 29.9182 33.9695 30.0601 33.9866 30.33C34.0042 30.6057 34.0046 30.96 34.0046 31.4792H35.5046ZM33.19 29.05C33.4989 29.1871 33.76 29.4578 33.8996 29.8188L35.2987 29.2779C35.0238 28.567 34.4901 27.9859 33.7984 27.679L33.19 29.05ZM29.6504 27.448C29.1857 27.448 28.797 27.4475 28.4786 27.4708C28.1524 27.4947 27.8431 27.5462 27.544 27.679L28.1525 29.05C28.2286 29.0163 28.3447 28.9846 28.588 28.9668C28.839 28.9485 29.1638 28.948 29.6504 28.948V27.448ZM27.3379 31.4792C27.3379 30.96 27.3382 30.6057 27.3558 30.33C27.373 30.0601 27.4044 29.9182 27.4428 29.8188L26.0438 29.2779C25.9268 29.5806 25.8805 29.8944 25.8588 30.2347C25.8375 30.5691 25.8379 30.9792 25.8379 31.4792H27.3379ZM27.544 27.679C26.8524 27.9859 26.3186 28.567 26.0438 29.2779L27.4428 29.8188C27.5824 29.4578 27.8436 29.1871 28.1525 29.05L27.544 27.679ZM29.3796 28.198V26.2292H27.8796V28.198H29.3796ZM31.9629 26.2292V28.198H33.4629V26.2292H31.9629ZM30.6712 25.0105C31.4105 25.0105 31.9629 25.5816 31.9629 26.2292H33.4629C33.4629 24.7022 32.1871 23.5105 30.6712 23.5105V25.0105ZM29.3796 26.2292C29.3796 25.5816 29.9319 25.0105 30.6712 25.0105V23.5105C29.1554 23.5105 27.8796 24.7022 27.8796 26.2292H29.3796Z" fill="white"/>
</svg>
