<svg width="57" height="57" viewBox="0 0 57 57" fill="none" xmlns="http://www.w3.org/2000/svg">
<rect x="0.907813" y="0.652625" width="55.2" height="55.2" rx="27.6" fill="#19191A"/>
<rect x="0.907813" y="0.652625" width="55.2" height="55.2" rx="27.6" stroke="#36363A" stroke-width="0.8"/>
<path d="M16.5078 41.586H40.5078" stroke="white" stroke-width="1.5" stroke-linecap="round" stroke-linejoin="round"/>
<path d="M19.9744 23.426H17.8411C17.1078 23.426 16.5078 24.026 16.5078 24.7593V36.2526C16.5078 36.986 17.1078 37.586 17.8411 37.586H19.9744C20.7078 37.586 21.3078 36.986 21.3078 36.2526V24.7593C21.3078 24.026 20.7078 23.426 19.9744 23.426Z" stroke="white" stroke-width="1.5" stroke-linecap="round" stroke-linejoin="round"/>
<path d="M29.5741 19.1726H27.4408C26.7074 19.1726 26.1074 19.7726 26.1074 20.506V36.2526C26.1074 36.986 26.7074 37.586 27.4408 37.586H29.5741C30.3074 37.586 30.9074 36.986 30.9074 36.2526V20.506C30.9074 19.7726 30.3074 19.1726 29.5741 19.1726Z" stroke="white" stroke-width="1.5" stroke-linecap="round" stroke-linejoin="round"/>
<path d="M39.1746 14.9193H37.0413C36.308 14.9193 35.708 15.5193 35.708 16.2526V36.2526C35.708 36.986 36.308 37.586 37.0413 37.586H39.1746C39.908 37.586 40.508 36.986 40.508 36.2526V16.2526C40.508 15.5193 39.908 14.9193 39.1746 14.9193Z" stroke="white" stroke-width="1.5" stroke-linecap="round" stroke-linejoin="round"/>
</svg>
