<svg width="32" height="33" viewBox="0 0 32 33" fill="none" xmlns="http://www.w3.org/2000/svg">
<path d="M29.3337 29.9817H2.66699C2.12033 29.9817 1.66699 29.5284 1.66699 28.9817C1.66699 28.435 2.12033 27.9817 2.66699 27.9817H29.3337C29.8803 27.9817 30.3337 28.435 30.3337 28.9817C30.3337 29.5284 29.8803 29.9817 29.3337 29.9817Z" fill="#5E75F0"/>
<path d="M13 5.98185V29.9819H19V5.98185C19 4.51519 18.4 3.31519 16.6 3.31519H15.4C13.6 3.31519 13 4.51519 13 5.98185Z" fill="#5E75F0"/>
<path d="M4 13.9819V29.9819H9.33333V13.9819C9.33333 12.5152 8.8 11.3152 7.2 11.3152H6.13333C4.53333 11.3152 4 12.5152 4 13.9819Z" fill="#5E75F0"/>
<path d="M22.667 20.6484V29.9817H28.0003V20.6484C28.0003 19.1817 27.467 17.9817 25.867 17.9817H24.8003C23.2003 17.9817 22.667 19.1817 22.667 20.6484Z" fill="#5E75F0"/>
</svg>
