<svg width="33" height="37" viewBox="0 0 33 37" fill="none" xmlns="http://www.w3.org/2000/svg">
<path d="M2.81055 10.5C2.81055 7.98584 2.81055 6.72876 3.5916 5.94772C4.37264 5.16667 5.62972 5.16667 8.14388 5.16667C10.658 5.16667 11.9151 5.16667 12.6962 5.94772C13.4772 6.72876 13.4772 7.98584 13.4772 10.5V13.1667C13.4772 15.6808 13.4772 16.9379 12.6962 17.719C11.9151 18.5 10.658 18.5 8.14388 18.5C5.62972 18.5 4.37264 18.5 3.5916 17.719C2.81055 16.9379 2.81055 15.6808 2.81055 13.1667V10.5Z" stroke="#5E75F0" stroke-width="1.5"/>
<path d="M2.81055 27.8333C2.81055 26.5908 2.81055 25.9696 3.01353 25.4795C3.28419 24.8261 3.80332 24.307 4.45672 24.0363C4.94678 23.8333 5.56804 23.8333 6.81055 23.8333H9.47721C10.7197 23.8333 11.341 23.8333 11.831 24.0363C12.4844 24.307 13.0036 24.8261 13.2742 25.4795C13.4772 25.9696 13.4772 26.5908 13.4772 27.8333C13.4772 29.0758 13.4772 29.6971 13.2742 30.1872C13.0036 30.8406 12.4844 31.3597 11.831 31.6303C11.341 31.8333 10.7197 31.8333 9.47721 31.8333H6.81055C5.56804 31.8333 4.94678 31.8333 4.45672 31.6303C3.80332 31.3597 3.28419 30.8406 3.01353 30.1872C2.81055 29.6971 2.81055 29.0758 2.81055 27.8333Z" stroke="#5E75F0" stroke-width="1.5"/>
<path d="M18.8105 23.8333C18.8105 21.3192 18.8105 20.0621 19.5916 19.281C20.3726 18.5 21.6297 18.5 24.1439 18.5C26.658 18.5 27.9151 18.5 28.6962 19.281C29.4772 20.0621 29.4772 21.3192 29.4772 23.8333V26.5C29.4772 29.0142 29.4772 30.2712 28.6962 31.0523C27.9151 31.8333 26.658 31.8333 24.1439 31.8333C21.6297 31.8333 20.3726 31.8333 19.5916 31.0523C18.8105 30.2712 18.8105 29.0142 18.8105 26.5V23.8333Z" stroke="#5E75F0" stroke-width="1.5"/>
<path d="M18.8105 9.16667C18.8105 7.92416 18.8105 7.3029 19.0135 6.81284C19.2842 6.15944 19.8033 5.64031 20.4567 5.36965C20.9468 5.16667 21.568 5.16667 22.8105 5.16667H25.4772C26.7197 5.16667 27.341 5.16667 27.831 5.36965C28.4844 5.64031 29.0036 6.15944 29.2742 6.81284C29.4772 7.3029 29.4772 7.92416 29.4772 9.16667C29.4772 10.4092 29.4772 11.0304 29.2742 11.5205C29.0036 12.1739 28.4844 12.693 27.831 12.9637C27.341 13.1667 26.7197 13.1667 25.4772 13.1667H22.8105C21.568 13.1667 20.9468 13.1667 20.4567 12.9637C19.8033 12.693 19.2842 12.1739 19.0135 11.5205C18.8105 11.0304 18.8105 10.4092 18.8105 9.16667Z" stroke="#5E75F0" stroke-width="1.5"/>
</svg>
