<svg width="32" height="33" viewBox="0 0 32 33" fill="none" xmlns="http://www.w3.org/2000/svg">
<path d="M26.4396 12.2485L20.3996 6.2085C19.133 4.94184 17.3863 4.26184 15.5996 4.35517L8.93297 4.67517C6.26631 4.79517 4.14631 6.91517 4.01297 9.5685L3.69297 16.2352C3.61297 18.0218 4.27964 19.7685 5.54631 21.0352L11.5863 27.0752C14.0663 29.5552 18.093 29.5552 20.5863 27.0752L26.4396 21.2218C28.933 18.7552 28.933 14.7285 26.4396 12.2485ZM12.6663 17.1552C10.5463 17.1552 8.82631 15.4352 8.82631 13.3152C8.82631 11.1952 10.5463 9.47517 12.6663 9.47517C14.7863 9.47517 16.5063 11.1952 16.5063 13.3152C16.5063 15.4352 14.7863 17.1552 12.6663 17.1552Z" fill="#5E75F0"/>
</svg>
