<svg width="33" height="37" viewBox="0 0 33 37" fill="none" xmlns="http://www.w3.org/2000/svg">
<path d="M4.22737 22.7577L4.71435 19.9958C5.28992 16.7315 5.57771 15.0994 6.71737 14.133C7.85703 13.1667 9.49412 13.1667 12.7683 13.1667H19.5221C22.7962 13.1667 24.4333 13.1667 25.573 14.133C26.7127 15.0994 27.0004 16.7315 27.576 19.9958L28.063 22.7577C28.8595 27.2748 29.2577 29.5333 28.0314 31.0167C26.8051 32.5 24.5398 32.5 20.009 32.5H12.2813C7.75059 32.5 5.48523 32.5 4.25896 31.0167C3.03268 29.5333 3.43091 27.2748 4.22737 22.7577Z" stroke="#FF5A1F" stroke-width="1.5"/>
<path d="M10.1445 13.1667L10.3683 10.4816C10.6186 7.47742 13.13 5.16667 16.1445 5.16667C19.1591 5.16667 21.6704 7.47742 21.9208 10.4816L22.1445 13.1667" stroke="#FF5A1F" stroke-width="1.5"/>
<path d="M20.1445 17.1667C19.9712 19.0508 18.2321 20.5 16.1445 20.5C14.057 20.5 12.3179 19.0508 12.1445 17.1667" stroke="#FF5A1F" stroke-width="1.5" stroke-linecap="round"/>
</svg>
