<svg width="64" height="64" viewBox="0 0 64 64" fill="none" xmlns="http://www.w3.org/2000/svg">
<rect x="0.4" y="0.4" width="63.2" height="63.2" rx="31.6" fill="#19191A"/>
<rect x="0.4" y="0.4" width="63.2" height="63.2" rx="31.6" stroke="#36363A" stroke-width="0.8"/>
<path d="M31.9973 18.6667C27.9869 18.6667 25.3866 21.3587 22.3113 22.34C21.0609 22.7389 20.4356 22.9384 20.1826 23.2196C19.9296 23.5008 19.8555 23.9117 19.7073 24.7336C18.1216 33.5281 21.5875 41.6587 29.8534 44.8234C30.7415 45.1634 31.1856 45.3334 32.0017 45.3334C32.8177 45.3334 33.2618 45.1634 34.1498 44.8234C42.4151 41.6587 45.8778 33.528 44.2916 24.7336C44.1434 23.9116 44.0693 23.5006 43.8162 23.2194C43.5631 22.9382 42.9379 22.7388 41.6876 22.3401C38.6111 21.3589 36.0078 18.6667 31.9973 18.6667Z" stroke="white" stroke-width="1.5" stroke-linecap="round" stroke-linejoin="round"/>
<path d="M28.7734 37.1432L28.4692 37.8287L28.4692 37.8287L28.7734 37.1432ZM27.5106 35.7902L26.8111 36.0606H26.8111L27.5106 35.7902ZM36.4887 35.7902L37.1883 36.0606V36.0606L36.4887 35.7902ZM35.2259 37.1432L35.5302 37.8287L35.5302 37.8287L35.2259 37.1432ZM35.2259 30.0238L35.5302 29.3383L35.2259 30.0238ZM36.4887 31.3768L37.1883 31.1063V31.1063L36.4887 31.3768ZM28.7734 30.0238L28.4692 29.3383L28.7734 30.0238ZM27.5106 31.3768L26.8111 31.1063L27.5106 31.3768ZM28.9163 29.8335C28.9163 30.2477 29.2521 30.5835 29.6663 30.5835C30.0806 30.5835 30.4163 30.2477 30.4163 29.8335H28.9163ZM33.583 29.8335C33.583 30.2477 33.9188 30.5835 34.333 30.5835C34.7472 30.5835 35.083 30.2477 35.083 29.8335H33.583ZM30.833 30.5835H33.1663V29.0835H30.833V30.5835ZM33.1663 36.5835H30.833V38.0835H33.1663V36.5835ZM30.833 36.5835C30.2784 36.5835 29.9027 36.583 29.611 36.5617C29.3271 36.541 29.1805 36.5033 29.0776 36.4577L28.4692 37.8287C28.7951 37.9734 29.1347 38.0309 29.5016 38.0577C29.8607 38.084 30.3004 38.0835 30.833 38.0835V36.5835ZM26.583 33.5835C26.583 34.1563 26.5827 34.621 26.6067 34.9991C26.6312 35.3829 26.683 35.7293 26.8111 36.0606L28.2102 35.5198C28.1607 35.3917 28.1237 35.2172 28.1037 34.9037C28.0834 34.5844 28.083 34.1755 28.083 33.5835H26.583ZM29.0776 36.4577C28.6973 36.2889 28.3793 35.9574 28.2102 35.5198L26.8111 36.0606C27.1155 36.8482 27.7061 37.4901 28.4692 37.8287L29.0776 36.4577ZM35.9163 33.5835C35.9163 34.1755 35.916 34.5844 35.8957 34.9037C35.8757 35.2172 35.8387 35.3917 35.7892 35.5198L37.1883 36.0606C37.3164 35.7293 37.3682 35.3829 37.3926 34.9991C37.4167 34.621 37.4163 34.1563 37.4163 33.5835H35.9163ZM33.1663 38.0835C33.699 38.0835 34.1386 38.084 34.4977 38.0577C34.8646 38.0309 35.2042 37.9734 35.5302 37.8287L34.9217 36.4577C34.8188 36.5033 34.6723 36.541 34.3884 36.5617C34.0966 36.583 33.7209 36.5835 33.1663 36.5835V38.0835ZM35.7892 35.5198C35.62 35.9574 35.3021 36.2889 34.9217 36.4577L35.5302 37.8287C36.2933 37.4901 36.8838 36.8482 37.1883 36.0606L35.7892 35.5198ZM33.1663 30.5835C33.7209 30.5835 34.0966 30.584 34.3884 30.6053C34.6723 30.626 34.8188 30.6637 34.9217 30.7093L35.5302 29.3383C35.2042 29.1936 34.8646 29.1361 34.4977 29.1093C34.1386 29.083 33.699 29.0835 33.1663 29.0835V30.5835ZM37.4163 33.5835C37.4163 33.0107 37.4167 32.546 37.3926 32.1679C37.3682 31.7841 37.3164 31.4377 37.1883 31.1063L35.7892 31.6472C35.8387 31.7753 35.8757 31.9498 35.8957 32.2633C35.916 32.5825 35.9163 32.9915 35.9163 33.5835H37.4163ZM34.9217 30.7093C35.3021 30.8781 35.62 31.2096 35.7892 31.6472L37.1883 31.1063C36.8838 30.3188 36.2933 29.6769 35.5302 29.3383L34.9217 30.7093ZM30.833 29.0835C30.3004 29.0835 29.8607 29.083 29.5016 29.1093C29.1347 29.1361 28.7951 29.1936 28.4692 29.3383L29.0776 30.7093C29.1805 30.6637 29.3271 30.626 29.611 30.6053C29.9027 30.584 30.2784 30.5835 30.833 30.5835V29.0835ZM28.083 33.5835C28.083 32.9915 28.0834 32.5825 28.1037 32.2633C28.1237 31.9498 28.1607 31.7753 28.2102 31.6472L26.8111 31.1063C26.683 31.4377 26.6312 31.7841 26.6067 32.1679C26.5827 32.546 26.583 33.0107 26.583 33.5835H28.083ZM28.4692 29.3383C27.7061 29.6769 27.1155 30.3188 26.8111 31.1063L28.2102 31.6472C28.3793 31.2096 28.6973 30.8781 29.0776 30.7093L28.4692 29.3383ZM30.4163 29.8335V27.5835H28.9163V29.8335H30.4163ZM33.583 27.5835V29.8335H35.083V27.5835H33.583ZM31.9997 26.0835C32.9001 26.0835 33.583 26.7805 33.583 27.5835H35.083C35.083 25.9012 33.6766 24.5835 31.9997 24.5835V26.0835ZM30.4163 27.5835C30.4163 26.7805 31.0993 26.0835 31.9997 26.0835V24.5835C30.3227 24.5835 28.9163 25.9012 28.9163 27.5835H30.4163Z" fill="white"/>
</svg>
