<svg width="64" height="64" viewBox="0 0 64 64" fill="none" xmlns="http://www.w3.org/2000/svg">
<rect x="0.4" y="0.4" width="63.2" height="63.2" rx="31.6" fill="#19191A"/>
<rect x="0.4" y="0.4" width="63.2" height="63.2" rx="31.6" stroke="#36363A" stroke-width="0.8"/>
<path d="M18.667 24.0001C18.667 22.1332 18.667 21.1998 19.0303 20.4868C19.3499 19.8596 19.8598 19.3496 20.487 19.0301C21.2001 18.6667 22.1335 18.6667 24.0003 18.6667C25.8672 18.6667 26.8006 18.6667 27.5136 19.0301C28.1408 19.3496 28.6508 19.8596 28.9703 20.4868C29.3337 21.1998 29.3337 22.1332 29.3337 24.0001C29.3337 25.8669 29.3337 26.8003 28.9703 27.5134C28.6508 28.1406 28.1408 28.6505 27.5136 28.9701C26.8006 29.3334 25.8672 29.3334 24.0003 29.3334C22.1335 29.3334 21.2001 29.3334 20.487 28.9701C19.8598 28.6505 19.3499 28.1406 19.0303 27.5134C18.667 26.8003 18.667 25.8669 18.667 24.0001Z" stroke="white" stroke-width="1.5"/>
<path d="M18.667 40.0001C18.667 38.1332 18.667 37.1998 19.0303 36.4868C19.3499 35.8596 19.8598 35.3496 20.487 35.0301C21.2001 34.6667 22.1335 34.6667 24.0003 34.6667C25.8672 34.6667 26.8006 34.6667 27.5136 35.0301C28.1408 35.3496 28.6508 35.8596 28.9703 36.4868C29.3337 37.1998 29.3337 38.1332 29.3337 40.0001C29.3337 41.8669 29.3337 42.8003 28.9703 43.5134C28.6508 44.1406 28.1408 44.6505 27.5136 44.9701C26.8006 45.3334 25.8672 45.3334 24.0003 45.3334C22.1335 45.3334 21.2001 45.3334 20.487 44.9701C19.8598 44.6505 19.3499 44.1406 19.0303 43.5134C18.667 42.8003 18.667 41.8669 18.667 40.0001Z" stroke="white" stroke-width="1.5"/>
<path d="M34.667 40.0001C34.667 38.1332 34.667 37.1998 35.0303 36.4868C35.3499 35.8596 35.8598 35.3496 36.487 35.0301C37.2001 34.6667 38.1335 34.6667 40.0003 34.6667C41.8672 34.6667 42.8006 34.6667 43.5136 35.0301C44.1408 35.3496 44.6508 35.8596 44.9703 36.4868C45.3337 37.1998 45.3337 38.1332 45.3337 40.0001C45.3337 41.8669 45.3337 42.8003 44.9703 43.5134C44.6508 44.1406 44.1408 44.6505 43.5136 44.9701C42.8006 45.3334 41.8672 45.3334 40.0003 45.3334C38.1335 45.3334 37.2001 45.3334 36.487 44.9701C35.8598 44.6505 35.3499 44.1406 35.0303 43.5134C34.667 42.8003 34.667 41.8669 34.667 40.0001Z" stroke="white" stroke-width="1.5"/>
<path d="M36.464 29.141L36.3071 28.4076L36.464 29.141ZM34.8594 27.5365L35.5928 27.6933L34.8594 27.5365ZM36.0279 24.149L35.4976 23.6187L36.0279 24.149ZM39.8514 27.9725L40.3817 28.5028L39.8514 27.9725ZM45.062 20.6365L45.7115 20.2615L45.062 20.6365ZM44.2618 23.5621L43.7315 23.0317L44.2618 23.5621ZM45.062 22.6642L45.7115 23.0392L45.062 22.6642ZM43.3639 18.9384L43.7389 18.2889V18.2889L43.3639 18.9384ZM40.4383 19.7386L40.9687 20.2689L40.4383 19.7386ZM41.3362 18.9384L40.9612 18.2889V18.2889L41.3362 18.9384ZM43.7315 23.0317L39.321 27.4422L40.3817 28.5028L44.7922 24.0924L43.7315 23.0317ZM36.5582 24.6794L40.9687 20.2689L39.908 19.2083L35.4976 23.6187L36.5582 24.6794ZM36.3071 28.4076C35.8228 28.5112 35.5428 28.569 35.3489 28.5814C35.1686 28.5928 35.2581 28.5495 35.3545 28.6459L34.2939 29.7066C34.6501 30.0628 35.0996 30.1002 35.4441 30.0783C35.7753 30.0573 36.1851 29.9676 36.6208 29.8745L36.3071 28.4076ZM34.1259 27.3796C34.0328 27.8153 33.9431 28.2251 33.9221 28.5563C33.9002 28.9008 33.9376 29.3503 34.2939 29.7066L35.3545 28.6459C35.4509 28.7423 35.4076 28.8318 35.419 28.6515C35.4314 28.4576 35.4892 28.1776 35.5928 27.6933L34.1259 27.3796ZM43.7315 20.2689C44.2101 20.7475 44.3408 20.8874 44.4125 21.0115L45.7115 20.2615C45.5162 19.9232 45.2025 19.6186 44.7922 19.2083L43.7315 20.2689ZM44.7922 24.0924C45.2025 23.6821 45.5162 23.3774 45.7115 23.0392L44.4125 22.2892C44.3408 22.4133 44.2101 22.5531 43.7315 23.0317L44.7922 24.0924ZM44.4125 21.0115C44.6407 21.4068 44.6407 21.8939 44.4125 22.2892L45.7115 23.0392C46.2077 22.1798 46.2077 21.1209 45.7115 20.2615L44.4125 21.0115ZM44.7922 19.2083C44.3818 18.7979 44.0772 18.4842 43.7389 18.2889L42.9889 19.5879C43.1131 19.6596 43.2529 19.7903 43.7315 20.2689L44.7922 19.2083ZM40.9687 20.2689C41.4473 19.7903 41.5871 19.6596 41.7112 19.5879L40.9612 18.2889C40.623 18.4842 40.3183 18.7979 39.908 19.2083L40.9687 20.2689ZM43.7389 18.2889C42.8795 17.7927 41.8207 17.7927 40.9612 18.2889L41.7112 19.5879C42.1066 19.3597 42.5936 19.3597 42.9889 19.5879L43.7389 18.2889ZM39.321 27.4422C39.0154 27.7479 38.61 27.9316 38.0829 28.0662C37.819 28.1336 37.5401 28.185 37.238 28.2372C36.9447 28.2879 36.62 28.3407 36.3071 28.4076L36.6208 29.8745C36.8961 29.8156 37.1788 29.7696 37.4933 29.7153C37.799 29.6625 38.1282 29.6027 38.4539 29.5196C39.1061 29.353 39.8062 29.0783 40.3817 28.5028L39.321 27.4422ZM35.5928 27.6933C35.6597 27.3804 35.7126 27.0557 35.7632 26.7625C35.8154 26.4604 35.8668 26.1814 35.9342 25.9175C36.0688 25.3904 36.2525 24.985 36.5582 24.6794L35.4976 23.6187C34.9221 24.1942 34.6474 24.8943 34.4808 25.5465C34.3977 25.8722 34.3379 26.2014 34.2851 26.5071C34.2308 26.8216 34.1848 27.1043 34.1259 27.3796L35.5928 27.6933Z" fill="white"/>
</svg>
