<svg width="60" height="61" viewBox="0 0 60 61" fill="none" xmlns="http://www.w3.org/2000/svg">
<rect y="0.421875" width="60" height="60" rx="30" fill="#19191A"/>
<path d="M19.5 29.2552C19.5 24.8806 19.5 22.6932 20.6141 21.1598C20.9739 20.6646 21.4094 20.2291 21.9046 19.8693C23.438 18.7552 25.6253 18.7552 30 18.7552C34.3747 18.7552 36.562 18.7552 38.0954 19.8693C38.5906 20.2291 39.0261 20.6646 39.3859 21.1598C40.5 22.6932 40.5 24.8806 40.5 29.2552V31.5886C40.5 35.9633 40.5 38.1506 39.3859 39.684C39.0261 40.1792 38.5906 40.6147 38.0954 40.9745C36.562 42.0886 34.3747 42.0886 30 42.0886C25.6253 42.0886 23.438 42.0886 21.9046 40.9745C21.4094 40.6147 20.9739 40.1792 20.6141 39.684C19.5 38.1506 19.5 35.9633 19.5 31.5886V29.2552Z" stroke="white" stroke-width="1.5" stroke-linecap="round" stroke-linejoin="round"/>
<path d="M34.6673 30.4219H25.334M31.7507 36.2552H28.2507" stroke="white" stroke-width="1.5" stroke-linecap="round" stroke-linejoin="round"/>
</svg>
