<svg width="73" height="72" viewBox="0 0 73 72" fill="none" xmlns="http://www.w3.org/2000/svg">
<rect x="1.16602" y="0.5" width="71" height="71" rx="35.5" fill="#0C0C0C"/>
<rect x="1.16602" y="0.5" width="71" height="71" rx="35.5" stroke="#36363A"/>
<path fill-rule="evenodd" clip-rule="evenodd" d="M36.6641 35.9998C36.6641 32.8932 39.1825 30.3748 42.2891 30.3748C45.3957 30.3748 47.9141 32.8932 47.9141 35.9998C47.9141 39.1064 45.3957 41.6248 42.2891 41.6248C39.1825 41.6248 36.6641 39.1064 36.6641 35.9998Z" fill="#1ABCFE"/>
<path fill-rule="evenodd" clip-rule="evenodd" d="M25.4141 47.2498C25.4141 44.1432 27.9325 41.6248 31.0391 41.6248H36.6641V47.2498C36.6641 50.3564 34.1457 52.8748 31.0391 52.8748C27.9325 52.8748 25.4141 50.3564 25.4141 47.2498Z" fill="#0ACF83"/>
<path fill-rule="evenodd" clip-rule="evenodd" d="M36.6641 19.1248V30.3748H42.2891C45.3957 30.3748 47.9141 27.8564 47.9141 24.7498C47.9141 21.6432 45.3957 19.1248 42.2891 19.1248H36.6641Z" fill="#FF7262"/>
<path fill-rule="evenodd" clip-rule="evenodd" d="M25.4141 24.7498C25.4141 27.8564 27.9325 30.3748 31.0391 30.3748H36.6641V19.1248H31.0391C27.9325 19.1248 25.4141 21.6432 25.4141 24.7498Z" fill="#F24E1E"/>
<path fill-rule="evenodd" clip-rule="evenodd" d="M25.4141 35.9998C25.4141 39.1064 27.9325 41.6248 31.0391 41.6248H36.6641V30.3748H31.0391C27.9325 30.3748 25.4141 32.8932 25.4141 35.9998Z" fill="#A259FF"/>
</svg>
