<svg width="73" height="72" viewBox="0 0 73 72" fill="none" xmlns="http://www.w3.org/2000/svg">
<rect x="1.16602" y="0.5" width="71" height="71" rx="35.5" fill="#0C0C0C"/>
<rect x="1.16602" y="0.5" width="71" height="71" rx="35.5" stroke="#36363A"/>
<path d="M36.666 18.5C26.9973 18.5 19.166 26.3312 19.166 36C19.166 43.7437 24.1754 50.2844 31.1316 52.6031C32.0066 52.7562 32.3348 52.2313 32.3348 51.7719C32.3348 51.3563 32.3129 49.9781 32.3129 48.5125C27.916 49.3219 26.7785 47.4406 26.4285 46.4562C26.2316 45.9531 25.3785 44.4 24.6348 43.9844C24.0223 43.6562 23.1473 42.8469 24.6129 42.825C25.991 42.8031 26.9754 44.0938 27.3035 44.6187C28.8785 47.2656 31.3941 46.5219 32.4004 46.0625C32.5535 44.925 33.0129 44.1594 33.516 43.7219C29.6223 43.2844 25.5535 41.775 25.5535 35.0812C25.5535 33.1781 26.2316 31.6031 27.3473 30.3781C27.1723 29.9406 26.5598 28.1469 27.5223 25.7406C27.5223 25.7406 28.9879 25.2813 32.3348 27.5344C33.7348 27.1406 35.2223 26.9437 36.7098 26.9437C38.1973 26.9437 39.6848 27.1406 41.0848 27.5344C44.4316 25.2594 45.8973 25.7406 45.8973 25.7406C46.8598 28.1469 46.2473 29.9406 46.0723 30.3781C47.1879 31.6031 47.866 33.1562 47.866 35.0812C47.866 41.7969 43.7754 43.2844 39.8816 43.7219C40.516 44.2687 41.0629 45.3188 41.0629 46.9594C41.0629 49.3 41.041 51.1813 41.041 51.7719C41.041 52.2313 41.3691 52.7781 42.2441 52.6031C45.7182 51.4303 48.737 49.1976 50.8757 46.2192C53.0143 43.2408 54.1651 39.6667 54.166 36C54.166 26.3312 46.3348 18.5 36.666 18.5Z" fill="white"/>
</svg>
