<svg width="32" height="33" viewBox="0 0 32 33" fill="none" xmlns="http://www.w3.org/2000/svg">
<path d="M30.0033 16.3832C30.0033 15.2321 29.908 14.3921 29.7018 13.521H16.2891V18.7165H24.162C24.0033 20.0076 23.1462 21.9521 21.2414 23.2587L21.2147 23.4326L25.4555 26.6523L25.7494 26.681C28.4477 24.2387 30.0033 20.6454 30.0033 16.3832Z" fill="#4285F4"/>
<path d="M16.2853 30.0723C20.1424 30.0723 23.3804 28.8278 25.7456 26.6811L21.2377 23.2588C20.0313 24.0833 18.4123 24.6588 16.2853 24.6588C12.5076 24.6588 9.30128 22.2167 8.15832 18.8411L7.99078 18.855L3.58111 22.1995L3.52344 22.3566C5.87261 26.9299 10.698 30.0723 16.2853 30.0723Z" fill="#34A853"/>
<path d="M8.15866 18.8412C7.85708 17.9701 7.68255 17.0367 7.68255 16.0723C7.68255 15.1078 7.85708 14.1745 8.1428 13.3034L8.13481 13.1179L3.66986 9.71973L3.52377 9.78782C2.55556 11.6856 2 13.8168 2 16.0723C2 18.3279 2.55556 20.4589 3.52377 22.3567L8.15866 18.8412Z" fill="#FBBC05"/>
<path d="M16.2854 7.48556C18.9679 7.48556 20.7774 8.62111 21.8092 9.57007L25.8409 5.71226C23.3648 3.45672 20.1425 2.07227 16.2854 2.07227C10.698 2.07227 5.87262 5.21446 3.52344 9.78776L8.14247 13.3034C9.30131 9.92781 12.5076 7.48556 16.2854 7.48556Z" fill="#EB4335"/>
</svg>
