<svg width="20" height="21" viewBox="0 0 20 21" fill="none" xmlns="http://www.w3.org/2000/svg">
<g id="elements">
<path id="Vector" d="M7.73815 2.34156C7.09832 2.98139 6.46427 3.27844 5.55208 3.27844C4.7556 3.27844 3.62243 3.12397 3 3.75163C2.38249 4.37433 2.53628 5.50284 2.53628 6.29424C2.53628 7.20647 2.2392 7.84051 1.59935 8.48035C0.533124 9.54658 9.21521e-06 10.0797 0 10.7422C1.63967e-05 11.4046 0.533137 11.9378 1.59938 13.004C2.31616 13.7208 2.53628 14.1836 2.53628 15.1901C2.53628 15.9866 2.38181 17.1198 3.00949 17.7422C3.63218 18.3597 4.76068 18.2059 5.55206 18.2059C6.52349 18.2059 6.99128 18.3959 7.68457 19.0892C8.27492 19.6796 9.0663 20.7422 10 20.7422C10.9337 20.7422 11.7251 19.6796 12.3154 19.0892C13.0087 18.3959 13.4765 18.2059 14.4479 18.2059C15.2393 18.2059 16.3678 18.3597 16.9905 17.7422C17.6182 17.1198 17.4637 15.9866 17.4637 15.1901C17.4637 14.1836 17.6838 13.7208 18.4006 13.004C19.4669 11.9378 20 11.4046 20 10.7422C20 10.0797 19.4669 9.54658 18.4006 8.48035C17.6839 7.76356 17.4637 7.30077 17.4637 6.29424C17.4637 5.49778 17.6182 4.36462 16.9906 3.74219C16.3679 3.12466 15.2393 3.27844 14.4479 3.27844C13.5355 3.27844 12.9015 2.98125 12.2618 2.34156C11.1956 1.27531 10.6625 0.742188 10 0.742188C9.33752 0.742188 8.8044 1.27531 7.73815 2.34156Z" fill="#25C679"/>
<path id="Vector 6662" d="M7 11.635C7 11.635 8.2 12.2868 8.8 13.2422C8.8 13.2422 10.6 9.49219 13 8.24219" stroke="#0C0C0C" stroke-width="1.2" stroke-linecap="round" stroke-linejoin="round"/>
</g>
</svg>
