<svg width="20" height="20" viewBox="0 0 20 20" fill="none" xmlns="http://www.w3.org/2000/svg">
<path fill-rule="evenodd" clip-rule="evenodd" d="M10.392 0.256421L13.2457 6.32115L19.625 7.2939C19.7902 7.31957 19.9272 7.44082 19.9786 7.60687C20.03 7.77292 19.9871 7.9551 19.8677 8.07711L15.2524 12.7968L16.3421 19.4624C16.3708 19.6343 16.3034 19.8083 16.1685 19.911C16.0336 20.0138 15.8545 20.0273 15.7068 19.9461L10.0007 16.7996L4.29447 19.947C4.14686 20.0286 3.96771 20.0152 3.8327 19.9125C3.6977 19.8098 3.63038 19.6357 3.65919 19.4638L4.74886 12.7968L0.132336 8.07711C0.0129373 7.9551 -0.0300433 7.77292 0.0213977 7.60687C0.0728387 7.44082 0.209821 7.31957 0.374968 7.2939L6.75426 6.32115L9.60931 0.256421C9.68196 0.0996028 9.83397 0 10.0007 0C10.1673 0 10.3193 0.0996028 10.392 0.256421Z" fill="#545459"/>
</svg>
