<svg width="20" height="21" viewBox="0 0 20 21" fill="none" xmlns="http://www.w3.org/2000/svg">
<path d="M10.0021 2.20606C12.6719 2.20606 12.9881 2.21606 14.0428 2.26415C14.6769 2.27191 15.305 2.38835 15.8997 2.6084C16.3311 2.77474 16.7228 3.02956 17.0497 3.35644C17.3765 3.68332 17.6313 4.07503 17.7977 4.50635C18.0177 5.10111 18.1342 5.72921 18.1419 6.36334C18.1896 7.41802 18.2 7.73418 18.2 10.404C18.2 13.0737 18.19 13.3899 18.1419 14.4446C18.1342 15.0787 18.0177 15.7068 17.7977 16.3016C17.6313 16.7329 17.3765 17.1246 17.0497 17.4515C16.7228 17.7784 16.3311 18.0332 15.8997 18.1995C15.305 18.4196 14.6769 18.536 14.0428 18.5438C12.9886 18.5914 12.6724 18.6019 10.0021 18.6019C7.33186 18.6019 7.0157 18.5919 5.9615 18.5438C5.32737 18.536 4.69927 18.4196 4.1045 18.1995C3.67319 18.0332 3.28148 17.7784 2.9546 17.4515C2.62771 17.1246 2.3729 16.7329 2.20656 16.3016C1.9865 15.7068 1.87006 15.0787 1.8623 14.4446C1.81469 13.3899 1.80421 13.0737 1.80421 10.404C1.80421 7.73418 1.81421 7.41802 1.8623 6.36334C1.87006 5.72921 1.9865 5.10111 2.20656 4.50635C2.3729 4.07503 2.62771 3.68332 2.9546 3.35644C3.28148 3.02956 3.67319 2.77474 4.1045 2.6084C4.69927 2.38835 5.32737 2.27191 5.9615 2.26415C7.01617 2.21653 7.33234 2.20606 10.0021 2.20606ZM10.0021 0.404297C7.28806 0.404297 6.94618 0.415724 5.8796 0.464292C5.04969 0.480799 4.22859 0.637935 3.45122 0.929016C2.78437 1.18027 2.18037 1.57399 1.68137 2.08273C1.17217 2.58192 0.778102 3.18626 0.526697 3.85354C0.235616 4.63091 0.0784798 5.45201 0.0619726 6.28192C0.0143574 7.34755 0.00292969 7.68942 0.00292969 10.4035C0.00292969 13.1176 0.0143573 13.4594 0.0629248 14.526C0.079432 15.3559 0.236568 16.177 0.527649 16.9544C0.778776 17.6216 1.17251 18.2259 1.68137 18.7252C2.18065 19.2341 2.78498 19.6278 3.45218 19.8789C4.22954 20.17 5.05064 20.3271 5.88055 20.3436C6.94713 20.3913 7.28758 20.4036 10.0031 20.4036C12.7186 20.4036 13.059 20.3922 14.1256 20.3436C14.9555 20.3271 15.7766 20.17 16.554 19.8789C17.218 19.6215 17.821 19.2284 18.3244 18.7246C18.8278 18.2209 19.2206 17.6176 19.4776 16.9534C19.7686 16.1761 19.9258 15.355 19.9423 14.5251C19.9899 13.4594 20.0013 13.1176 20.0013 10.4035C20.0013 7.68942 19.9899 7.34755 19.9413 6.28096C19.9248 5.45105 19.7677 4.62995 19.4766 3.85259C19.2255 3.1854 18.8317 2.58106 18.3229 2.08178C17.8236 1.57293 17.2193 1.17919 16.5521 0.928064C15.7747 0.636983 14.9536 0.479847 14.1237 0.46334C13.0581 0.415725 12.7162 0.404297 10.0021 0.404297Z" fill="white"/>
<path d="M10.001 5.27002C8.98547 5.27002 7.9927 5.57117 7.14828 6.13539C6.30386 6.69962 5.64572 7.50157 5.25708 8.43983C4.86844 9.3781 4.76675 10.4105 4.96488 11.4066C5.16301 12.4027 5.65205 13.3176 6.37017 14.0357C7.08829 14.7538 8.00323 15.2429 8.99928 15.441C9.99534 15.6391 11.0278 15.5374 11.966 15.1488C12.9043 14.7602 13.7063 14.102 14.2705 13.2576C14.8347 12.4132 15.1359 11.4204 15.1359 10.4048C15.1359 9.043 14.5949 7.73694 13.6319 6.77398C12.6689 5.81101 11.3629 5.27002 10.001 5.27002ZM10.001 13.7379C9.34182 13.7379 8.69741 13.5424 8.14929 13.1762C7.60117 12.8099 7.17396 12.2894 6.92169 11.6804C6.66942 11.0713 6.60341 10.4011 6.73202 9.75459C6.86062 9.10804 7.17807 8.51415 7.64421 8.04801C8.11034 7.58187 8.70424 7.26443 9.35079 7.13582C9.99734 7.00722 10.6675 7.07322 11.2765 7.32549C11.8856 7.57777 12.4061 8.00497 12.7724 8.55309C13.1386 9.10121 13.3341 9.74563 13.3341 10.4048C13.3341 11.2888 12.9829 12.1366 12.3579 12.7617C11.7328 13.3867 10.885 13.7379 10.001 13.7379Z" fill="white"/>
<path d="M15.3396 6.26358C16.0022 6.26358 16.5395 5.72636 16.5395 5.06367C16.5395 4.40098 16.0022 3.86377 15.3396 3.86377C14.6769 3.86377 14.1396 4.40098 14.1396 5.06367C14.1396 5.72636 14.6769 6.26358 15.3396 6.26358Z" fill="white"/>
</svg>
