<svg width="73" height="72" viewBox="0 0 73 72" fill="none" xmlns="http://www.w3.org/2000/svg">
<rect x="0.833984" y="0.5" width="71" height="71" rx="35.5" fill="#0C0C0C"/>
<rect x="0.833984" y="0.5" width="71" height="71" rx="35.5" stroke="#36363A"/>
<circle cx="36.334" cy="36" r="17.5" fill="#FF3366"/>
<path d="M30.5332 29.5742C31.7413 29.5742 32.7207 28.5948 32.7207 27.3867C32.7207 26.1786 31.7413 25.1992 30.5332 25.1992C29.3251 25.1992 28.3457 26.1786 28.3457 27.3867C28.3457 28.5948 29.3251 29.5742 30.5332 29.5742Z" fill="#19191A"/>
<path d="M25.9629 31.4492L25.2012 34.2422H27.7012C27.1999 36.2799 26.1504 40.5664 25.9629 41.4102C25.7285 42.4648 25.6894 45.4727 28.8535 45.4727C31.062 45.4727 32.4706 44.046 33.2563 42.881L32.6621 45.2578H36.2168L38.0723 37.7476C38.3359 36.498 38.9566 34.0859 41.1973 34.0859C43.8622 34.0859 42.8845 37.2416 42.4054 38.7881C42.3859 38.8511 42.3672 38.9114 42.3496 38.9688C41.9902 40.1406 41.6074 41.5078 41.6074 42.4453C41.6074 43.5 42.0957 45.4727 44.8301 45.4727C47.5645 45.4727 48.7298 42.7643 48.9707 41.4102L47.584 40.8438C47.4863 41.5664 46.6074 43.1289 45.7871 43.1289C44.6641 43.1289 45.2282 41.2356 45.8302 39.2151C46.0973 38.3189 46.3717 37.3976 46.5098 36.6055C46.8587 34.6026 46.5098 31.1953 43.0332 31.1953C40.8739 31.1953 39.1784 33.1194 38.3718 34.4551L39.0488 31.4492H33.6387L32.8965 34.2422H35.416C35.416 34.2422 33.9209 40.3354 33.8242 40.5264C32.8086 42.5332 31.2725 43.2068 30.123 43.1289C29.2012 43.0664 29.3092 41.957 29.4785 41.4102L31.9785 31.4492H25.9629Z" fill="#19191A"/>
</svg>
