<svg width="20" height="21" viewBox="0 0 20 21" fill="none" xmlns="http://www.w3.org/2000/svg">
<path d="M4.51764 6.97534H0.338867V20.3012H4.51764V6.97534Z" fill="white"/>
<path d="M15.8212 6.6949C15.6672 6.67564 15.5035 6.66601 15.3398 6.65638C13.0001 6.5601 11.681 7.9466 11.2188 8.54357C11.0936 8.70725 11.0359 8.80354 11.0359 8.80354V7.02226H7.04004V20.3481H11.0359H11.2188C11.2188 18.9905 11.2188 17.6425 11.2188 16.2849C11.2188 15.5531 11.2188 14.8214 11.2188 14.0896C11.2188 13.1845 11.1514 12.2217 11.604 11.3936C11.9891 10.7004 12.6823 10.3537 13.4622 10.3537C15.7731 10.3537 15.8212 12.4431 15.8212 12.6357C15.8212 12.6453 15.8212 12.6549 15.8212 12.6549V20.4059H20V11.7113C20 8.73614 18.4883 6.98375 15.8212 6.6949Z" fill="white"/>
<path d="M2.42736 5.25487C3.76741 5.25487 4.85375 4.16854 4.85375 2.82848C4.85375 1.48843 3.76741 0.4021 2.42736 0.4021C1.0873 0.4021 0.000976562 1.48843 0.000976562 2.82848C0.000976562 4.16854 1.0873 5.25487 2.42736 5.25487Z" fill="white"/>
</svg>
