<svg width="14" height="17" viewBox="0 0 14 17" fill="none" xmlns="http://www.w3.org/2000/svg">
<g id="elements">
<path id="Ellipse 1592" d="M11.5 12.7656C12.4335 13.0839 13 13.502 13 13.96C13 14.9572 10.3137 15.7656 7 15.7656C3.68629 15.7656 1 14.9572 1 13.96C1 13.502 1.56646 13.0839 2.5 12.7656" stroke="#5E75F0" stroke-width="1.2" stroke-linecap="round"/>
<g id="Vector">
<path d="M9.25 6.39062C9.25 7.63327 8.24264 8.64062 7 8.64062C5.75736 8.64062 4.75 7.63327 4.75 6.39062C4.75 5.14798 5.75736 4.14062 7 4.14062C8.24264 4.14062 9.25 5.14798 9.25 6.39062Z" stroke="#5E75F0" stroke-width="1.2"/>
<path d="M7 0.765625C10.0441 0.765625 12.625 3.33665 12.625 6.4558C12.625 9.62463 10.0021 11.8484 7.57938 13.3605C7.40282 13.4622 7.20315 13.5156 7 13.5156C6.79685 13.5156 6.59718 13.4622 6.42062 13.3605C4.00243 11.8336 1.375 9.63558 1.375 6.4558C1.375 3.33665 3.9559 0.765625 7 0.765625Z" stroke="#5E75F0" stroke-width="1.2"/>
</g>
</g>
</svg>
