<svg width="73" height="72" viewBox="0 0 73 72" fill="none" xmlns="http://www.w3.org/2000/svg">
<rect x="0.833984" y="0.5" width="71" height="71" rx="35.5" fill="#0C0C0C"/>
<rect x="0.833984" y="0.5" width="71" height="71" rx="35.5" stroke="#36363A"/>
<path d="M53.834 34.1683H43.1719L52.4053 28.8367L50.5742 25.6633L41.3396 30.995L46.6695 21.7608L43.4973 19.9292L38.1662 29.161V18.5H34.5018V29.1622L29.1707 19.9292L25.9973 21.7608L31.3272 30.9927L22.0949 25.6633L20.2627 28.8367L29.4961 34.1683H18.834V37.8328H29.4949L20.2627 43.1645L22.0937 46.3378L31.3283 41.0062L25.9973 50.2403L29.1695 52.072L34.5018 42.839V53.5H38.1662V42.6103L43.5952 52.0137L46.5704 50.2963L41.1402 40.8907L50.5719 46.3367L52.4041 43.1633L43.1719 37.8317H53.8328V34.1683H53.834ZM36.334 40.9817C35.6798 40.9817 35.0321 40.8529 34.4277 40.6026C33.8234 40.3523 33.2742 39.9853 32.8116 39.5226C32.349 39.06 31.982 38.5107 31.7316 37.9062C31.4812 37.3017 31.3523 36.6538 31.3522 35.9994C31.3522 35.3451 31.4809 34.6971 31.7312 34.0925C31.9814 33.4879 32.3483 32.9386 32.8108 32.4759C33.2733 32.0131 33.8223 31.646 34.4267 31.3955C35.031 31.145 35.6787 31.0161 36.3328 31.016C37.6539 31.0158 38.9209 31.5407 39.8552 32.475C40.7895 33.4094 41.3144 34.6767 41.3146 35.9982C41.3147 37.3198 40.7901 38.5872 39.856 39.5218C38.922 40.4564 37.6551 40.9815 36.334 40.9817Z" fill="#625DF5"/>
</svg>
