<svg width="18" height="15" viewBox="0 0 18 15" fill="none" xmlns="http://www.w3.org/2000/svg">
<g id="elements">
<path id="Vector" d="M5.25 4.64062L7.45651 5.9452C8.74291 6.70577 9.25709 6.70577 10.5435 5.9452L12.75 4.64062" stroke="#5E75F0" stroke-width="1.2" stroke-linecap="round" stroke-linejoin="round"/>
<path id="Vector_2" d="M1.51182 8.37234C1.56086 10.6715 1.58537 11.8211 2.43372 12.6726C3.28206 13.5242 4.46275 13.5539 6.82412 13.6132C8.27948 13.6498 9.72052 13.6498 11.1759 13.6132C13.5373 13.5539 14.7179 13.5242 15.5663 12.6726C16.4146 11.8211 16.4391 10.6715 16.4882 8.37234C16.5039 7.63308 16.5039 6.89818 16.4882 6.15892C16.4391 3.85977 16.4146 2.7102 15.5663 1.85862C14.7179 1.00705 13.5373 0.977383 11.1759 0.918052C9.72052 0.881485 8.27948 0.881483 6.82412 0.918047C4.46275 0.977373 3.28206 1.00704 2.43371 1.85861C1.58537 2.71018 1.56085 3.85976 1.51182 6.15891C1.49606 6.89817 1.49606 7.63308 1.51182 8.37234Z" stroke="#5E75F0" stroke-width="1.2" stroke-linejoin="round"/>
</g>
</svg>
