<svg width="49" height="48" viewBox="0 0 49 48" fill="none" xmlns="http://www.w3.org/2000/svg">
<path d="M34.5 44H14.5C13.68 44 13 43.32 13 42.5C13 41.68 13.68 41 14.5 41H34.5C35.32 41 36 41.68 36 42.5C36 43.32 35.32 44 34.5 44Z" fill="white"/>
<path d="M41.2004 11.0401L33.2004 16.7601C32.1404 17.5201 30.6204 17.0601 30.1604 15.8401L26.3804 5.76008C25.7404 4.02008 23.2804 4.02008 22.6404 5.76008L18.8404 15.8201C18.3804 17.0601 16.8804 17.5201 15.8204 16.7401L7.82044 11.0201C6.22044 9.90008 4.10044 11.4801 4.76044 13.3401L13.0804 36.6401C13.3604 37.4401 14.1204 37.9601 14.9604 37.9601H34.0204C34.8604 37.9601 35.6204 37.4201 35.9004 36.6401L44.2204 13.3401C44.9004 11.4801 42.7804 9.90008 41.2004 11.0401ZM29.5004 29.5001H19.5004C18.6804 29.5001 18.0004 28.8201 18.0004 28.0001C18.0004 27.1801 18.6804 26.5001 19.5004 26.5001H29.5004C30.3204 26.5001 31.0004 27.1801 31.0004 28.0001C31.0004 28.8201 30.3204 29.5001 29.5004 29.5001Z" fill="white"/>
</svg>
