<svg width="49" height="48" viewBox="0 0 49 48" fill="none" xmlns="http://www.w3.org/2000/svg">
<path d="M23 36.4999H18.5C16.3 36.4999 14.5 38.2999 14.5 40.4999V40.9999H12.5C11.68 40.9999 11 41.6799 11 42.4999C11 43.3199 11.68 43.9999 12.5 43.9999H36.5C37.32 43.9999 38 43.3199 38 42.4999C38 41.6799 37.32 40.9999 36.5 40.9999H34.5V40.4999C34.5 38.2999 32.7 36.4999 30.5 36.4999H26V31.9199C25.5 31.9799 25 31.9999 24.5 31.9999C24 31.9999 23.5 31.9799 23 31.9199V36.4999Z" fill="white"/>
<path d="M37.4605 23.28C38.7805 22.78 39.9405 21.96 40.8605 21.04C42.7205 18.98 43.9405 16.52 43.9405 13.64C43.9405 10.76 41.6805 8.5 38.8005 8.5H37.6805C36.3805 5.84 33.6605 4 30.5005 4H18.5005C15.3405 4 12.6205 5.84 11.3205 8.5H10.2005C7.32055 8.5 5.06055 10.76 5.06055 13.64C5.06055 16.52 6.28055 18.98 8.14055 21.04C9.06055 21.96 10.2205 22.78 11.5405 23.28C13.6205 28.4 18.6205 32 24.5005 32C30.3805 32 35.3805 28.4 37.4605 23.28ZM30.1805 16.9L28.9405 18.42C28.7405 18.64 28.6005 19.08 28.6205 19.38L28.7405 21.34C28.8205 22.54 27.9605 23.16 26.8405 22.72L25.0205 22C24.7405 21.9 24.2605 21.9 23.9805 22L22.1605 22.72C21.0405 23.16 20.1805 22.54 20.2605 21.34L20.3805 19.38C20.4005 19.08 20.2605 18.64 20.0605 18.42L18.8205 16.9C18.0405 15.98 18.3805 14.96 19.5405 14.66L21.4405 14.18C21.7405 14.1 22.1005 13.82 22.2605 13.56L23.3205 11.92C23.9805 10.9 25.0205 10.9 25.6805 11.92L26.7405 13.56C26.9005 13.82 27.2605 14.1 27.5605 14.18L29.4605 14.66C30.6205 14.96 30.9605 15.98 30.1805 16.9Z" fill="white"/>
</svg>
