<svg width="80" height="81" viewBox="0 0 80 81" fill="none" xmlns="http://www.w3.org/2000/svg">
<rect y="0.742188" width="80" height="80" rx="40" fill="#19191A"/>
<path d="M30 29.7422H49.5C53.7134 29.7422 55.8201 29.7422 57.3334 30.7534C57.9886 31.1911 58.5511 31.7536 58.9888 32.4088C59.8722 33.7308 59.9838 35.5056 59.998 38.7422M40 29.7422L38.7331 27.2084C37.6836 25.1093 36.7245 22.9964 34.3985 22.1242C33.3798 21.7422 32.216 21.7422 29.8885 21.7422C26.2556 21.7422 24.4391 21.7422 23.0761 22.5028C22.1045 23.045 21.3028 23.8467 20.7606 24.8183C20 26.1813 20 27.9978 20 31.6307V37.7422C20 47.1703 20 51.8843 22.9289 54.8133C25.5292 57.4135 29.5364 57.7053 37 57.738H38" stroke="#5E75F0" stroke-width="2.5" stroke-linecap="round"/>
<path d="M52 57.1708V59.7422M52 57.1708C49.6864 57.1708 47.6481 56.0343 46.4526 54.3088M52 57.1708C54.3136 57.1708 56.3519 56.0343 57.5474 54.3088M52 44.3136C54.3137 44.3136 56.3522 45.4502 57.5476 47.1759M52 44.3136C49.6863 44.3136 47.6478 45.4502 46.4524 47.1759M52 44.3136V41.7422M60 45.5993L57.5476 47.1759M44.0008 55.885L46.4526 54.3088M44 45.5993L46.4524 47.1759M59.9992 55.885L57.5474 54.3088M57.5476 47.1759C58.2545 48.1964 58.6667 49.4229 58.6667 50.7422C58.6667 52.0616 58.2544 53.2883 57.5474 54.3088M46.4524 47.1759C45.7455 48.1964 45.3333 49.4229 45.3333 50.7422C45.3333 52.0616 45.7456 53.2883 46.4526 54.3088" stroke="#5E75F0" stroke-width="2.5" stroke-linecap="round"/>
</svg>
