<svg width="56" height="57" viewBox="0 0 56 57" fill="none" xmlns="http://www.w3.org/2000/svg">
<rect x="0.4" y="0.528662" width="55.2" height="55.2" rx="27.6" fill="#19191A"/>
<rect x="0.4" y="0.528662" width="55.2" height="55.2" rx="27.6" stroke="#36363A" stroke-width="0.8"/>
<path d="M23.42 37.3687C22.172 37.3687 21.028 37.0167 19.988 36.3127C18.964 35.6087 18.148 34.6167 17.54 33.3367C16.932 32.0407 16.628 30.5207 16.628 28.7767C16.628 27.0327 16.924 25.5207 17.516 24.2407C18.124 22.9607 18.94 21.9767 19.964 21.2887C20.988 20.5847 22.116 20.2327 23.348 20.2327C24.612 20.2327 25.756 20.5847 26.78 21.2887C27.804 21.9767 28.612 22.9607 29.204 24.2407C29.812 25.5207 30.116 27.0407 30.116 28.8007C30.116 30.5447 29.812 32.0647 29.204 33.3607C28.612 34.6407 27.804 35.6327 26.78 36.3367C25.772 37.0247 24.652 37.3687 23.42 37.3687ZM23.372 35.2327C24.252 35.2327 25.02 34.9927 25.676 34.5127C26.348 34.0167 26.876 33.2887 27.26 32.3287C27.644 31.3687 27.836 30.1847 27.836 28.7767C27.836 27.3687 27.644 26.1927 27.26 25.2487C26.876 24.2887 26.348 23.5687 25.676 23.0887C25.004 22.5927 24.228 22.3447 23.348 22.3447C22.484 22.3447 21.716 22.5927 21.044 23.0887C20.372 23.5687 19.844 24.2887 19.46 25.2487C19.092 26.1927 18.908 27.3687 18.908 28.7767C18.908 30.1847 19.092 31.3687 19.46 32.3287C19.844 33.2887 20.372 34.0167 21.044 34.5127C21.716 34.9927 22.492 35.2327 23.372 35.2327ZM35.402 37.1287V20.4727H37.634V37.1287H35.402ZM31.994 22.4887V20.4727H37.394V22.4887H31.994Z" fill="white"/>
</svg>
