<svg width="80" height="81" viewBox="0 0 80 81" fill="none" xmlns="http://www.w3.org/2000/svg">
<rect y="0.742188" width="80" height="80" rx="40" fill="#19191A"/>
<path d="M39.9964 20.7422C33.9809 20.7422 30.0804 24.7802 25.4674 26.252C23.5918 26.8504 22.6539 27.1497 22.2744 27.5715C21.8949 27.9933 21.7837 28.6097 21.5614 29.8425C19.1829 43.0342 24.3818 55.2301 36.7806 59.9771C38.1128 60.4872 38.7789 60.7422 40.003 60.7422C41.2271 60.7422 41.8931 60.4872 43.2252 59.9771C55.6232 55.2301 60.8172 43.0341 58.4379 29.8424C58.2156 28.6095 58.1044 27.993 57.7248 27.5712C57.3451 27.1493 56.4074 26.8503 54.5318 26.2522C49.9171 24.7805 46.0122 20.7422 39.9964 20.7422Z" stroke="#5E75F0" stroke-width="2.5" stroke-linecap="round" stroke-linejoin="round"/>
<path d="M40 20.7422V60.7422M58 40.7422H22" stroke="#5E75F0" stroke-width="2.5" stroke-linecap="round"/>
</svg>
