<svg width="56" height="57" viewBox="0 0 56 57" fill="none" xmlns="http://www.w3.org/2000/svg">
<rect x="0.4" y="0.528662" width="55.2" height="55.2" rx="27.6" fill="#19191A"/>
<rect x="0.4" y="0.528662" width="55.2" height="55.2" rx="27.6" stroke="#36363A" stroke-width="0.8"/>
<path d="M21.42 37.3687C20.172 37.3687 19.028 37.0167 17.988 36.3127C16.964 35.6087 16.148 34.6167 15.54 33.3367C14.932 32.0407 14.628 30.5207 14.628 28.7767C14.628 27.0327 14.924 25.5207 15.516 24.2407C16.124 22.9607 16.94 21.9767 17.964 21.2887C18.988 20.5847 20.116 20.2327 21.348 20.2327C22.612 20.2327 23.756 20.5847 24.78 21.2887C25.804 21.9767 26.612 22.9607 27.204 24.2407C27.812 25.5207 28.116 27.0407 28.116 28.8007C28.116 30.5447 27.812 32.0647 27.204 33.3607C26.612 34.6407 25.804 35.6327 24.78 36.3367C23.772 37.0247 22.652 37.3687 21.42 37.3687ZM21.372 35.2327C22.252 35.2327 23.02 34.9927 23.676 34.5127C24.348 34.0167 24.876 33.2887 25.26 32.3287C25.644 31.3687 25.836 30.1847 25.836 28.7767C25.836 27.3687 25.644 26.1927 25.26 25.2487C24.876 24.2887 24.348 23.5687 23.676 23.0887C23.004 22.5927 22.228 22.3447 21.348 22.3447C20.484 22.3447 19.716 22.5927 19.044 23.0887C18.372 23.5687 17.844 24.2887 17.46 25.2487C17.092 26.1927 16.908 27.3687 16.908 28.7767C16.908 30.1847 17.092 31.3687 17.46 32.3287C17.844 33.2887 18.372 34.0167 19.044 34.5127C19.716 34.9927 20.492 35.2327 21.372 35.2327ZM35.178 37.3687C34.09 37.3687 33.098 37.1687 32.202 36.7687C31.322 36.3527 30.578 35.7527 29.97 34.9687L31.506 33.4327C31.874 33.9927 32.378 34.4407 33.018 34.7767C33.658 35.0967 34.37 35.2567 35.154 35.2567C35.89 35.2567 36.522 35.1207 37.05 34.8487C37.594 34.5607 38.018 34.1607 38.322 33.6487C38.642 33.1367 38.802 32.5447 38.802 31.8727C38.802 31.1847 38.642 30.5927 38.322 30.0967C38.018 29.5847 37.586 29.1927 37.026 28.9207C36.466 28.6487 35.802 28.5127 35.034 28.5127C34.746 28.5127 34.458 28.5367 34.17 28.5847C33.882 28.6167 33.602 28.6727 33.33 28.7527L34.29 27.4567C34.594 27.3127 34.922 27.2007 35.274 27.1207C35.626 27.0407 35.978 27.0007 36.33 27.0007C37.226 27.0007 38.026 27.2087 38.73 27.6247C39.45 28.0407 40.018 28.6247 40.434 29.3767C40.866 30.1287 41.082 31.0007 41.082 31.9927C41.082 33.0487 40.826 33.9847 40.314 34.8007C39.818 35.6007 39.13 36.2327 38.25 36.6967C37.37 37.1447 36.346 37.3687 35.178 37.3687ZM33.33 28.7527V27.3847L38.202 21.8407L40.89 21.8167L35.874 27.5047L33.33 28.7527ZM30.762 22.4887V20.4727H40.89V21.8167L38.922 22.4887H30.762Z" fill="white"/>
</svg>
