<svg width="56" height="57" viewBox="0 0 56 57" fill="none" xmlns="http://www.w3.org/2000/svg">
<rect x="0.4" y="0.528662" width="55.2" height="55.2" rx="27.6" fill="#19191A"/>
<rect x="0.4" y="0.528662" width="55.2" height="55.2" rx="27.6" stroke="#36363A" stroke-width="0.8"/>
<path d="M21.42 37.3687C20.172 37.3687 19.028 37.0167 17.988 36.3127C16.964 35.6087 16.148 34.6167 15.54 33.3367C14.932 32.0407 14.628 30.5207 14.628 28.7767C14.628 27.0327 14.924 25.5207 15.516 24.2407C16.124 22.9607 16.94 21.9767 17.964 21.2887C18.988 20.5847 20.116 20.2327 21.348 20.2327C22.612 20.2327 23.756 20.5847 24.78 21.2887C25.804 21.9767 26.612 22.9607 27.204 24.2407C27.812 25.5207 28.116 27.0407 28.116 28.8007C28.116 30.5447 27.812 32.0647 27.204 33.3607C26.612 34.6407 25.804 35.6327 24.78 36.3367C23.772 37.0247 22.652 37.3687 21.42 37.3687ZM21.372 35.2327C22.252 35.2327 23.02 34.9927 23.676 34.5127C24.348 34.0167 24.876 33.2887 25.26 32.3287C25.644 31.3687 25.836 30.1847 25.836 28.7767C25.836 27.3687 25.644 26.1927 25.26 25.2487C24.876 24.2887 24.348 23.5687 23.676 23.0887C23.004 22.5927 22.228 22.3447 21.348 22.3447C20.484 22.3447 19.716 22.5927 19.044 23.0887C18.372 23.5687 17.844 24.2887 17.46 25.2487C17.092 26.1927 16.908 27.3687 16.908 28.7767C16.908 30.1847 17.092 31.3687 17.46 32.3287C17.844 33.2887 18.372 34.0167 19.044 34.5127C19.716 34.9927 20.492 35.2327 21.372 35.2327ZM29.9951 35.7607L36.1391 29.2807C36.7631 28.6407 37.2511 28.0887 37.6031 27.6247C37.9551 27.1447 38.2031 26.7047 38.3471 26.3047C38.5071 25.9047 38.5871 25.4887 38.5871 25.0567C38.5871 24.2087 38.3151 23.5447 37.7711 23.0647C37.2271 22.5847 36.5231 22.3447 35.6591 22.3447C34.8111 22.3447 34.0671 22.5527 33.4271 22.9687C32.7871 23.3687 32.2191 23.9927 31.7231 24.8407L30.1391 23.5207C30.7951 22.4327 31.5871 21.6167 32.5151 21.0727C33.4431 20.5127 34.5151 20.2327 35.7311 20.2327C36.7551 20.2327 37.6431 20.4327 38.3951 20.8327C39.1631 21.2327 39.7551 21.7927 40.1711 22.5127C40.5871 23.2327 40.7951 24.0727 40.7951 25.0327C40.7951 25.7207 40.7071 26.3367 40.5311 26.8807C40.3711 27.4247 40.0751 27.9847 39.6431 28.5607C39.2271 29.1207 38.6431 29.7927 37.8911 30.5767L32.9231 35.6887L29.9951 35.7607ZM29.9951 37.1287V35.7607L31.9151 35.1127H41.1791V37.1287H29.9951Z" fill="white"/>
</svg>
