<svg width="57" height="57" viewBox="0 0 57 57" fill="none" xmlns="http://www.w3.org/2000/svg">
<rect x="0.544531" y="1.15" width="55.2" height="55.2" rx="7.6" fill="#19191A"/>
<rect x="0.544531" y="1.15" width="55.2" height="55.2" rx="7.6" stroke="#545459" stroke-width="0.8"/>
<path d="M39.4785 33.8537C36.1431 41.7579 25.2973 44.0612 19.0804 37.9022C12.9845 31.8629 14.8718 20.9217 22.8872 17.4166" stroke="#E6692C" stroke-width="1.5" stroke-linecap="round"/>
<path d="M35.7227 29.4166C38.2396 29.4166 39.498 29.4166 40.3107 28.29C40.3411 28.2479 40.3915 28.1723 40.4188 28.1281C41.1487 26.9461 40.7726 26.038 40.0202 24.2217C39.338 22.5747 38.3381 21.0782 37.0775 19.8176C35.817 18.5571 34.3205 17.5571 32.6735 16.8749C30.8572 16.1226 29.949 15.7464 28.767 16.4763C28.7229 16.5036 28.6473 16.5541 28.6052 16.5845C27.4785 17.3972 27.4785 18.6556 27.4785 21.1725V23.9866C27.4785 26.5464 27.4785 27.8262 28.2737 28.6214C29.0689 29.4166 30.3488 29.4166 32.9085 29.4166H35.7227Z" stroke="#E6692C" stroke-width="1.5"/>
</svg>
