<svg width="47" height="47" viewBox="0 0 47 47" fill="none" xmlns="http://www.w3.org/2000/svg">
<path fill-rule="evenodd" clip-rule="evenodd" d="M23.1345 46.2689C35.9113 46.2689 46.2689 35.9113 46.2689 23.1345C46.2689 10.3577 35.9113 0 23.1345 0C10.3577 0 0 10.3577 0 23.1345C0 35.9113 10.3577 46.2689 23.1345 46.2689ZM42.6161 23.2605C42.6164 23.2209 42.6165 23.1813 42.6165 23.1417C42.6165 23.119 42.6164 23.0964 42.6164 23.0738C42.6163 23.0566 42.6162 23.0394 42.6161 23.0222V23.1417C40.0577 23.1417 37.5244 22.6378 35.1608 21.6587C32.7972 20.6797 30.6495 19.2446 28.8405 17.4356C27.0315 15.6266 25.5965 13.4789 24.6174 11.1153C23.649 8.77724 23.1454 6.27313 23.1346 3.74297C23.1239 6.27313 22.6203 8.77724 21.6519 11.1153C20.6728 13.4789 19.2378 15.6266 17.4288 17.4356C15.6197 19.2446 13.4721 20.6797 11.1085 21.6587C8.74485 22.6377 6.21153 23.1417 3.65317 23.1417V23.1436C6.21153 23.1436 8.74485 23.6475 11.1085 24.6265C13.4721 25.6056 15.6197 27.0406 17.4288 28.8496C19.2378 30.6586 20.6728 32.8063 21.6519 35.1699C22.6203 37.508 23.1239 40.0121 23.1346 42.5422C23.1454 40.0121 23.649 37.508 24.6174 35.1699C25.5965 32.8063 27.0315 30.6586 28.8405 28.8496C30.6495 27.0406 32.7972 25.6056 35.1608 24.6265C37.5244 23.6475 40.0578 23.1436 42.6161 23.1436V23.2605Z" fill="white"/>
</svg>
