<svg width="72" height="72" viewBox="0 0 72 72" fill="none" xmlns="http://www.w3.org/2000/svg">
<rect x="0.5" y="0.5" width="71" height="71" rx="35.5" fill="#0C0C0C"/>
<rect x="0.5" y="0.5" width="71" height="71" rx="35.5" stroke="#36363A"/>
<path d="M49.1253 34.7497C50.851 34.7497 52.25 33.3507 52.25 31.625C52.25 29.8992 50.8509 28.5002 49.1251 28.5002C47.3992 28.5002 46 29.8994 46 31.6252V34.7497H49.1253ZM40.375 34.7497C42.1009 34.7497 43.5 33.3506 43.5 31.6247V22.8752C43.5 21.1494 42.1009 19.7502 40.375 19.7502C38.6491 19.7502 37.25 21.1494 37.25 22.8752V31.6247C37.25 33.3506 38.6491 34.7497 40.375 34.7497Z" fill="#2EB67D"/>
<path d="M22.8747 37.2503C21.149 37.2503 19.75 38.6493 19.75 40.375C19.75 42.1008 21.1491 43.4998 22.8749 43.4998C24.6008 43.4998 26 42.1006 26 40.3748V37.2503H22.8747ZM31.625 37.2503C29.8991 37.2503 28.5 38.6494 28.5 40.3753V49.1248C28.5 50.8506 29.8991 52.2498 31.625 52.2498C33.3509 52.2498 34.75 50.8506 34.75 49.1248V40.3753C34.75 38.6494 33.3509 37.2503 31.625 37.2503Z" fill="#E01E5A"/>
<path d="M37.2505 49.1253C37.2505 50.851 38.6495 52.25 40.3753 52.25C42.101 52.25 43.5 50.8509 43.5 49.1251C43.5 47.3992 42.1009 46 40.375 46L37.2505 46L37.2505 49.1253ZM37.2505 40.375C37.2505 42.1009 38.6496 43.5 40.3755 43.5L49.125 43.5C50.8509 43.5 52.25 42.1009 52.25 40.375C52.25 38.6491 50.8509 37.25 49.125 37.25L40.3755 37.25C38.6496 37.25 37.2505 38.6491 37.2505 40.375Z" fill="#ECB22E"/>
<path d="M34.7495 22.8747C34.7495 21.149 33.3505 19.75 31.6247 19.75C29.899 19.75 28.5 21.1491 28.5 22.8749C28.5 24.6008 29.8991 26 31.625 26L34.7495 26L34.7495 22.8747ZM34.7495 31.625C34.7495 29.8991 33.3504 28.5 31.6245 28.5L22.875 28.5C21.1491 28.5 19.75 29.8991 19.75 31.625C19.75 33.3509 21.1491 34.75 22.875 34.75L31.6245 34.75C33.3504 34.75 34.7495 33.3509 34.7495 31.625Z" fill="#36C5F0"/>
</svg>
