<svg width="16" height="17" viewBox="0 0 16 17" fill="none" xmlns="http://www.w3.org/2000/svg">
<path id="Path" fill-rule="evenodd" clip-rule="evenodd" d="M8.31359 0.705137L10.5966 5.55692L15.7 6.33512C15.8321 6.35566 15.9417 6.45266 15.9829 6.5855C16.024 6.71834 15.9896 6.86408 15.8941 6.96169L12.202 10.7374L13.0737 16.07C13.0966 16.2075 13.0428 16.3466 12.9348 16.4288C12.8269 16.511 12.6836 16.5219 12.5655 16.4569L8.00052 13.9397L3.43557 16.4576C3.31748 16.5229 3.17417 16.5121 3.06616 16.43C2.95816 16.3478 2.9043 16.2086 2.92735 16.071L3.79908 10.7374L0.105869 6.96169C0.0103498 6.86408 -0.0240346 6.71834 0.0171182 6.5855C0.058271 6.45266 0.167857 6.35566 0.299974 6.33512L5.40341 5.55692L7.68745 0.705137C7.74557 0.579682 7.86718 0.5 8.00052 0.5C8.13386 0.5 8.25547 0.579682 8.31359 0.705137Z" fill="#F3B814"/>
</svg>
