<svg width="73" height="72" viewBox="0 0 73 72" fill="none" xmlns="http://www.w3.org/2000/svg">
<rect x="1.16602" y="0.5" width="71" height="71" rx="35.5" fill="#0C0C0C"/>
<rect x="1.16602" y="0.5" width="71" height="71" rx="35.5" stroke="#36363A"/>
<path d="M40.3599 39.7022C37.9854 40.5958 35.3245 40.5974 32.9499 39.7028C32.0552 37.3308 32.055 34.6704 32.9485 32.2981C35.3225 31.403 37.986 31.4029 40.36 32.298C41.2544 34.6696 41.254 37.3306 40.3599 39.7022ZM53.9227 33.0833H43.701L50.9284 25.86C49.7942 24.2677 48.3938 22.8689 46.8005 21.7353L39.5726 28.9586V18.7435C37.6435 18.4192 35.6652 18.4197 33.7361 18.7435V28.9586L26.5082 21.7353C24.9153 22.8682 23.5145 24.2689 22.3801 25.86L29.6086 33.0833H19.3871C19.1347 35.0689 19.0528 36.935 19.3871 38.9165H29.6088L22.3803 46.1398C23.5174 47.7345 24.9124 49.1286 26.5082 50.265L33.7361 43.0412V53.2568C35.6654 53.5799 37.6432 53.5801 39.5724 53.2568V43.0412L46.8011 50.265C48.3951 49.1303 49.7929 47.7327 50.9284 46.1398L43.6999 38.9165H53.9227C54.2471 36.9904 54.2471 35.0094 53.9227 33.0833Z" fill="#FF4A00"/>
</svg>
